<?xml version="1.0" standalone="no"?>
<!DOCTYPE svg PUBLIC "-//W3C//DTD SVG 1.1//EN" "http://www.w3.org/Graphics/SVG/1.1/DTD/svg11.dtd" >
<svg xmlns="http://www.w3.org/2000/svg" xmlns:xlink="http://www.w3.org/1999/xlink" version="1.1">
<metadata>
Created by FontForge 20170731 at Mon Sep 16 03:09:13 2019
 By Aleksey,,,
Copyright (c) 2018 by Alexander Slobzheninov. All rights reserved.
</metadata>
<defs>
<font id="Agrandir-GrandLight" horiz-adv-x="833" >
  <font-face 
    font-family="Agrandir Grand Light"
    font-weight="300"
    font-stretch="extra-expanded"
    units-per-em="1000"
    panose-1="0 0 4 7 0 0 0 0 0 0"
    ascent="750"
    descent="-250"
    x-height="503"
    cap-height="703"
    bbox="-169 -242.656 1452 964"
    underline-thickness="34"
    underline-position="-188"
    unicode-range="U+000D-F6C3"
  />
<missing-glyph horiz-adv-x="0" 
 />
    <glyph glyph-name=".notdef" horiz-adv-x="0" 
 />
    <glyph glyph-name=".null" horiz-adv-x="0" 
 />
    <glyph glyph-name="nonmarkingreturn" horiz-adv-x="333" 
 />
    <glyph glyph-name="NULL" horiz-adv-x="968" 
d="M121 0v703h727v-703h-727zM172 43h625v616h-625v-616z" />
    <glyph glyph-name="NULL" horiz-adv-x="968" 
d="M121 0v703h727v-703h-727zM172 43h625v616h-625v-616z" />
    <glyph glyph-name="CR" unicode="&#xd;" horiz-adv-x="60" 
 />
    <glyph glyph-name="space" unicode=" " horiz-adv-x="353" 
 />
    <glyph glyph-name="exclam" unicode="!" horiz-adv-x="269" 
d="M114 171l-9 338v194h59v-194l-10 -338h-40zM134 -11q-20 0 -32 12.5t-12 31.5t12.5 31t31.5 12q20 0 32.5 -12t12.5 -31t-12.5 -31.5t-32.5 -12.5z" />
    <glyph glyph-name="quotedbl" unicode="&#x22;" horiz-adv-x="229" 
d="M40 427v276h35v-276h-35zM154 427l1 276h34v-276h-35z" />
    <glyph glyph-name="numbersign" unicode="#" horiz-adv-x="903" 
d="M237 -10l-33 9l66 245h-240v34h249l54 202h-253v34h262l60 222l33 -8l-57 -214h204l59 222l33 -9l-57 -213h255l1 -34h-265l-54 -202h269l-1 -34h-277l-67 -254l-33 8l65 246h-205zM314 278h205l53 202h-204z" />
    <glyph glyph-name="dollar" unicode="$" horiz-adv-x="801" 
d="M516 377q139 -22 202 -66.5t63 -121.5q0 -97 -92 -155.5t-245 -58.5h-21v-105h-34v107q-139 11 -238.5 75t-130.5 162l50 30q22 -87 108.5 -144t210.5 -68v309l-82 13q-120 19 -173.5 58.5t-53.5 111.5q0 93 82 148.5t216 55.5h11v92h34v-94q101 -8 179 -52t113 -110
l-47 -33q-30 57 -95.5 94.5t-149.5 46.5v-280zM318 409l71 -11v276h-11q-107 0 -173 -40.5t-66 -106.5q0 -47 42.5 -75.5t136.5 -42.5zM446 29q125 0 200.5 42.5t75.5 111.5q0 54 -51 87t-163 51l-85 14v-306h23z" />
    <glyph glyph-name="percent" unicode="%" horiz-adv-x="967" 
d="M247 -10l-29 19l509 734l28 -19zM230 338q-87 0 -143.5 56.5t-56.5 143.5t56.5 143.5t143.5 56.5q86 0 142.5 -56.5t56.5 -143.5t-56.5 -143.5t-142.5 -56.5zM231 390q64 0 105.5 42t41.5 106q0 65 -41.5 107t-105.5 42q-66 0 -108 -42t-42 -107q0 -64 42.5 -106
t107.5 -42zM738 -12q-87 0 -143.5 56.5t-56.5 143.5q1 87 57.5 143.5t142.5 56.5t142.5 -56.5t56.5 -143.5t-56 -143.5t-143 -56.5zM739 40q64 0 106 42t42 106t-42 106.5t-106 42.5q-65 0 -107.5 -42t-42.5 -107q0 -64 42.5 -106t107.5 -42z" />
    <glyph glyph-name="ampersand" unicode="&#x26;" horiz-adv-x="879" 
d="M696 115l183 -116h-94l-131 82q-136 -106 -315 -106q-135 0 -222 58.5t-87 154.5q0 66 42 110t122 75q-91 66 -91 152t72 139.5t189 53.5q104 0 172.5 -46t69.5 -124q0 -72 -67.5 -118.5t-217.5 -77.5l328 -207q84 77 127 193l49 -27q-48 -117 -129 -196zM161 521
q0 -37 24.5 -67.5t80.5 -66.5q150 26 218.5 64t68.5 94q-1 55 -54 87t-132 32q-94 0 -150 -39t-56 -104zM340 29q154 0 266 83l-363 229q-76 -24 -115.5 -59.5t-39.5 -91.5q0 -74 71 -117.5t181 -43.5z" />
    <glyph glyph-name="quotesingle" unicode="'" horiz-adv-x="115" 
d="M40 427v276h35v-276h-35z" />
    <glyph glyph-name="parenleft" unicode="(" horiz-adv-x="236" 
d="M200 -190q-71 74 -115.5 204t-44.5 262q0 133 44.5 263.5t115.5 204.5l25 -22q-68 -78 -109.5 -201t-41.5 -247q1 -123 42 -244t109 -197z" />
    <glyph glyph-name="parenright" unicode=")" horiz-adv-x="235" 
d="M36 -190l-25 23q69 79 109.5 198.5t40.5 242.5q1 125 -39.5 246t-111.5 202l26 22q73 -76 116.5 -205t42.5 -263q0 -134 -43 -262t-116 -204z" />
    <glyph glyph-name="asterisk" unicode="*" horiz-adv-x="474" 
d="M220 265v149q0 17 -9.5 22.5t-23.5 -3.5l-130 -74l-17 30l129 74q31 19 0 39l-129 75l17 29l130 -74q14 -9 23.5 -3.5t9.5 22.5v149h34v-149q0 -17 9.5 -22.5t24.5 3.5l129 74l17 -29l-129 -75q-15 -9 -15 -19.5t15 -19.5l129 -74l-17 -30l-129 74q-15 9 -24.5 3.5
t-9.5 -22.5v-149h-34z" />
    <glyph glyph-name="plus" unicode="+" horiz-adv-x="781" 
d="M362 140v205h-306v48h306v187h56v-187h308v-48h-309v-205h-55z" />
    <glyph glyph-name="comma" unicode="," horiz-adv-x="187" 
d="M36 -115l8 29q34 -9 56 14.5t18 64.5q-25 -8 -42 4.5t-17 35.5q0 18 12 30.5t31 12.5q50 0 50 -81q0 -61 -32.5 -92t-83.5 -18z" />
    <glyph glyph-name="hyphen" unicode="-" horiz-adv-x="618" 
d="M56 238v52h506v-52h-506z" />
    <glyph glyph-name="period" unicode="." horiz-adv-x="160" 
d="M80 -11q-20 0 -32 12.5t-12 31.5t12.5 31t31.5 12t31.5 -12t12.5 -31t-12 -31.5t-32 -12.5z" />
    <glyph glyph-name="slash" unicode="/" horiz-adv-x="546" 
d="M40 -240l-30 16l494 937l31 -16z" />
    <glyph glyph-name="zero" unicode="0" horiz-adv-x="893" 
d="M446 -25q-172 0 -281 106t-109 270q0 165 109 271t281 106t281.5 -106t109.5 -271q0 -164 -109.5 -270t-281.5 -106zM446 25q147 0 239.5 91.5t92.5 234.5t-92.5 235t-239.5 92q-146 0 -238.5 -92t-92.5 -235q0 -142 92.5 -234t238.5 -92z" />
    <glyph glyph-name="one" unicode="1" horiz-adv-x="657" 
d="M26 0v54h308v571h-1q-67 -86 -260 -127l-11 52q192 36 276 153h55v-649h248v-54h-615z" />
    <glyph glyph-name="two" unicode="2" horiz-adv-x="732" 
d="M36 0v52q1 125 60.5 189t207.5 97l136 30q96 21 136 53t40 88q0 70 -65.5 117.5t-167.5 47.5q-91 0 -166.5 -41.5t-115.5 -111.5l-42 38q46 78 133 123.5t193 45.5q128 0 209 -63t81 -160q0 -77 -51 -120t-172 -70l-135 -30q-122 -27 -171 -78.5t-49 -152.5h600v-54h-661
z" />
    <glyph glyph-name="three" unicode="3" horiz-adv-x="772" 
d="M398 -25q-145 0 -245 64.5t-117 167.5l54 20q11 -88 95 -143.5t212 -55.5q117 0 194 46t77 119q0 67 -62 106.5t-155 40.5l-148 2v46l140 2q80 1 126 37.5t46 91.5q0 63 -61 104.5t-156 41.5q-105 0 -175.5 -51.5t-78.5 -132.5l-57 16q14 98 100 160t211 62
q120 0 198 -55.5t79 -140.5q0 -51 -34 -94t-92 -58v-2q83 -18 130 -66t47 -112q0 -96 -93.5 -156t-234.5 -60z" />
    <glyph glyph-name="four" unicode="4" horiz-adv-x="737" 
d="M536 0v174h-510v38l503 491h66v-475h106v-54h-106v-174h-59zM116 228h420v408h-1z" />
    <glyph glyph-name="five" unicode="5" horiz-adv-x="760" 
d="M391 -25q-150 0 -246 67t-109 182l54 15q8 -97 89 -153.5t212 -56.5q127 0 201 48.5t74 131.5q0 89 -71.5 140.5t-194.5 51.5q-74 0 -137.5 -19.5t-96.5 -52.5l-41 13l27 361h491v-54h-443l-19 -257q35 28 95 44.5t126 16.5q149 0 236 -65t87 -176q0 -109 -90 -173
t-244 -64z" />
    <glyph glyph-name="six" unicode="6" horiz-adv-x="792" 
d="M403 728q121 0 205 -62.5t120 -180.5l-49 -31q-28 108 -100 164t-177 56q-130 0 -207.5 -85.5t-83.5 -265.5q41 66 114 99t193 33q151 0 244.5 -65t93.5 -172q0 -109 -97 -176t-248 -67q-163 0 -259 73t-96 209q0 471 347 471zM412 402q-131 0 -214 -51t-83 -135
t83.5 -136t214.5 -52q125 0 204.5 52.5t79.5 137.5q0 83 -80 133.5t-205 50.5z" />
    <glyph glyph-name="seven" unicode="7" horiz-adv-x="705" 
d="M239 0q78 409 378 649h-601v54h673v-51q-304 -240 -381 -652h-69z" />
    <glyph glyph-name="eight" unicode="8" horiz-adv-x="797" 
d="M399 -25q-160 0 -261.5 58t-101.5 152q-1 72 60.5 124t160.5 69q-80 15 -129.5 60t-49.5 107q0 83 89.5 133t231.5 50q141 0 230.5 -50.5t89.5 -134.5q0 -60 -48 -105t-124 -60q96 -17 155 -68.5t59 -124.5q0 -95 -101.5 -152.5t-260.5 -57.5zM399 399q114 0 187 39
t73 102q0 62 -73.5 101t-186.5 39q-114 0 -187.5 -39t-73.5 -101q0 -63 73 -102t188 -39zM399 24q130 0 214.5 45t84.5 117t-84 117.5t-215 45.5q-132 0 -216 -45t-84 -117t84 -117.5t216 -45.5z" />
    <glyph glyph-name="nine" unicode="9" horiz-adv-x="838" 
d="M410 -25q-141 0 -240.5 61.5t-143.5 180.5l49 32q35 -109 123.5 -164.5t213.5 -55.5q140 0 223.5 87.5t92.5 265.5q-82 -134 -308 -134q-151 0 -244.5 64.5t-93.5 171.5q0 109 97 176.5t248 67.5q163 0 259 -73t96 -209q0 -230 -92.5 -350.5t-279.5 -120.5zM426 300
q130 0 213.5 51.5t83.5 134.5q0 85 -83 136.5t-215 51.5q-125 0 -204.5 -52t-79.5 -137q0 -83 80 -134t205 -51z" />
    <glyph glyph-name="colon" unicode=":" horiz-adv-x="160" 
d="M80 402q-20 0 -32 12t-12 32q0 19 12.5 31.5t31.5 12.5t31.5 -12.5t12.5 -31.5q0 -20 -12 -32t-32 -12zM80 -11q-20 0 -32 12.5t-12 31.5t12.5 31t31.5 12t31.5 -12t12.5 -31t-12 -31.5t-32 -12.5z" />
    <glyph glyph-name="semicolon" unicode=";" horiz-adv-x="187" 
d="M103 402q-19 0 -31.5 12t-12.5 32q0 19 12.5 31.5t31.5 12.5t32 -12.5t13 -31.5t-12.5 -31.5t-32.5 -12.5zM36 -115l8 29q34 -9 56 14.5t18 64.5q-25 -8 -42 4.5t-17 35.5q0 18 12 30.5t31 12.5q50 0 50 -81q0 -61 -32.5 -92t-83.5 -18z" />
    <glyph glyph-name="less" unicode="&#x3c;" horiz-adv-x="683" 
d="M611 97l-555 211v66l555 211l17 -48l-527 -196l527 -196z" />
    <glyph glyph-name="equal" unicode="=" horiz-adv-x="781" 
d="M56 412v52h670v-52h-670zM56 233v51h670v-51h-670z" />
    <glyph glyph-name="greater" unicode="&#x3e;" horiz-adv-x="683" 
d="M72 585l556 -210v-67l-556 -211l-16 49l527 195l-527 196z" />
    <glyph glyph-name="question" unicode="?" horiz-adv-x="677" 
d="M282 170q0 74 33.5 117t109.5 79l56 26q55 25 84 53.5t29 69.5q0 68 -73 113.5t-182 45.5q-108 0 -182 -47t-97 -126l-50 28q28 88 117.5 143.5t215.5 55.5q134 0 222 -61t88 -152q0 -56 -35.5 -94t-107.5 -71l-55 -26q-66 -31 -92 -63t-26 -91h-55zM310 -12
q-20 0 -32 12t-12 32q0 19 12 31.5t32 12.5q19 0 31.5 -12.5t12.5 -31.5t-12.5 -31.5t-31.5 -12.5z" />
    <glyph glyph-name="at" unicode="@" horiz-adv-x="1143" 
d="M578 -181q-254 0 -396 116.5t-142 303.5q0 186 147.5 306t398.5 120q245 0 381 -116.5t136 -315.5q0 -139 -43.5 -196t-110.5 -57q-49 0 -80.5 32t-31.5 82v20h-1q-35 -59 -130 -97t-210 -38q-266 0 -266 144q0 138 298 162l275 22q35 3 35 32q0 57 -68 94t-174 37
q-101 0 -190 -33.5t-122 -85.5l-37 35q40 59 138.5 97t210.5 38q127 0 212 -50t85 -135v-242q0 -75 67 -75q45 0 76.5 48t31.5 166q0 184 -125.5 291t-354.5 107q-239 0 -376.5 -110.5t-137.5 -282.5t133.5 -278t373.5 -106q140 0 261 51l11 -30q-126 -56 -275 -56zM498 29
q146 0 242.5 55t96.5 137v40l-305 -24q-246 -18 -246 -111q0 -97 212 -97z" />
    <glyph glyph-name="A" unicode="A" 
d="M5 0l378 703h69l376 -703h-62l-97 177h-505l-96 -177h-63zM192 230h450l-224 422h-2z" />
    <glyph glyph-name="B" unicode="B" horiz-adv-x="815" 
d="M50 0v703h493q107 0 169.5 -49.5t62.5 -134.5q0 -57 -33 -98.5t-91 -55.5v-1q67 -13 105.5 -59t38.5 -111q0 -89 -69.5 -141.5t-189.5 -52.5h-486zM109 391h431q82 0 129 34.5t47 94.5q0 61 -47 95.5t-130 34.5h-430v-259zM109 53h422q96 0 150.5 38t54.5 105t-54.5 105
t-150.5 38h-422v-286z" />
    <glyph glyph-name="C" unicode="C" horiz-adv-x="981" 
d="M503 -25q-212 0 -337.5 102t-125.5 274q0 173 116.5 275t314.5 102q140 0 248 -66t150 -178l-53 -22q-34 97 -127.5 154.5t-217.5 57.5q-171 0 -271.5 -87.5t-100.5 -235.5t109.5 -235.5t294.5 -87.5q142 0 247 68.5t140 184.5l55 -19q-41 -132 -161 -209.5t-281 -77.5z
" />
    <glyph glyph-name="D" unicode="D" horiz-adv-x="895" 
d="M50 0v703h395q198 0 304 -91t106 -261t-106 -260.5t-304 -90.5h-395zM109 53h336q169 0 260 77.5t91 220.5q0 144 -91 221t-260 77h-336v-596z" />
    <glyph glyph-name="E" unicode="E" horiz-adv-x="756" 
d="M50 0v703h676v-54h-618v-258h578v-53h-578v-285h628v-53h-686z" />
    <glyph glyph-name="F" unicode="F" horiz-adv-x="699" 
d="M50 0v703h634v-54h-575v-268h515v-53h-515v-328h-59z" />
    <glyph glyph-name="G" unicode="G" horiz-adv-x="1016" 
d="M513 -25q-206 0 -339.5 106t-133.5 270t126.5 270.5t322.5 106.5q135 0 245 -61t140 -154l-55 -16q-26 77 -120 127t-209 50q-170 1 -280.5 -90t-110.5 -233q0 -140 119 -231.5t301 -91.5q173 0 289 86.5t116 218.5h-595v52h652v-385h-52l-6 181h-1q-53 -96 -160 -151
t-249 -55z" />
    <glyph glyph-name="H" unicode="H" horiz-adv-x="835" 
d="M50 0v703h59v-309h617v309h59v-703h-59v341h-617v-341h-59z" />
    <glyph glyph-name="I" unicode="I" horiz-adv-x="159" 
d="M50 0v703h59v-703h-59z" />
    <glyph glyph-name="J" unicode="J" horiz-adv-x="562" 
d="M279 -20q-107 0 -175.5 54t-88.5 155l52 22q14 -85 68.5 -131.5t140.5 -46.5q88 0 137.5 55.5t49.5 154.5v460h59v-464q0 -122 -64 -190.5t-179 -68.5z" />
    <glyph glyph-name="K" unicode="K" horiz-adv-x="713" 
d="M50 0v703h59v-337h1l500 337h95l-422 -283l430 -420h-81l-395 388l-128 -86v-302h-59z" />
    <glyph glyph-name="L" unicode="L" horiz-adv-x="593" 
d="M50 0v703h59v-650h479v-53h-538z" />
    <glyph glyph-name="M" unicode="M" horiz-adv-x="1035" 
d="M50 0v703h91l376 -646h1l376 646h91v-703h-59v641h-2l-373 -641h-68l-372 641h-2v-641h-59z" />
    <glyph glyph-name="N" unicode="N" horiz-adv-x="836" 
d="M50 0v703h80l596 -644h1v644h59v-703h-80l-596 643h-1v-643h-59z" />
    <glyph glyph-name="O" unicode="O" horiz-adv-x="1030" 
d="M515 -25q-212 0 -343.5 104t-131.5 272t131.5 272.5t343.5 104.5q213 0 344 -104.5t131 -272.5t-131 -272t-344 -104zM515 28q186 0 301 89.5t115 233.5t-115 233.5t-301 89.5t-301 -89.5t-115 -233.5t115 -233.5t301 -89.5z" />
    <glyph glyph-name="P" unicode="P" horiz-adv-x="803" 
d="M50 0v703h491q117 0 182 -57.5t65 -156.5q-1 -98 -66 -155.5t-181 -57.5h-432v-276h-59zM109 330h426q92 0 143 42.5t51 116.5t-51 117t-143 43h-426v-319z" />
    <glyph glyph-name="Q" unicode="Q" horiz-adv-x="1030" 
d="M689 -176q122 0 175 106l44 -31q-29 -62 -87 -95.5t-136 -33.5q-93 0 -149.5 48.5t-56.5 127.5v30q-198 9 -318.5 112t-120.5 263q0 168 131.5 272.5t343.5 104.5q213 0 344 -104.5t131 -272.5q0 -163 -124.5 -266.5t-327.5 -109.5v-25q0 -57 41 -91.5t110 -34.5zM99 351
q0 -144 115 -233.5t301 -89.5t301 89.5t115 233.5t-115 233.5t-301 89.5t-301 -89.5t-115 -233.5z" />
    <glyph glyph-name="R" unicode="R" horiz-adv-x="862" 
d="M762 -20q-76 0 -113 98l-45 115q-41 107 -127 107h-368v-300h-59v703h502q110 0 179 -55t69 -144q0 -81 -60 -133.5t-160 -58.5v-1q53 -29 85 -114l40 -103q11 -30 25.5 -46t38.5 -16q36 0 60 41l33 -35q-39 -58 -100 -58zM108 354h440q85 0 138.5 41t53.5 106
q0 66 -53.5 107t-138.5 41h-440v-295z" />
    <glyph glyph-name="S" unicode="S" horiz-adv-x="801" 
d="M444 -25q-159 0 -274.5 65.5t-149.5 173.5l50 30q25 -97 128.5 -156t247.5 -59q125 0 200.5 42.5t75.5 111.5q0 54 -51 87t-163 51l-201 33q-120 19 -173.5 58.5t-53.5 111.5q0 93 82 148.5t216 55.5q115 0 206.5 -45t130.5 -119l-47 -33q-34 64 -112.5 103.5
t-177.5 39.5q-107 0 -173 -40.5t-66 -106.5q0 -47 42.5 -75.5t136.5 -42.5l198 -32q139 -22 202 -66.5t63 -121.5q0 -97 -92 -155.5t-245 -58.5z" />
    <glyph glyph-name="T" unicode="T" horiz-adv-x="754" 
d="M347 0v649h-342v54h744v-54h-343v-649h-59z" />
    <glyph glyph-name="U" unicode="U" 
d="M417 -25q-176 0 -276.5 87t-100.5 244v397h59v-397q0 -133 84.5 -204.5t233.5 -71.5t233 71.5t84 204.5v397h59v-397q0 -157 -100.5 -244t-275.5 -87z" />
    <glyph glyph-name="V" unicode="V" horiz-adv-x="819" 
d="M376 0l-376 703h66l344 -641h1l342 641h66l-376 -703h-67z" />
    <glyph glyph-name="W" unicode="W" horiz-adv-x="1351" 
d="M311 0l-312 703h65l286 -645h1l280 645h87l281 -645h1l286 645h65l-312 -703h-79l-285 647h-1l-284 -647h-79z" />
    <glyph glyph-name="X" unicode="X" horiz-adv-x="788" 
d="M5 0l344 363l-335 340h81l297 -304l302 304h80l-338 -340l347 -363h-79l-312 326l-308 -326h-79z" />
    <glyph glyph-name="Y" unicode="Y" horiz-adv-x="754" 
d="M348 0v275l-350 428h77l302 -373h1l301 373h75l-347 -428v-275h-59z" />
    <glyph glyph-name="Z" unicode="Z" horiz-adv-x="784" 
d="M15 0v71l675 578h-665v54h734v-71l-676 -579h686v-53h-754z" />
    <glyph glyph-name="bracketleft" unicode="[" horiz-adv-x="234" 
d="M50 -190v933h173v-35h-138v-864h138v-34h-173z" />
    <glyph glyph-name="backslash" unicode="\" horiz-adv-x="546" 
d="M506 -240l-495 937l30 16l494 -937z" />
    <glyph glyph-name="bracketright" unicode="]" horiz-adv-x="233" 
d="M183 -190h-173v34h138v864h-138v35h173v-933z" />
    <glyph glyph-name="asciicircum" unicode="^" horiz-adv-x="680" 
d="M66 400l-36 33l277 270h66l277 -269l-36 -34l-274 264z" />
    <glyph glyph-name="underscore" unicode="_" horiz-adv-x="700" 
d="M0 -34v34h700v-34h-700z" />
    <glyph glyph-name="grave" unicode="`" horiz-adv-x="344" 
d="M265 594l-205 136l20 29l203 -136z" />
    <glyph glyph-name="a" unicode="a" horiz-adv-x="846" 
d="M285 -20q-265 0 -265 143q0 140 297 162l276 22q35 3 35 34q0 55 -68.5 92.5t-173.5 37.5q-101 0 -190 -34t-123 -86l-36 35q39 59 138 98t210 39q127 0 212 -51t85 -136v-237q0 -30 16.5 -48.5t43.5 -18.5q48 0 72 37l32 -36q-15 -24 -45.5 -38.5t-65.5 -14.5
q-47 0 -76.5 30.5t-31.5 79.5v24h-1q-35 -59 -130.5 -96.5t-210.5 -37.5zM287 29q146 0 243 55t97 137v40l-306 -24q-246 -18 -246 -111q0 -97 212 -97z" />
    <glyph glyph-name="b" unicode="b" horiz-adv-x="799" 
d="M407 -20q-110 0 -194 40.5t-118 108.5h-1l-4 -129h-50v733h55v-359h1q35 68 119 108.5t193 40.5q160 0 260.5 -75.5t100.5 -196.5q0 -120 -101 -195.5t-261 -75.5zM404 31q136 0 223 61.5t87 158.5t-86.5 158.5t-223.5 61.5t-223.5 -61.5t-86.5 -158.5t86.5 -158.5
t223.5 -61.5z" />
    <glyph glyph-name="c" unicode="c" horiz-adv-x="779" 
d="M381 -20q-152 0 -251.5 76t-99.5 195q0 120 95 196t244 76q113 0 199 -45t117 -120l-51 -19q-26 61 -96.5 97.5t-163.5 36.5q-127 0 -208 -62t-81 -160q-1 -97 85.5 -159.5t216.5 -62.5q113 0 202 50t117 129l53 -19q-36 -92 -141 -150.5t-237 -58.5z" />
    <glyph glyph-name="d" unicode="d" horiz-adv-x="799" 
d="M392 -20q-160 0 -261 75.5t-101 195.5q0 121 100.5 196.5t260.5 75.5q109 0 193 -40.5t119 -108.5h1v359h55v-733h-50l-4 129h-1q-34 -68 -118 -108.5t-194 -40.5zM395 31q137 0 223.5 61.5t86.5 158.5t-86.5 158.5t-223.5 61.5t-223.5 -61.5t-86.5 -158.5t87 -158.5
t223 -61.5z" />
    <glyph glyph-name="e" unicode="e" horiz-adv-x="802" 
d="M412 -20q-166 0 -274 77.5t-108 196.5q0 117 99 193t253 76q150 0 247 -76t97 -193q0 -18 -1 -25h-633q7 -85 99 -140.5t226 -55.5q101 0 192 32t134 81l34 -40q-50 -55 -151.5 -90.5t-213.5 -35.5zM91 280h576q-7 84 -88 136.5t-199 52.5q-119 0 -200.5 -53.5
t-88.5 -135.5z" />
    <glyph glyph-name="f" unicode="f" horiz-adv-x="594" 
d="M186 0v455h-186v48h186v41q0 90 55.5 143.5t148.5 53.5q67 0 120.5 -30t77.5 -80l-47 -25q-18 39 -59 62t-92 23q-68 0 -108.5 -40.5t-40.5 -109.5v-38h335v-48h-335v-455h-55z" />
    <glyph glyph-name="g" unicode="g" horiz-adv-x="789" 
d="M362 -230q-249 0 -395 111l33 45q142 -105 362 -105q155 0 243.5 62.5t88.5 172.5v65h-1q-36 -64 -118 -102.5t-186 -38.5q-157 0 -256.5 75.5t-99.5 194.5q0 120 99 196.5t255 76.5q105 0 187.5 -40.5t118.5 -107.5h1l4 128h51v-447q0 -133 -103.5 -209.5t-283.5 -76.5z
M391 31q134 0 219 61.5t85 157.5q0 97 -85.5 159t-218.5 62q-134 0 -218.5 -61.5t-84.5 -159.5q0 -96 85.5 -157.5t217.5 -61.5z" />
    <glyph glyph-name="h" unicode="h" horiz-adv-x="720" 
d="M40 0v733h56v-376h1q32 78 112 122t192 44q134 0 209 -65.5t75 -181.5v-276h-55v271q0 94 -62.5 147t-173.5 53q-141 0 -220 -71t-79 -197v-203h-55z" />
    <glyph glyph-name="i" unicode="i" horiz-adv-x="153" 
d="M76 606q-20 0 -32 12t-12 32t12 32t32 12t32.5 -12t12.5 -32t-12.5 -32t-32.5 -12zM49 0v503h55v-503h-55z" />
    <glyph glyph-name="j" unicode="j" horiz-adv-x="155" 
d="M78 606q-20 0 -32 12t-12 32t12 32t32 12t32.5 -12t12.5 -32t-12.5 -32t-32.5 -12zM-56 -230q-68 0 -113 24l11 50q46 -23 100 -23q50 0 79.5 32t29.5 85v565h55v-568q0 -76 -43.5 -120.5t-118.5 -44.5z" />
    <glyph glyph-name="k" unicode="k" horiz-adv-x="600" 
d="M40 0v733h55v-462h1l396 232h99l-325 -190l334 -313h-77l-301 285l-127 -73v-212h-55z" />
    <glyph glyph-name="l" unicode="l" horiz-adv-x="135" 
d="M40 0v733h55v-733h-55z" />
    <glyph glyph-name="m" unicode="m" horiz-adv-x="1180" 
d="M40 0v503h51l4 -126h1q32 69 102.5 107.5t165.5 38.5t159.5 -41t85.5 -114h1q33 75 108 115t171 40q120 0 188 -61t68 -163v-299h-55v290q0 85 -55 133t-153 48q-122 0 -192 -65.5t-70 -175.5v-230h-55v290q0 85 -55 133t-153 48q-124 0 -193 -64t-69 -177v-230h-55z" />
    <glyph glyph-name="n" unicode="n" horiz-adv-x="720" 
d="M401 523q134 0 209 -65.5t75 -181.5v-276h-55v271q0 94 -62.5 147t-173.5 53q-141 0 -220 -71t-79 -197v-203h-55v503h51l5 -146h1q32 78 112 122t192 44z" />
    <glyph glyph-name="o" unicode="o" horiz-adv-x="790" 
d="M395 -20q-165 0 -265 74t-100 197t100 197.5t265 74.5q166 0 265.5 -74.5t99.5 -197.5t-99.5 -197t-265.5 -74zM395 31q140 0 225 60t85 160t-85 160t-225 60t-225 -60t-85 -160t85 -160t225 -60z" />
    <glyph glyph-name="p" unicode="p" horiz-adv-x="799" 
d="M40 -210v713h50l4 -130h1q34 69 118 109.5t194 40.5q161 0 261.5 -75.5t100.5 -196.5q0 -120 -100.5 -195.5t-260.5 -75.5q-109 0 -193 40.5t-119 108.5h-1v-339h-55zM404 31q136 0 223 61.5t87 158.5t-86.5 158.5t-223.5 61.5t-223.5 -61.5t-86.5 -158.5t86.5 -158.5
t223.5 -61.5z" />
    <glyph glyph-name="q" unicode="q" horiz-adv-x="799" 
d="M704 -210v339h-1q-35 -68 -119 -108.5t-193 -40.5q-160 0 -260.5 75.5t-100.5 195.5q0 121 100.5 196.5t261.5 75.5q110 0 194 -40.5t118 -109.5h1l4 130h50v-713h-55zM395 31q137 0 223.5 61.5t86.5 158.5t-86.5 158.5t-223.5 61.5t-223.5 -61.5t-86.5 -158.5t87 -158.5
t223 -61.5z" />
    <glyph glyph-name="r" unicode="r" horiz-adv-x="527" 
d="M311 523q82 0 134.5 -44.5t61.5 -127.5l-50 -16q-5 66 -46 101t-105 35q-96 0 -153.5 -66.5t-57.5 -175.5v-229h-55v503h51l3 -119h1q28 66 85 102.5t131 36.5z" />
    <glyph glyph-name="s" unicode="s" horiz-adv-x="672" 
d="M373 -20q-132 0 -229 54t-119 137l48 24q18 -72 100.5 -118t197.5 -46q95 0 158.5 29.5t62.5 75.5q0 70 -174 90l-131 13q-103 11 -156 41.5t-53 88.5q1 70 68 112t173 42q92 0 169 -37.5t106 -95.5l-44 -29q-25 49 -89.5 80.5t-141.5 31.5q-80 0 -132.5 -28.5
t-53.5 -71.5q0 -35 38 -53.5t122 -28.5l134 -14q110 -13 165 -44t55 -93q1 -72 -76.5 -116t-197.5 -44z" />
    <glyph glyph-name="t" unicode="t" horiz-adv-x="618" 
d="M378 -20q-93 0 -142.5 49t-48.5 140v285h-187v49h186v161l56 14v-175h335v-49h-335v-283q-1 -68 34.5 -104.5t102.5 -36.5q55 0 100.5 32t61.5 83l48 -25q-22 -62 -81 -101t-130 -39z" />
    <glyph glyph-name="u" unicode="u" horiz-adv-x="720" 
d="M319 -20q-134 0 -209 65.5t-75 181.5v276h55v-271q0 -94 62.5 -147t173.5 -53q141 0 220 71t79 197v203h55v-503h-51l-5 146h-1q-32 -78 -112 -122t-192 -44z" />
    <glyph glyph-name="v" unicode="v" horiz-adv-x="687" 
d="M313 0l-313 503h64l279 -453h1l280 453h63l-314 -503h-60z" />
    <glyph glyph-name="w" unicode="w" horiz-adv-x="1181" 
d="M278 0l-276 503h61l252 -452h1l240 452h74l243 -453h1l247 453h60l-270 -503h-73l-245 454h-1l-241 -454h-73z" />
    <glyph glyph-name="x" unicode="x" horiz-adv-x="633" 
d="M0 0l276 259l-266 244h78l229 -211l228 211h78l-265 -244l275 -259h-79l-237 225l-238 -225h-79z" />
    <glyph glyph-name="y" unicode="y" horiz-adv-x="726" 
d="M329 -230q-116 0 -217.5 38t-148.5 94l34 41q48 -53 138 -87.5t194 -34.5q138 0 220 61.5t82 167.5v77h-1q-32 -77 -107 -122t-172 -45q-138 0 -224 80.5t-86 213.5v249h56v-245q0 -112 71.5 -179.5t185.5 -67.5q124 0 201 75.5t77 201.5v215h54v-453q0 -130 -97 -205
t-260 -75z" />
    <glyph glyph-name="z" unicode="z" horiz-adv-x="688" 
d="M20 0v65l566 386h-556v52h628v-66l-567 -386h577v-51h-648z" />
    <glyph glyph-name="braceleft" unicode="{" horiz-adv-x="307" 
d="M201 -190q-38 0 -61 25.5t-23 68.5v269q0 34 -17 54.5t-46 22.5l-14 1v52l14 1q30 2 46.5 22.5t16.5 55.5v266q0 43 23 69t62 26h94v-35h-94q-23 0 -36.5 -16t-13.5 -44v-270q0 -42 -20.5 -69t-54.5 -30v-2q34 -4 54.5 -31t20.5 -69v-273q0 -27 13.5 -43.5t36.5 -16.5h94
l-1 -34h-94z" />
    <glyph glyph-name="bar" unicode="|" horiz-adv-x="134" 
d="M50 -230v963h34v-963h-34z" />
    <glyph glyph-name="braceright" unicode="}" horiz-adv-x="306" 
d="M105 -190h-95v34h94q23 0 36.5 16.5t13.5 43.5v273q0 42 20.5 69t54.5 31v2q-34 3 -54.5 30t-20.5 69v270q0 28 -13.5 44t-36.5 16h-94v35h94q38 0 61.5 -26t23.5 -69v-266q0 -35 16.5 -55.5t46.5 -22.5l14 -1v-52l-14 -1q-29 -2 -46 -22.5t-17 -54.5v-269
q0 -43 -23 -68.5t-61 -25.5z" />
    <glyph glyph-name="asciitilde" unicode="~" horiz-adv-x="774" 
d="M718 326l26 -37q-59 -56 -169 -56q-68 0 -176 52q-48 24 -68 33t-58.5 20.5t-70.5 11.5q-38 0 -78 -16t-68 -41l-26 37q30 30 82 48t103 18q13 0 25 -1t25.5 -4t23 -5t24.5 -8t22 -8t24 -10t21 -10t23.5 -11.5t21.5 -10.5q102 -49 161 -49q80 0 132 47z" />
    <glyph glyph-name="exclamdown" unicode="&#xa1;" horiz-adv-x="269" 
d="M135 524q19 0 31.5 -12t12.5 -32q0 -19 -12.5 -31.5t-31.5 -12.5q-20 0 -32.5 12.5t-12.5 31.5t12.5 31.5t32.5 12.5zM155 342l9 -338v-194h-59v194l9 338h41z" />
    <glyph glyph-name="cent" unicode="&#xa2;" horiz-adv-x="779" 
d="M759 189q-35 -91 -138.5 -149t-233.5 -60v-110h-35v111q-141 8 -231.5 82.5t-90.5 187.5q0 117 90 192t232 80v117h35v-117q106 -4 187 -47t111 -112l-51 -20q-25 57 -92 91.5t-155 37.5v-444q113 0 202 50t117 129zM85 251q-1 -90 74.5 -151t192.5 -70v442
q-118 -5 -192.5 -66.5t-74.5 -154.5z" />
    <glyph glyph-name="sterling" unicode="&#xa3;" horiz-adv-x="744" 
d="M30 0v63q53 17 81.5 76.5t28.5 195.5h-100v34h100v157q0 89 76 145.5t199 56.5q125 0 207 -59.5t90 -151.5l-54 -9q-5 73 -72.5 119.5t-172.5 46.5q-98 0 -157 -41t-59 -107v-157h460v-34h-460q-2 -129 -29 -193.5t-75 -87.5v-1h620v-53h-683z" />
    <glyph glyph-name="currency" unicode="&#xa4;" horiz-adv-x="690" 
d="M56 -50l-26 23l111 111q-55 69 -55 166t55 166l-109 110l24 24l108 -109q72 69 182 69t182 -69l108 109l24 -24l-109 -110q55 -71 55 -166t-55 -166l109 -110l-24 -24l-108 109q-72 -69 -182 -69t-182 69zM346 46q88 0 146 58t58 146t-58 146t-146 58q-90 0 -147.5 -57.5
t-57.5 -146.5t58 -146.5t147 -57.5z" />
    <glyph glyph-name="yen" unicode="&#xa5;" horiz-adv-x="790" 
d="M365 0l1 152h-349v34h349l-1 55h-348v35h338l-357 427h75l322 -389l321 389h74l-356 -427h339v-35h-349l1 -55h348v-34h-348l-1 -152h-59z" />
    <glyph glyph-name="section" unicode="&#xa7;" horiz-adv-x="690" 
d="M378 -20q-132 0 -224 54t-114 137l48 24q18 -71 99 -117.5t193 -46.5q92 0 154 29t62 77q0 31 -31 51.5t-83 27.5l-212 26q-93 11 -145.5 42.5t-51.5 90.5q0 71 81 112q-47 29 -47 85q0 70 63 112t161 42q85 0 156.5 -37.5t99.5 -94.5l-44 -30q-24 48 -82.5 80t-129.5 32
q-72 0 -120.5 -29.5t-48.5 -71.5q-1 -31 24.5 -48t69.5 -22l177 -24q211 -27 211 -143q0 -63 -61 -101q67 -33 67 -97q0 -74 -77.5 -117t-194.5 -43zM521 261q69 26 69 74q0 75 -158 96l-228 30q-76 -26 -77 -78q0 -72 142 -91z" />
    <glyph glyph-name="dieresis" unicode="&#xa8;" horiz-adv-x="524" 
d="M105 607q-19 0 -31.5 12.5t-12.5 31.5t12.5 31t31.5 12t31.5 -12t12.5 -31t-12.5 -31.5t-31.5 -12.5zM419 607q-19 0 -31 12t-12 32q0 19 12 31t31 12t31.5 -12t12.5 -31t-12.5 -31.5t-31.5 -12.5z" />
    <glyph glyph-name="copyright" unicode="&#xa9;" horiz-adv-x="1053" 
d="M526 -22q-211 0 -348.5 107t-137.5 271q0 162 138 270t348 108q212 0 349.5 -107t137.5 -271q0 -165 -137.5 -271.5t-349.5 -106.5zM528 12q196 0 323.5 97t127.5 246q0 148 -128.5 246.5t-323.5 98.5q-197 0 -325 -98.5t-128 -246.5q0 -149 128.5 -246t325.5 -97z
M523 83q-153 0 -252.5 76t-99.5 195q0 120 95 196t245 76q113 0 199 -45t117 -120l-51 -19q-26 61 -96.5 97.5t-164.5 36.5q-126 0 -207 -62t-82 -160q0 -97 86 -159.5t216 -62.5q112 0 201.5 50t118.5 129l52 -19q-36 -92 -141 -150.5t-236 -58.5z" />
    <glyph glyph-name="guillemotleft" unicode="&#xab;" horiz-adv-x="621" 
d="M341 -10l-311 261l310 262l23 -27l-280 -235l279 -235zM569 -10l-311 261l310 262l23 -27l-279 -235l278 -235z" />
    <glyph glyph-name="logicalnot" unicode="&#xac;" horiz-adv-x="835" 
d="M728 170v227h-672v50h723v-277h-51z" />
    <glyph glyph-name="registered" unicode="&#xae;" horiz-adv-x="1053" 
d="M526 -22q-216 0 -351 104.5t-135 273.5q0 168 135.5 273t350.5 105q217 0 352 -105t135 -273q0 -169 -135 -273.5t-352 -104.5zM528 12q200 0 325.5 95.5t125.5 247.5q0 154 -125.5 249.5t-325.5 95.5q-203 0 -328.5 -95.5t-125.5 -249.5q0 -152 126 -247.5t328 -95.5z
M285 109v502h357q80 0 128 -39t48 -104q0 -59 -40.5 -96.5t-109.5 -43.5l131 -219h-61l-124 217h-274v-217h-55zM340 375h296q58 0 92.5 25.5t34.5 67.5q0 43 -34.5 68.5t-92.5 25.5h-296v-187z" />
    <glyph glyph-name="macron" unicode="&#xaf;" horiz-adv-x="545" 
d="M40 594v35h465v-35h-465z" />
    <glyph glyph-name="degree" unicode="&#xb0;" horiz-adv-x="460" 
d="M230 336q-87 0 -144 56.5t-56 142.5q0 87 57 144t143 57q87 0 143.5 -56.5t56.5 -144.5q0 -87 -56.5 -143t-143.5 -56zM231 370q71 0 118 47t47 118q0 73 -47 120t-118 47q-73 0 -120 -47t-47 -120q0 -71 47.5 -118t119.5 -47z" />
    <glyph glyph-name="plusminus" unicode="&#xb1;" horiz-adv-x="770" 
d="M356 272v137h-300v53h300v126h56v-126h302v-53h-301l-1 -137h-56zM56 150v34h658v-34h-658z" />
    <glyph glyph-name="acute" unicode="&#xb4;" horiz-adv-x="344" 
d="M79 594l-18 29l203 136l20 -29z" />
    <glyph glyph-name="paragraph" unicode="&#xb6;" horiz-adv-x="755" 
d="M251 -226v558q-100 0 -160.5 51t-60.5 134t61 134.5t160 51.5h474v-47h-152v-882h-52v882h-218v-882h-52z" />
    <glyph glyph-name="periodcentered" unicode="&#xb7;" horiz-adv-x="160" 
d="M80 243q-20 0 -32 12.5t-12 31.5t12.5 31t31.5 12t31.5 -12t12.5 -31t-12 -31.5t-32 -12.5z" />
    <glyph glyph-name="cedilla" unicode="&#xb8;" horiz-adv-x="307" 
d="M156 -208q-30 0 -57 16t-38 41l28 19q8 -18 26 -30t40 -12q57 0 57 44q1 23 -17 35.5t-48 12.5h-35l10 84h35l-7 -51q44 -2 70.5 -22.5t26.5 -57.5q0 -36 -25.5 -57.5t-65.5 -21.5z" />
    <glyph glyph-name="guillemotright" unicode="&#xbb;" horiz-adv-x="622" 
d="M53 -10l-21 26l278 235l-280 235l23 27l310 -262zM281 -10l-21 26l278 235l-279 235l23 27l310 -262z" />
    <glyph glyph-name="questiondown" unicode="&#xbf;" horiz-adv-x="677" 
d="M353 524q20 0 32 -12t12 -32q0 -19 -12 -31.5t-32 -12.5q-19 0 -31.5 12.5t-12.5 31.5t12.5 31.5t31.5 12.5zM381 342q0 -74 -33.5 -117t-109.5 -79l-56 -25q-55 -26 -84 -54.5t-29 -69.5q0 -67 73.5 -113t181.5 -46t182 47t97 126l50 -28q-28 -88 -117.5 -143
t-215.5 -55q-134 0 -222 60.5t-88 151.5q0 56 35.5 94t107.5 72l55 25q66 31 92 63t26 91h55z" />
    <glyph glyph-name="Agrave" unicode="&#xc0;" 
d="M422 777l-174 116l20 28l173 -115zM5 0l378 703h69l376 -703h-62l-97 177h-505l-96 -177h-63zM192 230h450l-224 422h-2z" />
    <glyph glyph-name="Aacute" unicode="&#xc1;" 
d="M413 777l-19 29l174 115l19 -28zM5 0l378 703h69l376 -703h-62l-97 177h-505l-96 -177h-63zM192 230h450l-224 422h-2z" />
    <glyph glyph-name="Acircumflex" unicode="&#xc2;" 
d="M208 783l-15 30l199 101h51l201 -101l-17 -30l-210 106zM5 0l378 703h69l376 -703h-62l-97 177h-505l-96 -177h-63zM192 230h450l-224 422h-2z" />
    <glyph glyph-name="Atilde" unicode="&#xc3;" 
d="M531 780q-26 0 -50 9.5t-37.5 19.5t-34.5 28q-20 17 -32.5 26.5t-33.5 18t-43 8.5q-44 0 -71.5 -28.5t-27.5 -71.5h-33q0 58 38 95.5t96 37.5q28 0 54 -10.5t38.5 -20.5t35.5 -30q55 -49 102 -49q45 0 73.5 28.5t28.5 72.5h33q0 -58 -39 -96t-97 -38zM5 0l378 703h69
l376 -703h-62l-97 177h-505l-96 -177h-63zM192 230h450l-224 422h-2z" />
    <glyph glyph-name="Adieresis" unicode="&#xc4;" 
d="M262 809q-19 0 -31.5 12t-12.5 31t12.5 31t31.5 12t31.5 -12t12.5 -31t-12.5 -31t-31.5 -12zM573 809q-19 0 -31.5 12t-12.5 31t12.5 31t31.5 12t31.5 -12t12.5 -31t-12.5 -31t-31.5 -12zM5 0l378 703h69l376 -703h-62l-97 177h-505l-96 -177h-63zM192 230h450l-224 422
h-2z" />
    <glyph glyph-name="Aring" unicode="&#xc5;" 
d="M418 786q-39 0 -64.5 25t-25.5 64t25 64t65 25q38 0 63 -25t26 -64q0 -39 -25 -64t-64 -25zM417 818q25 0 40.5 16t15.5 41t-15.5 41t-40.5 16q-24 0 -40.5 -16t-16.5 -41t16.5 -41t40.5 -16zM5 0l378 703h69l376 -703h-62l-97 177h-505l-96 -177h-63zM192 230h450
l-224 422h-2z" />
    <glyph glyph-name="AE" unicode="&#xc6;" horiz-adv-x="1048" 
d="M-1 0l480 703h539v-53h-451v-268h411v-51h-411v-278h461v-53h-519v151h-337l-104 -151h-69zM204 202h305v444h-1z" />
    <glyph glyph-name="Ccedilla" unicode="&#xc7;" horiz-adv-x="981" 
d="M945 262q-40 -130 -156 -207t-274 -80l-3 -24q44 -2 70.5 -22.5t26.5 -57.5q0 -36 -25.5 -57.5t-65.5 -21.5q-30 0 -57 16t-38 41l28 19q8 -18 26 -30t40 -12q57 0 57 44q1 23 -17 35.5t-48 12.5h-35l7 57q-203 6 -322 107t-119 269q0 173 116.5 275t314.5 102
q140 0 248 -66t150 -178l-53 -22q-34 97 -127.5 154.5t-217.5 57.5q-171 0 -271.5 -87.5t-100.5 -235.5t109.5 -235.5t294.5 -87.5q142 0 247 68.5t140 184.5z" />
    <glyph glyph-name="Egrave" unicode="&#xc8;" horiz-adv-x="756" 
d="M404 777l-174 116l20 28l173 -115zM50 0v703h676v-54h-618v-258h578v-53h-578v-285h628v-53h-686z" />
    <glyph glyph-name="Eacute" unicode="&#xc9;" horiz-adv-x="756" 
d="M395 777l-19 29l174 115l19 -28zM50 0v703h676v-54h-618v-258h578v-53h-578v-285h628v-53h-686z" />
    <glyph glyph-name="Ecircumflex" unicode="&#xca;" horiz-adv-x="756" 
d="M190 783l-15 30l199 101h51l201 -101l-17 -30l-210 106zM50 0v703h676v-54h-618v-258h578v-53h-578v-285h628v-53h-686z" />
    <glyph glyph-name="Edieresis" unicode="&#xcb;" horiz-adv-x="756" 
d="M244 809q-19 0 -31.5 12t-12.5 31t12.5 31t31.5 12t31.5 -12t12.5 -31t-12.5 -31t-31.5 -12zM555 809q-19 0 -31.5 12t-12.5 31t12.5 31t31.5 12t31.5 -12t12.5 -31t-12.5 -31t-31.5 -12zM50 0v703h676v-54h-618v-258h578v-53h-578v-285h628v-53h-686z" />
    <glyph glyph-name="Igrave" unicode="&#xcc;" horiz-adv-x="159" 
d="M75 780l-70 124l28 17l70 -124zM50 0v703h59v-703h-59z" />
    <glyph glyph-name="Iacute" unicode="&#xcd;" horiz-adv-x="159" 
d="M84 780l-28 17l70 124l28 -17zM50 0v703h59v-703h-59z" />
    <glyph glyph-name="Icircumflex" unicode="&#xce;" horiz-adv-x="159" 
d="M10 783l-29 18l73 113h50l74 -112l-28 -19l-71 107zM50 0v703h59v-703h-59z" />
    <glyph glyph-name="Idieresis" unicode="&#xcf;" horiz-adv-x="159" 
d="M17 809q-19 0 -31.5 12t-12.5 31t12.5 31t31.5 12q20 0 32.5 -12t12.5 -31t-12.5 -31t-32.5 -12zM145 809q-19 0 -31.5 12t-12.5 31t12.5 31t31.5 12t31.5 -12t12.5 -31t-12.5 -31t-31.5 -12zM50 0v703h59v-703h-59z" />
    <glyph glyph-name="Ntilde" unicode="&#xd1;" horiz-adv-x="836" 
d="M538 780q-26 0 -50 9.5t-37.5 19.5t-34.5 28q-20 17 -32.5 26.5t-33.5 18t-43 8.5q-44 0 -71.5 -28.5t-27.5 -71.5h-33q0 58 38 95.5t96 37.5q28 0 54 -10.5t38.5 -20.5t35.5 -30q55 -49 102 -49q45 0 73.5 28.5t28.5 72.5h33q0 -58 -39 -96t-97 -38zM50 0v703h80
l596 -644h1v644h59v-703h-80l-596 643h-1v-643h-59z" />
    <glyph glyph-name="Ograve" unicode="&#xd2;" horiz-adv-x="1030" 
d="M520 777l-174 116l20 28l173 -115zM515 -25q-212 0 -343.5 104t-131.5 272t131.5 272.5t343.5 104.5q213 0 344 -104.5t131 -272.5t-131 -272t-344 -104zM515 28q186 0 301 89.5t115 233.5t-115 233.5t-301 89.5t-301 -89.5t-115 -233.5t115 -233.5t301 -89.5z" />
    <glyph glyph-name="Oacute" unicode="&#xd3;" horiz-adv-x="1030" 
d="M511 777l-19 29l174 115l19 -28zM515 -25q-212 0 -343.5 104t-131.5 272t131.5 272.5t343.5 104.5q213 0 344 -104.5t131 -272.5t-131 -272t-344 -104zM515 28q186 0 301 89.5t115 233.5t-115 233.5t-301 89.5t-301 -89.5t-115 -233.5t115 -233.5t301 -89.5z" />
    <glyph glyph-name="Ocircumflex" unicode="&#xd4;" horiz-adv-x="1030" 
d="M305 783l-15 30l199 101h51l201 -101l-17 -30l-210 106zM515 -25q-212 0 -343.5 104t-131.5 272t131.5 272.5t343.5 104.5q213 0 344 -104.5t131 -272.5t-131 -272t-344 -104zM515 28q186 0 301 89.5t115 233.5t-115 233.5t-301 89.5t-301 -89.5t-115 -233.5t115 -233.5
t301 -89.5z" />
    <glyph glyph-name="Otilde" unicode="&#xd5;" horiz-adv-x="1030" 
d="M629 780q-26 0 -50 9.5t-37.5 19.5t-34.5 28q-20 17 -32.5 26.5t-33.5 18t-43 8.5q-44 0 -71.5 -28.5t-27.5 -71.5h-33q0 58 38 95.5t96 37.5q28 0 54 -10.5t38.5 -20.5t35.5 -30q55 -49 102 -49q45 0 73.5 28.5t28.5 72.5h33q0 -58 -39 -96t-97 -38zM515 -25
q-212 0 -343.5 104t-131.5 272t131.5 272.5t343.5 104.5q213 0 344 -104.5t131 -272.5t-131 -272t-344 -104zM515 28q186 0 301 89.5t115 233.5t-115 233.5t-301 89.5t-301 -89.5t-115 -233.5t115 -233.5t301 -89.5z" />
    <glyph glyph-name="Odieresis" unicode="&#xd6;" horiz-adv-x="1030" 
d="M360 809q-19 0 -31.5 12t-12.5 31t12.5 31t31.5 12t31.5 -12t12.5 -31t-12.5 -31t-31.5 -12zM671 809q-19 0 -31.5 12t-12.5 31t12.5 31t31.5 12t31.5 -12t12.5 -31t-12.5 -31t-31.5 -12zM515 -25q-212 0 -343.5 104t-131.5 272t131.5 272.5t343.5 104.5
q213 0 344 -104.5t131 -272.5t-131 -272t-344 -104zM515 28q186 0 301 89.5t115 233.5t-115 233.5t-301 89.5t-301 -89.5t-115 -233.5t115 -233.5t301 -89.5z" />
    <glyph glyph-name="multiply" unicode="&#xd7;" horiz-adv-x="584" 
d="M87 214l-31 42l184 106l-184 106l31 42l205 -118l204 118l33 -41l-184 -107l183 -106l-32 -42l-204 118z" />
    <glyph glyph-name="Oslash" unicode="&#xd8;" horiz-adv-x="1030" 
d="M721 697q126 -42 197.5 -133t71.5 -213q0 -168 -131 -272t-344 -104q-86 0 -165 19l-68 -128l-30 16l64 122q-129 41 -202.5 132.5t-73.5 214.5q0 168 131.5 272.5t343.5 104.5q94 0 172 -21l59 112l31 -16zM99 351q0 -106 64.5 -184.5t178.5 -113.5l319 604
q-70 17 -146 17q-186 0 -301 -89.5t-115 -233.5zM515 28q186 0 301 89.5t115 233.5q0 105 -63 182.5t-173 113.5l-319 -604q63 -15 139 -15z" />
    <glyph glyph-name="Ugrave" unicode="&#xd9;" 
d="M421 777l-174 116l20 28l173 -115zM417 -25q-176 0 -276.5 87t-100.5 244v397h59v-397q0 -133 84.5 -204.5t233.5 -71.5t233 71.5t84 204.5v397h59v-397q0 -157 -100.5 -244t-275.5 -87z" />
    <glyph glyph-name="Uacute" unicode="&#xda;" 
d="M412 777l-19 29l174 115l19 -28zM417 -25q-176 0 -276.5 87t-100.5 244v397h59v-397q0 -133 84.5 -204.5t233.5 -71.5t233 71.5t84 204.5v397h59v-397q0 -157 -100.5 -244t-275.5 -87z" />
    <glyph glyph-name="Ucircumflex" unicode="&#xdb;" 
d="M207 783l-15 30l199 101h51l201 -101l-17 -30l-210 106zM417 -25q-176 0 -276.5 87t-100.5 244v397h59v-397q0 -133 84.5 -204.5t233.5 -71.5t233 71.5t84 204.5v397h59v-397q0 -157 -100.5 -244t-275.5 -87z" />
    <glyph glyph-name="Udieresis" unicode="&#xdc;" 
d="M261 809q-19 0 -31.5 12t-12.5 31t12.5 31t31.5 12t31.5 -12t12.5 -31t-12.5 -31t-31.5 -12zM572 809q-19 0 -31.5 12t-12.5 31t12.5 31t31.5 12t31.5 -12t12.5 -31t-12.5 -31t-31.5 -12zM417 -25q-176 0 -276.5 87t-100.5 244v397h59v-397q0 -133 84.5 -204.5
t233.5 -71.5t233 71.5t84 204.5v397h59v-397q0 -157 -100.5 -244t-275.5 -87z" />
    <glyph glyph-name="Yacute" unicode="&#xdd;" horiz-adv-x="754" 
d="M373 777l-19 29l174 115l19 -28zM348 0v275l-350 428h77l302 -373h1l301 373h75l-347 -428v-275h-59z" />
    <glyph glyph-name="germandbls" unicode="&#xdf;" horiz-adv-x="719" 
d="M506 277q101 -18 147 -52t46 -91q0 -69 -63 -108.5t-168 -39.5q-120 0 -200.5 47t-94.5 125l53 24q10 -66 75.5 -106t165.5 -40q80 0 129 25.5t49 68.5q0 37 -34 60t-110 36l-118 22q-86 16 -124.5 43t-38.5 73q0 66 86 102t269 44q9 21 9 44q0 64 -58 102t-156 38
q-123 0 -197 -54.5t-74 -143.5v-496h-59v501q0 111 90.5 178.5t241.5 67.5q124 0 197 -53t73 -143q0 -46 -22 -87q-344 -6 -344 -98q0 -47 114 -67z" />
    <glyph glyph-name="agrave" unicode="&#xe0;" horiz-adv-x="846" 
d="M393 594l-205 136l20 29l203 -136zM285 -20q-265 0 -265 143q0 140 297 162l276 22q35 3 35 34q0 55 -68.5 92.5t-173.5 37.5q-101 0 -190 -34t-123 -86l-36 35q39 59 138 98t210 39q127 0 212 -51t85 -136v-237q0 -30 16.5 -48.5t43.5 -18.5q48 0 72 37l32 -36
q-15 -24 -45.5 -38.5t-65.5 -14.5q-47 0 -76.5 30.5t-31.5 79.5v24h-1q-35 -59 -130.5 -96.5t-210.5 -37.5zM287 29q146 0 243 55t97 137v40l-306 -24q-246 -18 -246 -111q0 -97 212 -97z" />
    <glyph glyph-name="aacute" unicode="&#xe1;" horiz-adv-x="846" 
d="M386 594l-18 29l203 136l20 -29zM285 -20q-265 0 -265 143q0 140 297 162l276 22q35 3 35 34q0 55 -68.5 92.5t-173.5 37.5q-101 0 -190 -34t-123 -86l-36 35q39 59 138 98t210 39q127 0 212 -51t85 -136v-237q0 -30 16.5 -48.5t43.5 -18.5q48 0 72 37l32 -36
q-15 -24 -45.5 -38.5t-65.5 -14.5q-47 0 -76.5 30.5t-31.5 79.5v24h-1q-35 -59 -130.5 -96.5t-210.5 -37.5zM287 29q146 0 243 55t97 137v40l-306 -24q-246 -18 -246 -111q0 -97 212 -97z" />
    <glyph glyph-name="acircumflex" unicode="&#xe2;" horiz-adv-x="846" 
d="M138 593l-16 30l240 121h51l240 -121l-16 -30l-250 126zM285 -20q-265 0 -265 143q0 140 297 162l276 22q35 3 35 34q0 55 -68.5 92.5t-173.5 37.5q-101 0 -190 -34t-123 -86l-36 35q39 59 138 98t210 39q127 0 212 -51t85 -136v-237q0 -30 16.5 -48.5t43.5 -18.5
q48 0 72 37l32 -36q-15 -24 -45.5 -38.5t-65.5 -14.5q-47 0 -76.5 30.5t-31.5 79.5v24h-1q-35 -59 -130.5 -96.5t-210.5 -37.5zM287 29q146 0 243 55t97 137v40l-306 -24q-246 -18 -246 -111q0 -97 212 -97z" />
    <glyph glyph-name="atilde" unicode="&#xe3;" horiz-adv-x="846" 
d="M501 590q-26 0 -49.5 9t-37.5 19.5t-35 28.5q-22 19 -32.5 26.5t-32.5 17t-44 9.5q-44 0 -71.5 -28.5t-27.5 -71.5h-33q0 58 38 95.5t96 37.5q27 0 52.5 -10.5t38.5 -20t36 -30.5q19 -16 30.5 -24.5t31.5 -16.5t41 -8q45 0 73.5 28.5t28.5 72.5h33q0 -58 -39 -96t-97 -38
zM285 -20q-265 0 -265 143q0 140 297 162l276 22q35 3 35 34q0 55 -68.5 92.5t-173.5 37.5q-101 0 -190 -34t-123 -86l-36 35q39 59 138 98t210 39q127 0 212 -51t85 -136v-237q0 -30 16.5 -48.5t43.5 -18.5q48 0 72 37l32 -36q-15 -24 -45.5 -38.5t-65.5 -14.5
q-47 0 -76.5 30.5t-31.5 79.5v24h-1q-35 -59 -130.5 -96.5t-210.5 -37.5zM287 29q146 0 243 55t97 137v40l-306 -24q-246 -18 -246 -111q0 -97 212 -97z" />
    <glyph glyph-name="adieresis" unicode="&#xe4;" horiz-adv-x="846" 
d="M229 607q-19 0 -31.5 12.5t-12.5 31.5t12.5 31t31.5 12t31.5 -12t12.5 -31t-12.5 -31.5t-31.5 -12.5zM543 607q-19 0 -31 12t-12 32q0 19 12 31t31 12t31.5 -12t12.5 -31t-12.5 -31.5t-31.5 -12.5zM285 -20q-265 0 -265 143q0 140 297 162l276 22q35 3 35 34
q0 55 -68.5 92.5t-173.5 37.5q-101 0 -190 -34t-123 -86l-36 35q39 59 138 98t210 39q127 0 212 -51t85 -136v-237q0 -30 16.5 -48.5t43.5 -18.5q48 0 72 37l32 -36q-15 -24 -45.5 -38.5t-65.5 -14.5q-47 0 -76.5 30.5t-31.5 79.5v24h-1q-35 -59 -130.5 -96.5t-210.5 -37.5z
M287 29q146 0 243 55t97 137v40l-306 -24q-246 -18 -246 -111q0 -97 212 -97z" />
    <glyph glyph-name="aring" unicode="&#xe5;" horiz-adv-x="846" 
d="M388 596q-39 0 -64.5 25t-25.5 64t25 64t65 25q38 0 63 -25t26 -64q0 -39 -25 -64t-64 -25zM387 628q25 0 40.5 16t15.5 41t-15.5 41t-40.5 16q-24 0 -40.5 -16t-16.5 -41t16.5 -41t40.5 -16zM285 -20q-265 0 -265 143q0 140 297 162l276 22q35 3 35 34q0 55 -68.5 92.5
t-173.5 37.5q-101 0 -190 -34t-123 -86l-36 35q39 59 138 98t210 39q127 0 212 -51t85 -136v-237q0 -30 16.5 -48.5t43.5 -18.5q48 0 72 37l32 -36q-15 -24 -45.5 -38.5t-65.5 -14.5q-47 0 -76.5 30.5t-31.5 79.5v24h-1q-35 -59 -130.5 -96.5t-210.5 -37.5zM287 29
q146 0 243 55t97 137v40l-306 -24q-246 -18 -246 -111q0 -97 212 -97z" />
    <glyph glyph-name="ae" unicode="&#xe6;" horiz-adv-x="1339" 
d="M309 -20q-127 0 -208 40.5t-81 105.5q0 59 71 101t192 52l302 24q16 2 26 12t10 27q0 56 -66 92.5t-167 36.5q-98 0 -184.5 -33.5t-119.5 -85.5l-36 35q39 59 137.5 97.5t205.5 38.5q101 0 175 -37.5t97 -99.5q31 59 109.5 98t172.5 39q141 0 231.5 -74.5t90.5 -188.5
q0 -21 -1 -33h-583q13 -85 97.5 -139.5t202.5 -54.5q89 0 172.5 32t124.5 81l34 -40q-47 -55 -140 -90.5t-192 -35.5q-112 0 -199.5 46t-122.5 121q-21 -73 -119 -120t-232 -47zM682 277h528q-2 85 -77.5 139.5t-188.5 54.5q-110 0 -184 -54.5t-78 -139.5zM309 31
q137 0 225.5 50.5t88.5 128.5v47l-344 -28q-88 -7 -146 -36t-58 -66q0 -41 66 -68.5t168 -27.5z" />
    <glyph glyph-name="ccedilla" unicode="&#xe7;" horiz-adv-x="779" 
d="M759 189q-34 -88 -133 -146t-225 -63l-4 -29q44 -2 70.5 -22.5t26.5 -57.5q0 -36 -25.5 -57.5t-65.5 -21.5q-30 0 -57 16t-38 41l28 19q8 -18 26 -30t40 -12q57 0 57 44q1 23 -17 35.5t-48 12.5h-35l7 62q-147 4 -241.5 79.5t-94.5 191.5q0 120 95 196t244 76
q113 0 199 -45t117 -120l-51 -19q-26 61 -96.5 97.5t-163.5 36.5q-127 0 -208 -62t-81 -160q-1 -97 85.5 -159.5t216.5 -62.5q113 0 202 50t117 129z" />
    <glyph glyph-name="egrave" unicode="&#xe8;" horiz-adv-x="802" 
d="M388 594l-205 136l20 29l203 -136zM412 -20q-166 0 -274 77.5t-108 196.5q0 117 99 193t253 76q150 0 247 -76t97 -193q0 -18 -1 -25h-633q7 -85 99 -140.5t226 -55.5q101 0 192 32t134 81l34 -40q-50 -55 -151.5 -90.5t-213.5 -35.5zM91 280h576q-7 84 -88 136.5
t-199 52.5q-119 0 -200.5 -53.5t-88.5 -135.5z" />
    <glyph glyph-name="eacute" unicode="&#xe9;" horiz-adv-x="802" 
d="M381 594l-18 29l203 136l20 -29zM412 -20q-166 0 -274 77.5t-108 196.5q0 117 99 193t253 76q150 0 247 -76t97 -193q0 -18 -1 -25h-633q7 -85 99 -140.5t226 -55.5q101 0 192 32t134 81l34 -40q-50 -55 -151.5 -90.5t-213.5 -35.5zM91 280h576q-7 84 -88 136.5
t-199 52.5q-119 0 -200.5 -53.5t-88.5 -135.5z" />
    <glyph glyph-name="ecircumflex" unicode="&#xea;" horiz-adv-x="802" 
d="M133 593l-16 30l240 121h51l240 -121l-16 -30l-250 126zM412 -20q-166 0 -274 77.5t-108 196.5q0 117 99 193t253 76q150 0 247 -76t97 -193q0 -18 -1 -25h-633q7 -85 99 -140.5t226 -55.5q101 0 192 32t134 81l34 -40q-50 -55 -151.5 -90.5t-213.5 -35.5zM91 280h576
q-7 84 -88 136.5t-199 52.5q-119 0 -200.5 -53.5t-88.5 -135.5z" />
    <glyph glyph-name="edieresis" unicode="&#xeb;" horiz-adv-x="802" 
d="M224 607q-20 0 -32 12.5t-12 31.5t12.5 31t31.5 12t31.5 -12t12.5 -31t-12 -31.5t-32 -12.5zM538 607q-19 0 -31 12t-12 32q0 19 12 31t31 12t31.5 -12t12.5 -31t-12 -31.5t-32 -12.5zM412 -20q-166 0 -274 77.5t-108 196.5q0 117 99 193t253 76q150 0 247 -76t97 -193
q0 -18 -1 -25h-633q7 -85 99 -140.5t226 -55.5q101 0 192 32t134 81l34 -40q-50 -55 -151.5 -90.5t-213.5 -35.5zM91 280h576q-7 84 -88 136.5t-199 52.5q-119 0 -200.5 -53.5t-88.5 -135.5z" />
    <glyph glyph-name="igrave" unicode="&#xec;" horiz-adv-x="135" 
d="M62 600l-85 144l29 17l85 -143zM40 0v503h55v-503h-55z" />
    <glyph glyph-name="iacute" unicode="&#xed;" horiz-adv-x="135" 
d="M73 600l-29 18l85 143l29 -17zM40 0v503h55v-503h-55z" />
    <glyph glyph-name="icircumflex" unicode="&#xee;" horiz-adv-x="135" 
d="M-14 593l-30 18l86 133h51l86 -132l-29 -19l-83 127zM40 0v503h55v-503h-55z" />
    <glyph glyph-name="idieresis" unicode="&#xef;" horiz-adv-x="135" 
d="M6 606q-20 0 -32 12t-12 32t12 32t32 12t32 -12t12 -32t-12 -32t-32 -12zM128 606q-20 0 -32 12t-12 32t12 32t32 12t32.5 -12t12.5 -32t-12.5 -32t-32.5 -12zM40 0v503h55v-503h-55z" />
    <glyph glyph-name="ntilde" unicode="&#xf1;" horiz-adv-x="720" 
d="M484 590q-26 0 -49.5 9t-37.5 19.5t-35 28.5q-22 19 -32.5 26.5t-32.5 17t-44 9.5q-44 0 -71.5 -28.5t-27.5 -71.5h-33q0 58 38 95.5t96 37.5q27 0 52.5 -10.5t38.5 -20t36 -30.5q19 -16 30.5 -24.5t31.5 -16.5t41 -8q45 0 73.5 28.5t28.5 72.5h33q0 -58 -39 -96t-97 -38
zM401 523q134 0 209 -65.5t75 -181.5v-276h-55v271q0 94 -62.5 147t-173.5 53q-141 0 -220 -71t-79 -197v-203h-55v503h51l5 -146h1q32 78 112 122t192 44z" />
    <glyph glyph-name="ograve" unicode="&#xf2;" horiz-adv-x="790" 
d="M401 594l-205 136l20 29l203 -136zM395 -20q-165 0 -265 74t-100 197t100 197.5t265 74.5q166 0 265.5 -74.5t99.5 -197.5t-99.5 -197t-265.5 -74zM395 31q140 0 225 60t85 160t-85 160t-225 60t-225 -60t-85 -160t85 -160t225 -60z" />
    <glyph glyph-name="oacute" unicode="&#xf3;" horiz-adv-x="790" 
d="M394 594l-18 29l203 136l20 -29zM395 -20q-165 0 -265 74t-100 197t100 197.5t265 74.5q166 0 265.5 -74.5t99.5 -197.5t-99.5 -197t-265.5 -74zM395 31q140 0 225 60t85 160t-85 160t-225 60t-225 -60t-85 -160t85 -160t225 -60z" />
    <glyph glyph-name="ocircumflex" unicode="&#xf4;" horiz-adv-x="790" 
d="M146 593l-16 30l240 121h51l240 -121l-16 -30l-250 126zM395 -20q-165 0 -265 74t-100 197t100 197.5t265 74.5q166 0 265.5 -74.5t99.5 -197.5t-99.5 -197t-265.5 -74zM395 31q140 0 225 60t85 160t-85 160t-225 60t-225 -60t-85 -160t85 -160t225 -60z" />
    <glyph glyph-name="otilde" unicode="&#xf5;" horiz-adv-x="790" 
d="M509 590q-26 0 -49.5 9t-37.5 19.5t-35 28.5q-22 19 -32.5 26.5t-32.5 17t-44 9.5q-44 0 -71.5 -28.5t-27.5 -71.5h-33q0 58 38 95.5t96 37.5q27 0 52.5 -10.5t38.5 -20t36 -30.5q19 -16 30.5 -24.5t31.5 -16.5t41 -8q45 0 73.5 28.5t28.5 72.5h33q0 -58 -39 -96t-97 -38
zM395 -20q-165 0 -265 74t-100 197t100 197.5t265 74.5q166 0 265.5 -74.5t99.5 -197.5t-99.5 -197t-265.5 -74zM395 31q140 0 225 60t85 160t-85 160t-225 60t-225 -60t-85 -160t85 -160t225 -60z" />
    <glyph glyph-name="odieresis" unicode="&#xf6;" horiz-adv-x="790" 
d="M238 607q-20 0 -32 12.5t-12 31.5t12.5 31t31.5 12t31.5 -12t12.5 -31t-12 -31.5t-32 -12.5zM552 607q-19 0 -31 12t-12 32q0 19 12 31t31 12t31.5 -12t12.5 -31t-12 -31.5t-32 -12.5zM395 -20q-165 0 -265 74t-100 197t100 197.5t265 74.5q166 0 265.5 -74.5
t99.5 -197.5t-99.5 -197t-265.5 -74zM395 31q140 0 225 60t85 160t-85 160t-225 60t-225 -60t-85 -160t85 -160t225 -60z" />
    <glyph glyph-name="divide" unicode="&#xf7;" horiz-adv-x="761" 
d="M379 515q-20 0 -32 12.5t-12 32.5q0 19 12.5 31t31.5 12q20 0 32.5 -12t12.5 -31q0 -20 -12.5 -32.5t-32.5 -12.5zM56 345v34h650v-34h-650zM379 122q-19 0 -31.5 12t-12.5 32q0 19 12.5 31t31.5 12q20 0 32.5 -12t12.5 -31t-12.5 -31.5t-32.5 -12.5z" />
    <glyph glyph-name="oslash" unicode="&#xf8;" horiz-adv-x="790" 
d="M554 501q97 -30 151.5 -95.5t54.5 -154.5q0 -123 -99.5 -197t-265.5 -74q-61 0 -110 10l-122 -230l-30 16l117 222q-103 28 -161.5 94.5t-58.5 158.5q0 123 100 197.5t265 74.5q70 0 125 -13l107 203l31 -16zM85 251q0 -76 50.5 -130t139.5 -76l220 417q-47 9 -100 9
q-140 0 -225 -60t-85 -160zM395 31q140 0 225 60t85 160q0 73 -46.5 126t-129.5 76l-219 -415q36 -7 85 -7z" />
    <glyph glyph-name="ugrave" unicode="&#xf9;" horiz-adv-x="720" 
d="M366 594l-205 136l20 29l203 -136zM319 -20q-134 0 -209 65.5t-75 181.5v276h55v-271q0 -94 62.5 -147t173.5 -53q141 0 220 71t79 197v203h55v-503h-51l-5 146h-1q-32 -78 -112 -122t-192 -44z" />
    <glyph glyph-name="uacute" unicode="&#xfa;" horiz-adv-x="720" 
d="M359 594l-18 29l203 136l20 -29zM319 -20q-134 0 -209 65.5t-75 181.5v276h55v-271q0 -94 62.5 -147t173.5 -53q141 0 220 71t79 197v203h55v-503h-51l-5 146h-1q-32 -78 -112 -122t-192 -44z" />
    <glyph glyph-name="ucircumflex" unicode="&#xfb;" horiz-adv-x="720" 
d="M111 593l-16 30l240 121h51l240 -121l-16 -30l-250 126zM319 -20q-134 0 -209 65.5t-75 181.5v276h55v-271q0 -94 62.5 -147t173.5 -53q141 0 220 71t79 197v203h55v-503h-51l-5 146h-1q-32 -78 -112 -122t-192 -44z" />
    <glyph glyph-name="udieresis" unicode="&#xfc;" horiz-adv-x="720" 
d="M202 607q-20 0 -32 12.5t-12 31.5t12.5 31t31.5 12t31.5 -12t12.5 -31t-12 -31.5t-32 -12.5zM516 607q-19 0 -31 12t-12 32q0 19 12 31t31 12t31.5 -12t12.5 -31t-12 -31.5t-32 -12.5zM319 -20q-134 0 -209 65.5t-75 181.5v276h55v-271q0 -94 62.5 -147t173.5 -53
q141 0 220 71t79 197v203h55v-503h-51l-5 146h-1q-32 -78 -112 -122t-192 -44z" />
    <glyph glyph-name="yacute" unicode="&#xfd;" horiz-adv-x="726" 
d="M366 594l-18 29l203 136l20 -29zM329 -230q-116 0 -217.5 38t-148.5 94l34 41q48 -53 138 -87.5t194 -34.5q138 0 220 61.5t82 167.5v77h-1q-32 -77 -107 -122t-172 -45q-138 0 -224 80.5t-86 213.5v249h56v-245q0 -112 71.5 -179.5t185.5 -67.5q124 0 201 75.5t77 201.5
v215h54v-453q0 -130 -97 -205t-260 -75z" />
    <glyph glyph-name="ydieresis" unicode="&#xff;" horiz-adv-x="726" 
d="M209 607q-19 0 -31.5 12.5t-12.5 31.5t12.5 31t31.5 12t31.5 -12t12.5 -31t-12.5 -31.5t-31.5 -12.5zM523 607q-19 0 -31 12t-12 32q0 19 12 31t31 12t31.5 -12t12.5 -31t-12.5 -31.5t-31.5 -12.5zM329 -230q-116 0 -217.5 38t-148.5 94l34 41q48 -53 138 -87.5
t194 -34.5q138 0 220 61.5t82 167.5v77h-1q-32 -77 -107 -122t-172 -45q-138 0 -224 80.5t-86 213.5v249h56v-245q0 -112 71.5 -179.5t185.5 -67.5q124 0 201 75.5t77 201.5v215h54v-453q0 -130 -97 -205t-260 -75z" />
    <glyph glyph-name="Amacron" unicode="&#x100;" 
d="M184 794v35h465v-35h-465zM5 0l378 703h69l376 -703h-62l-97 177h-505l-96 -177h-63zM192 230h450l-224 422h-2z" />
    <glyph glyph-name="amacron" unicode="&#x101;" horiz-adv-x="846" 
d="M154 594v35h465v-35h-465zM285 -20q-265 0 -265 143q0 140 297 162l276 22q35 3 35 34q0 55 -68.5 92.5t-173.5 37.5q-101 0 -190 -34t-123 -86l-36 35q39 59 138 98t210 39q127 0 212 -51t85 -136v-237q0 -30 16.5 -48.5t43.5 -18.5q48 0 72 37l32 -36
q-15 -24 -45.5 -38.5t-65.5 -14.5q-47 0 -76.5 30.5t-31.5 79.5v24h-1q-35 -59 -130.5 -96.5t-210.5 -37.5zM287 29q146 0 243 55t97 137v40l-306 -24q-246 -18 -246 -111q0 -97 212 -97z" />
    <glyph glyph-name="Abreve" unicode="&#x102;" 
d="M417 790q-88 0 -143 33t-55 91h34q1 -43 46 -66.5t118 -23.5q74 0 120 23.5t45 66.5h34q0 -58 -55 -91t-144 -33zM5 0l378 703h69l376 -703h-62l-97 177h-505l-96 -177h-63zM192 230h450l-224 422h-2z" />
    <glyph glyph-name="abreve" unicode="&#x103;" horiz-adv-x="846" 
d="M386 596q-104 0 -171 42t-67 106h34q1 -50 58.5 -82t145.5 -32q89 0 147.5 32.5t57.5 81.5h34q0 -65 -67.5 -106.5t-171.5 -41.5zM285 -20q-265 0 -265 143q0 140 297 162l276 22q35 3 35 34q0 55 -68.5 92.5t-173.5 37.5q-101 0 -190 -34t-123 -86l-36 35q39 59 138 98
t210 39q127 0 212 -51t85 -136v-237q0 -30 16.5 -48.5t43.5 -18.5q48 0 72 37l32 -36q-15 -24 -45.5 -38.5t-65.5 -14.5q-47 0 -76.5 30.5t-31.5 79.5v24h-1q-35 -59 -130.5 -96.5t-210.5 -37.5zM287 29q146 0 243 55t97 137v40l-306 -24q-246 -18 -246 -111q0 -97 212 -97z
" />
    <glyph glyph-name="Aogonek" unicode="&#x104;" 
d="M688 -174q26 0 52.5 13t43.5 34l22 -27q-21 -25 -53.5 -39.5t-65.5 -14.5q-45 0 -72 20.5t-28 54.5q-1 40 42.5 72.5t132.5 68.5l-93 169h-505l-96 -177h-63l378 703h69l376 -703q-112 -42 -159 -68.5t-47 -61.5q1 -20 18.5 -32t47.5 -12zM192 230h450l-224 422h-2z" />
    <glyph glyph-name="aogonek" unicode="&#x105;" horiz-adv-x="846" 
d="M761 -18q-84 -32 -123 -57t-39 -56q1 -20 18.5 -32t47.5 -12q26 0 52.5 13t43.5 34l22 -27q-21 -25 -53.5 -39.5t-65.5 -14.5q-45 0 -72 20.5t-28 54.5q-1 35 32 63.5t98 57.5q-64 26 -67 103v24h-1q-35 -59 -130.5 -96.5t-210.5 -37.5q-265 0 -265 143q0 140 297 162
l276 22q35 3 35 34q0 55 -68.5 92.5t-173.5 37.5q-101 0 -190 -34t-123 -86l-36 35q39 59 138 98t210 39q127 0 212 -51t85 -136v-237q0 -30 16.5 -48.5t43.5 -18.5q48 0 72 37l32 -36q-25 -41 -85 -51zM627 221v40l-306 -24q-246 -18 -246 -111q0 -97 212 -97q146 0 243 55
t97 137z" />
    <glyph glyph-name="Cacute" unicode="&#x106;" horiz-adv-x="981" 
d="M466 777l-19 29l174 115l19 -28zM503 -25q-212 0 -337.5 102t-125.5 274q0 173 116.5 275t314.5 102q140 0 248 -66t150 -178l-53 -22q-34 97 -127.5 154.5t-217.5 57.5q-171 0 -271.5 -87.5t-100.5 -235.5t109.5 -235.5t294.5 -87.5q142 0 247 68.5t140 184.5l55 -19
q-41 -132 -161 -209.5t-281 -77.5z" />
    <glyph glyph-name="cacute" unicode="&#x107;" horiz-adv-x="779" 
d="M364 594l-18 29l203 136l20 -29zM381 -20q-152 0 -251.5 76t-99.5 195q0 120 95 196t244 76q113 0 199 -45t117 -120l-51 -19q-26 61 -96.5 97.5t-163.5 36.5q-127 0 -208 -62t-81 -160q-1 -97 85.5 -159.5t216.5 -62.5q113 0 202 50t117 129l53 -19q-36 -92 -141 -150.5
t-237 -58.5z" />
    <glyph glyph-name="Ccircumflex" unicode="&#x108;" horiz-adv-x="981" 
d="M260 783l-15 30l199 101h51l201 -101l-17 -30l-210 106zM503 -25q-212 0 -337.5 102t-125.5 274q0 173 116.5 275t314.5 102q140 0 248 -66t150 -178l-53 -22q-34 97 -127.5 154.5t-217.5 57.5q-171 0 -271.5 -87.5t-100.5 -235.5t109.5 -235.5t294.5 -87.5
q142 0 247 68.5t140 184.5l55 -19q-41 -132 -161 -209.5t-281 -77.5z" />
    <glyph glyph-name="ccircumflex" unicode="&#x109;" horiz-adv-x="779" 
d="M116 593l-16 30l240 121h51l240 -121l-16 -30l-250 126zM381 -20q-152 0 -251.5 76t-99.5 195q0 120 95 196t244 76q113 0 199 -45t117 -120l-51 -19q-26 61 -96.5 97.5t-163.5 36.5q-127 0 -208 -62t-81 -160q-1 -97 85.5 -159.5t216.5 -62.5q113 0 202 50t117 129
l53 -19q-36 -92 -141 -150.5t-237 -58.5z" />
    <glyph glyph-name="Cdotaccent" unicode="&#x10a;" horiz-adv-x="981" 
d="M469 809q-19 0 -31.5 12.5t-12.5 31.5t12.5 31t31.5 12t31.5 -12t12.5 -31t-12.5 -31.5t-31.5 -12.5zM503 -25q-212 0 -337.5 102t-125.5 274q0 173 116.5 275t314.5 102q140 0 248 -66t150 -178l-53 -22q-34 97 -127.5 154.5t-217.5 57.5q-171 0 -271.5 -87.5
t-100.5 -235.5t109.5 -235.5t294.5 -87.5q142 0 247 68.5t140 184.5l55 -19q-41 -132 -161 -209.5t-281 -77.5z" />
    <glyph glyph-name="cdotaccent" unicode="&#x10b;" horiz-adv-x="779" 
d="M365 606q-19 0 -31.5 12.5t-12.5 31.5q0 20 12.5 32t31.5 12t31.5 -12.5t12.5 -31.5t-12.5 -31.5t-31.5 -12.5zM381 -20q-152 0 -251.5 76t-99.5 195q0 120 95 196t244 76q113 0 199 -45t117 -120l-51 -19q-26 61 -96.5 97.5t-163.5 36.5q-127 0 -208 -62t-81 -160
q-1 -97 85.5 -159.5t216.5 -62.5q113 0 202 50t117 129l53 -19q-36 -92 -141 -150.5t-237 -58.5z" />
    <glyph glyph-name="Ccaron" unicode="&#x10c;" horiz-adv-x="981" 
d="M444 790l-199 101l15 30l209 -106l210 106l17 -30l-201 -101h-51zM503 -25q-212 0 -337.5 102t-125.5 274q0 173 116.5 275t314.5 102q140 0 248 -66t150 -178l-53 -22q-34 97 -127.5 154.5t-217.5 57.5q-171 0 -271.5 -87.5t-100.5 -235.5t109.5 -235.5t294.5 -87.5
q142 0 247 68.5t140 184.5l55 -19q-41 -132 -161 -209.5t-281 -77.5z" />
    <glyph glyph-name="ccaron" unicode="&#x10d;" horiz-adv-x="779" 
d="M339 606l-240 121l16 30l249 -126l250 126l16 -30l-240 -121h-51zM381 -20q-152 0 -251.5 76t-99.5 195q0 120 95 196t244 76q113 0 199 -45t117 -120l-51 -19q-26 61 -96.5 97.5t-163.5 36.5q-127 0 -208 -62t-81 -160q-1 -97 85.5 -159.5t216.5 -62.5q113 0 202 50
t117 129l53 -19q-36 -92 -141 -150.5t-237 -58.5z" />
    <glyph glyph-name="Dcaron" unicode="&#x10e;" horiz-adv-x="895" 
d="M379 790l-199 101l15 30l209 -106l210 106l17 -30l-201 -101h-51zM50 0v703h395q198 0 304 -91t106 -261t-106 -260.5t-304 -90.5h-395zM109 53h336q169 0 260 77.5t91 220.5q0 144 -91 221t-260 77h-336v-596z" />
    <glyph glyph-name="dcaron" unicode="&#x10f;" horiz-adv-x="799" 
d="M392 -20q-160 0 -261 75.5t-101 195.5q0 121 100.5 196.5t260.5 75.5q109 0 193 -40.5t119 -108.5h1v359h55v-733h-50l-4 129h-1q-34 -68 -118 -108.5t-194 -40.5zM808 560l6 28q30 -6 47 9t13 45q-20 -6 -37 6t-17 32q0 16 11 26.5t28 10.5q22 0 35 -20t13 -54
q0 -49 -27 -71t-72 -12zM395 31q137 0 223.5 61.5t86.5 158.5t-86.5 158.5t-223.5 61.5t-223.5 -61.5t-86.5 -158.5t87 -158.5t223 -61.5z" />
    <glyph glyph-name="Dcroat" unicode="&#x110;" horiz-adv-x="1010" 
d="M560 703q198 0 304 -91t106 -261t-106 -260.5t-304 -90.5h-395v389h-165v34h165v280h395zM560 53q169 0 260 77.5t91 220.5q0 144 -90.5 221t-260.5 77h-336v-226h325v-34h-325v-336h336z" />
    <glyph glyph-name="dcroat" unicode="&#x111;" horiz-adv-x="807" 
d="M857 640v-35h-98v-605h-50l-4 129h-1q-34 -68 -118 -108.5t-194 -40.5q-160 0 -261 75.5t-101 195.5q0 121 100.5 196.5t260.5 75.5q109 0 193 -40.5t119 -108.5h1v231h-329v35h329v93h55v-93h98zM395 31q137 0 223.5 61.5t86.5 158.5t-86.5 158.5t-223.5 61.5
t-223.5 -61.5t-86.5 -158.5t87 -158.5t223 -61.5z" />
    <glyph glyph-name="Emacron" unicode="&#x112;" horiz-adv-x="756" 
d="M166 794v35h465v-35h-465zM50 0v703h676v-54h-618v-258h578v-53h-578v-285h628v-53h-686z" />
    <glyph glyph-name="emacron" unicode="&#x113;" horiz-adv-x="802" 
d="M149 594v35h465v-35h-465zM412 -20q-166 0 -274 77.5t-108 196.5q0 117 99 193t253 76q150 0 247 -76t97 -193q0 -18 -1 -25h-633q7 -85 99 -140.5t226 -55.5q101 0 192 32t134 81l34 -40q-50 -55 -151.5 -90.5t-213.5 -35.5zM91 280h576q-7 84 -88 136.5t-199 52.5
q-119 0 -200.5 -53.5t-88.5 -135.5z" />
    <glyph glyph-name="Ebreve" unicode="&#x114;" horiz-adv-x="756" 
d="M398 790q-88 0 -143 33t-55 91h34q1 -43 46 -66.5t118 -23.5q74 0 120 23.5t45 66.5h34q0 -58 -55 -91t-144 -33zM50 0v703h676v-54h-618v-258h578v-53h-578v-285h628v-53h-686z" />
    <glyph glyph-name="ebreve" unicode="&#x115;" horiz-adv-x="802" 
d="M380 596q-104 0 -171 42t-67 106h34q1 -50 58.5 -82t145.5 -32q89 0 147.5 32.5t57.5 81.5h34q0 -65 -67.5 -106.5t-171.5 -41.5zM412 -20q-166 0 -274 77.5t-108 196.5q0 117 99 193t253 76q150 0 247 -76t97 -193q0 -18 -1 -25h-633q7 -85 99 -140.5t226 -55.5
q101 0 192 32t134 81l34 -40q-50 -55 -151.5 -90.5t-213.5 -35.5zM91 280h576q-7 84 -88 136.5t-199 52.5q-119 0 -200.5 -53.5t-88.5 -135.5z" />
    <glyph glyph-name="Edotaccent" unicode="&#x116;" horiz-adv-x="756" 
d="M399 809q-19 0 -31.5 12.5t-12.5 31.5t12.5 31t31.5 12t31.5 -12t12.5 -31t-12.5 -31.5t-31.5 -12.5zM50 0v703h676v-54h-618v-258h578v-53h-578v-285h628v-53h-686z" />
    <glyph glyph-name="edotaccent" unicode="&#x117;" horiz-adv-x="802" 
d="M381 606q-19 0 -31.5 12.5t-12.5 31.5q0 20 12.5 32t31.5 12t31.5 -12.5t12.5 -31.5t-12.5 -31.5t-31.5 -12.5zM412 -20q-166 0 -274 77.5t-108 196.5q0 117 99 193t253 76q150 0 247 -76t97 -193q0 -18 -1 -25h-633q7 -85 99 -140.5t226 -55.5q101 0 192 32t134 81
l34 -40q-50 -55 -151.5 -90.5t-213.5 -35.5zM91 280h576q-7 84 -88 136.5t-199 52.5q-119 0 -200.5 -53.5t-88.5 -135.5z" />
    <glyph glyph-name="Eogonek" unicode="&#x118;" horiz-adv-x="756" 
d="M736 0q-112 -42 -159 -68.5t-47 -61.5q1 -20 18.5 -32t47.5 -12q26 0 52.5 13t43.5 34l22 -27q-21 -25 -53.5 -39.5t-65.5 -14.5q-45 0 -72 20.5t-28 54.5q-1 38 38 69t118 64h-601v703h676v-54h-618v-258h578v-53h-578v-285h628v-53z" />
    <glyph glyph-name="eogonek" unicode="&#x119;" horiz-adv-x="802" 
d="M566 -2q-108 -41 -154.5 -67.5t-46.5 -60.5q1 -20 18.5 -32t47.5 -12q26 0 52.5 13t43.5 34l22 -27q-21 -25 -53.5 -39.5t-65.5 -14.5q-45 0 -72 20.5t-28 54.5q-1 59 113 114q-10 -1 -31 -1q-166 0 -274 77.5t-108 196.5q0 117 99 193t253 76q150 0 247 -76t97 -193
q0 -18 -1 -25h-633q7 -85 99 -140.5t226 -55.5q101 0 192 32t134 81l34 -40q-66 -73 -211 -108zM380 469q-119 0 -200.5 -53.5t-88.5 -135.5h576q-7 84 -88 136.5t-199 52.5z" />
    <glyph glyph-name="Ecaron" unicode="&#x11a;" horiz-adv-x="756" 
d="M374 790l-199 101l15 30l209 -106l210 106l17 -30l-201 -101h-51zM50 0v703h676v-54h-618v-258h578v-53h-578v-285h628v-53h-686z" />
    <glyph glyph-name="ecaron" unicode="&#x11b;" horiz-adv-x="802" 
d="M356 606l-240 121l16 30l249 -126l250 126l16 -30l-240 -121h-51zM412 -20q-166 0 -274 77.5t-108 196.5q0 117 99 193t253 76q150 0 247 -76t97 -193q0 -18 -1 -25h-633q7 -85 99 -140.5t226 -55.5q101 0 192 32t134 81l34 -40q-50 -55 -151.5 -90.5t-213.5 -35.5z
M91 280h576q-7 84 -88 136.5t-199 52.5q-119 0 -200.5 -53.5t-88.5 -135.5z" />
    <glyph glyph-name="Gcircumflex" unicode="&#x11c;" horiz-adv-x="1016" 
d="M280 783l-15 30l199 101h51l201 -101l-17 -30l-210 106zM513 -25q-206 0 -339.5 106t-133.5 270t126.5 270.5t322.5 106.5q135 0 245 -61t140 -154l-55 -16q-26 77 -120 127t-209 50q-170 1 -280.5 -90t-110.5 -233q0 -140 119 -231.5t301 -91.5q173 0 289 86.5
t116 218.5h-595v52h652v-385h-52l-6 181h-1q-53 -96 -160 -151t-249 -55z" />
    <glyph glyph-name="gcircumflex" unicode="&#x11d;" horiz-adv-x="789" 
d="M145 593l-16 30l240 121h51l240 -121l-16 -30l-250 126zM362 -230q-249 0 -395 111l33 45q142 -105 362 -105q155 0 243.5 62.5t88.5 172.5v65h-1q-36 -64 -118 -102.5t-186 -38.5q-157 0 -256.5 75.5t-99.5 194.5q0 120 99 196.5t255 76.5q105 0 187.5 -40.5
t118.5 -107.5h1l4 128h51v-447q0 -133 -103.5 -209.5t-283.5 -76.5zM391 31q134 0 219 61.5t85 157.5q0 97 -85.5 159t-218.5 62q-134 0 -218.5 -61.5t-84.5 -159.5q0 -96 85.5 -157.5t217.5 -61.5z" />
    <glyph glyph-name="Gbreve" unicode="&#x11e;" horiz-adv-x="1016" 
d="M488 790q-88 0 -143 33t-55 91h34q1 -43 46 -66.5t118 -23.5q74 0 120 23.5t45 66.5h34q0 -58 -55 -91t-144 -33zM513 -25q-206 0 -339.5 106t-133.5 270t126.5 270.5t322.5 106.5q135 0 245 -61t140 -154l-55 -16q-26 77 -120 127t-209 50q-170 1 -280.5 -90
t-110.5 -233q0 -140 119 -231.5t301 -91.5q173 0 289 86.5t116 218.5h-595v52h652v-385h-52l-6 181h-1q-53 -96 -160 -151t-249 -55z" />
    <glyph glyph-name="gbreve" unicode="&#x11f;" horiz-adv-x="789" 
d="M393 596q-104 0 -171 42t-67 106h34q1 -50 58.5 -82t145.5 -32q89 0 147.5 32.5t57.5 81.5h34q0 -65 -67.5 -106.5t-171.5 -41.5zM362 -230q-249 0 -395 111l33 45q142 -105 362 -105q155 0 243.5 62.5t88.5 172.5v65h-1q-36 -64 -118 -102.5t-186 -38.5
q-157 0 -256.5 75.5t-99.5 194.5q0 120 99 196.5t255 76.5q105 0 187.5 -40.5t118.5 -107.5h1l4 128h51v-447q0 -133 -103.5 -209.5t-283.5 -76.5zM391 31q134 0 219 61.5t85 157.5q0 97 -85.5 159t-218.5 62q-134 0 -218.5 -61.5t-84.5 -159.5q0 -96 85.5 -157.5
t217.5 -61.5z" />
    <glyph glyph-name="Gdotaccent" unicode="&#x120;" horiz-adv-x="1016" 
d="M489 809q-19 0 -31.5 12.5t-12.5 31.5t12.5 31t31.5 12t31.5 -12t12.5 -31t-12.5 -31.5t-31.5 -12.5zM513 -25q-206 0 -339.5 106t-133.5 270t126.5 270.5t322.5 106.5q135 0 245 -61t140 -154l-55 -16q-26 77 -120 127t-209 50q-170 1 -280.5 -90t-110.5 -233
q0 -140 119 -231.5t301 -91.5q173 0 289 86.5t116 218.5h-595v52h652v-385h-52l-6 181h-1q-53 -96 -160 -151t-249 -55z" />
    <glyph glyph-name="gdotaccent" unicode="&#x121;" horiz-adv-x="789" 
d="M394 606q-19 0 -31.5 12.5t-12.5 31.5q0 20 12 32t32 12q19 0 31.5 -12.5t12.5 -31.5t-12.5 -31.5t-31.5 -12.5zM362 -230q-249 0 -395 111l33 45q142 -105 362 -105q155 0 243.5 62.5t88.5 172.5v65h-1q-36 -64 -118 -102.5t-186 -38.5q-157 0 -256.5 75.5t-99.5 194.5
q0 120 99 196.5t255 76.5q105 0 187.5 -40.5t118.5 -107.5h1l4 128h51v-447q0 -133 -103.5 -209.5t-283.5 -76.5zM391 31q134 0 219 61.5t85 157.5q0 97 -85.5 159t-218.5 62q-134 0 -218.5 -61.5t-84.5 -159.5q0 -96 85.5 -157.5t217.5 -61.5z" />
    <glyph glyph-name="uni0122" unicode="&#x122;" horiz-adv-x="1016" 
d="M513 -25q-206 0 -339.5 106t-133.5 270t126.5 270.5t322.5 106.5q135 0 245 -61t140 -154l-55 -16q-26 77 -120 127t-209 50q-170 1 -280.5 -90t-110.5 -233q0 -140 119 -231.5t301 -91.5q173 0 289 86.5t116 218.5h-595v52h652v-385h-52l-6 181h-1q-53 -96 -160 -151
t-249 -55zM468 -240l6 29q30 -6 47 8.5t13 44.5q-20 -6 -37 6.5t-17 32.5q0 15 11.5 25.5t27.5 10.5q22 0 35 -20t13 -54q0 -49 -27 -70.5t-72 -12.5z" />
    <glyph glyph-name="uni0123" unicode="&#x123;" horiz-adv-x="789" 
d="M445 743l-6 -29q-30 6 -47 -8.5t-13 -44.5q20 6 37 -6.5t17 -32.5q0 -15 -11.5 -25.5t-27.5 -10.5q-22 0 -35 20t-13 54q0 49 27 70.5t72 12.5zM362 -230q-249 0 -395 111l33 45q142 -105 362 -105q155 0 243.5 62.5t88.5 172.5v65h-1q-36 -64 -118 -102.5t-186 -38.5
q-157 0 -256.5 75.5t-99.5 194.5q0 120 99 196.5t255 76.5q105 0 187.5 -40.5t118.5 -107.5h1l4 128h51v-447q0 -133 -103.5 -209.5t-283.5 -76.5zM391 31q134 0 219 61.5t85 157.5q0 97 -85.5 159t-218.5 62q-134 0 -218.5 -61.5t-84.5 -159.5q0 -96 85.5 -157.5
t217.5 -61.5z" />
    <glyph glyph-name="Itilde" unicode="&#x128;" horiz-adv-x="159" 
d="M131 780q-17 0 -30.5 11t-19.5 21.5t-16 30.5q-21 47 -36 47q-16 0 -25.5 -28t-9.5 -72h-32q0 60 17 96.5t50 36.5q23 0 37 -17t28 -47q19 -46 35 -46q17 0 26.5 28t9.5 73h32q0 -61 -16.5 -97.5t-49.5 -36.5zM50 0v703h59v-703h-59z" />
    <glyph glyph-name="itilde" unicode="&#x129;" horiz-adv-x="135" 
d="M119 590q-22 0 -36 15t-26 42l-5.5 11l-5.5 11t-5 9.5t-5.5 9t-5.5 6.5t-6 4.5t-7 1.5q-16 0 -25.5 -28t-9.5 -72h-32q0 60 17 96.5t50 36.5q36 0 63 -60q21 -50 37 -50q17 0 26.5 28t9.5 73h33q0 -61 -17 -97.5t-50 -36.5zM40 0v503h55v-503h-55z" />
    <glyph glyph-name="Imacron" unicode="&#x12a;" horiz-adv-x="159" 
d="M1 790v33h157v-33h-157zM50 0v703h59v-703h-59z" />
    <glyph glyph-name="imacron" unicode="&#x12b;" horiz-adv-x="135" 
d="M-4 595v34h143v-34h-143zM40 0v503h55v-503h-55z" />
    <glyph glyph-name="Iogonek" unicode="&#x12e;" horiz-adv-x="159" 
d="M109 0q-112 -42 -159 -68.5t-47 -61.5q1 -20 18.5 -32t47.5 -12q26 0 52.5 13t43.5 34l22 -27q-21 -25 -53.5 -39.5t-65.5 -14.5q-45 0 -72 20.5t-28 54.5q-1 41 44 73.5t138 70.5v692h59v-703z" />
    <glyph glyph-name="iogonek" unicode="&#x12f;" horiz-adv-x="135" 
d="M76 694q20 0 32.5 -12t12.5 -32t-12.5 -32t-32.5 -12t-32 12t-12 32t12 32t32 12zM49 13v490h55v-503q-112 -42 -159 -68.5t-47 -61.5q2 -44 66 -44q59 0 95 47l22 -27q-20 -24 -52.5 -39t-65.5 -15q-45 0 -72 20.5t-28 54.5q-1 41 45 74.5t141 71.5z" />
    <glyph glyph-name="Idotaccent" unicode="&#x130;" horiz-adv-x="159" 
d="M80 809q-20 0 -32 12.5t-12 31.5t12.5 31t31.5 12t31.5 -12t12.5 -31t-12.5 -31.5t-31.5 -12.5zM50 0v703h59v-703h-59z" />
    <glyph glyph-name="dotlessi" unicode="&#x131;" horiz-adv-x="135" 
d="M40 0v503h55v-503h-55z" />
    <glyph glyph-name="IJ" unicode="&#x132;" horiz-adv-x="721" 
d="M50 0v703h59v-703h-59zM438 -20q-107 0 -175.5 54t-88.5 155l52 22q14 -85 68.5 -131.5t140.5 -46.5q88 0 137.5 55.5t49.5 154.5v460h59v-464q0 -122 -64 -190.5t-179 -68.5z" />
    <glyph glyph-name="ij" unicode="&#x133;" horiz-adv-x="308" 
d="M76 606q-20 0 -32 12t-12 32t12 32t32 12t32.5 -12t12.5 -32t-12.5 -32t-32.5 -12zM231 606q-19 0 -31.5 12t-12.5 32t12.5 32t31.5 12q20 0 32.5 -12t12.5 -32t-12.5 -32t-32.5 -12zM97 -230q-68 0 -113 24l11 50q46 -23 100 -23q50 0 79.5 32t29.5 85v565h55v-568
q0 -76 -43.5 -120.5t-118.5 -44.5zM49 0v503h55v-503h-55z" />
    <glyph glyph-name="uni0136" unicode="&#x136;" horiz-adv-x="713" 
d="M50 0v703h59v-337h1l500 337h95l-422 -283l430 -420h-81l-395 388l-128 -86v-302h-59zM297 -240l6 29q30 -6 47 8.5t13 44.5q-20 -6 -37 6.5t-17 32.5q0 15 11.5 25.5t27.5 10.5q22 0 35 -20t13 -54q0 -49 -27 -70.5t-72 -12.5z" />
    <glyph glyph-name="uni0137" unicode="&#x137;" horiz-adv-x="600" 
d="M40 0v733h55v-462h1l396 232h99l-325 -190l334 -313h-77l-301 285l-127 -73v-212h-55zM210 -240l6 29q30 -6 47 8.5t13 44.5q-20 -6 -37 6.5t-17 32.5q0 15 11.5 25.5t27.5 10.5q22 0 35 -20t13 -54q0 -49 -27 -70.5t-72 -12.5z" />
    <glyph glyph-name="Lacute" unicode="&#x139;" horiz-adv-x="593" 
d="M76 777l-19 29l174 115l19 -28zM50 0v703h59v-650h479v-53h-538z" />
    <glyph glyph-name="lacute" unicode="&#x13a;" horiz-adv-x="135" 
d="M65 777l-19 29l174 115l19 -28zM40 0v733h55v-733h-55z" />
    <glyph glyph-name="uni013B" unicode="&#x13b;" horiz-adv-x="593" 
d="M50 0v703h59v-650h479v-53h-538zM271 -240l6 29q30 -6 47 8.5t13 44.5q-20 -6 -37 6.5t-17 32.5q0 15 11.5 25.5t27.5 10.5q22 0 35 -20t13 -54q0 -49 -27 -70.5t-72 -12.5z" />
    <glyph glyph-name="uni013C" unicode="&#x13c;" horiz-adv-x="135" 
d="M40 0v733h55v-733h-55zM17 -240l6 29q30 -6 47 8.5t13 44.5q-20 -6 -37 6.5t-17 32.5q0 15 11.5 25.5t27.5 10.5q22 0 35 -20t13 -54q0 -49 -27 -70.5t-72 -12.5z" />
    <glyph glyph-name="Lcaron" unicode="&#x13d;" horiz-adv-x="593" 
d="M228 560l6 28q30 -6 47 9t13 45q-20 -6 -37 6t-17 32q0 16 11 26.5t28 10.5q22 0 35 -20t13 -54q0 -49 -27 -71t-72 -12zM50 0v703h59v-650h479v-53h-538z" />
    <glyph glyph-name="lcaron" unicode="&#x13e;" horiz-adv-x="135" 
d="M40 0v733h55v-733h-55zM144 560l6 28q30 -6 47 9t13 45q-20 -6 -37 6t-17 32q0 16 11 26.5t28 10.5q22 0 35 -20t13 -54q0 -49 -27 -71t-72 -12z" />
    <glyph glyph-name="Lslash" unicode="&#x141;" horiz-adv-x="681" 
d="M198 53h478v-53h-537v309l-122 -68l-17 30l139 78v354h59v-321l253 141l17 -30l-270 -151v-289z" />
    <glyph glyph-name="lslash" unicode="&#x142;" horiz-adv-x="436" 
d="M436 519l-191 -121v-398h-55v363l-173 -110l-17 30l190 120v330h55v-295l174 110z" />
    <glyph glyph-name="Nacute" unicode="&#x143;" horiz-adv-x="836" 
d="M421 777l-19 29l174 115l19 -28zM50 0v703h80l596 -644h1v644h59v-703h-80l-596 643h-1v-643h-59z" />
    <glyph glyph-name="nacute" unicode="&#x144;" horiz-adv-x="720" 
d="M370 594l-18 29l203 136l20 -29zM401 523q134 0 209 -65.5t75 -181.5v-276h-55v271q0 94 -62.5 147t-173.5 53q-141 0 -220 -71t-79 -197v-203h-55v503h51l5 -146h1q32 78 112 122t192 44z" />
    <glyph glyph-name="uni0145" unicode="&#x145;" horiz-adv-x="836" 
d="M50 0v703h80l596 -644h1v644h59v-703h-80l-596 643h-1v-643h-59zM377 -240l6 29q30 -6 47 8.5t13 44.5q-20 -6 -37 6.5t-17 32.5q0 15 11.5 25.5t27.5 10.5q22 0 35 -20t13 -54q0 -49 -27 -70.5t-72 -12.5z" />
    <glyph glyph-name="uni0146" unicode="&#x146;" horiz-adv-x="720" 
d="M401 523q134 0 209 -65.5t75 -181.5v-276h-55v271q0 94 -62.5 147t-173.5 53q-141 0 -220 -71t-79 -197v-203h-55v503h51l5 -146h1q32 78 112 122t192 44zM316 -240l6 29q30 -6 47 8.5t13 44.5q-20 -6 -37 6.5t-17 32.5q0 15 11.5 25.5t27.5 10.5q22 0 35 -20t13 -54
q0 -49 -27 -70.5t-72 -12.5z" />
    <glyph glyph-name="Ncaron" unicode="&#x147;" horiz-adv-x="836" 
d="M399 790l-199 101l15 30l209 -106l210 106l17 -30l-201 -101h-51zM50 0v703h80l596 -644h1v644h59v-703h-80l-596 643h-1v-643h-59z" />
    <glyph glyph-name="ncaron" unicode="&#x148;" horiz-adv-x="720" 
d="M345 606l-240 121l16 30l249 -126l250 126l16 -30l-240 -121h-51zM401 523q134 0 209 -65.5t75 -181.5v-276h-55v271q0 94 -62.5 147t-173.5 53q-141 0 -220 -71t-79 -197v-203h-55v503h51l5 -146h1q32 78 112 122t192 44z" />
    <glyph glyph-name="Omacron" unicode="&#x14c;" horiz-adv-x="1030" 
d="M282 794v35h465v-35h-465zM515 -25q-212 0 -343.5 104t-131.5 272t131.5 272.5t343.5 104.5q213 0 344 -104.5t131 -272.5t-131 -272t-344 -104zM515 28q186 0 301 89.5t115 233.5t-115 233.5t-301 89.5t-301 -89.5t-115 -233.5t115 -233.5t301 -89.5z" />
    <glyph glyph-name="omacron" unicode="&#x14d;" horiz-adv-x="790" 
d="M162 594v35h465v-35h-465zM395 -20q-165 0 -265 74t-100 197t100 197.5t265 74.5q166 0 265.5 -74.5t99.5 -197.5t-99.5 -197t-265.5 -74zM395 31q140 0 225 60t85 160t-85 160t-225 60t-225 -60t-85 -160t85 -160t225 -60z" />
    <glyph glyph-name="Obreve" unicode="&#x14e;" horiz-adv-x="1030" 
d="M514 790q-88 0 -143 33t-55 91h34q1 -43 46 -66.5t118 -23.5q74 0 120 23.5t45 66.5h34q0 -58 -55 -91t-144 -33zM515 -25q-212 0 -343.5 104t-131.5 272t131.5 272.5t343.5 104.5q213 0 344 -104.5t131 -272.5t-131 -272t-344 -104zM515 28q186 0 301 89.5t115 233.5
t-115 233.5t-301 89.5t-301 -89.5t-115 -233.5t115 -233.5t301 -89.5z" />
    <glyph glyph-name="obreve" unicode="&#x14f;" horiz-adv-x="790" 
d="M394 596q-104 0 -171 42t-67 106h34q1 -50 58.5 -82t145.5 -32q89 0 147.5 32.5t57.5 81.5h34q0 -65 -67.5 -106.5t-171.5 -41.5zM395 -20q-165 0 -265 74t-100 197t100 197.5t265 74.5q166 0 265.5 -74.5t99.5 -197.5t-99.5 -197t-265.5 -74zM395 31q140 0 225 60
t85 160t-85 160t-225 60t-225 -60t-85 -160t85 -160t225 -60z" />
    <glyph glyph-name="Ohungarumlaut" unicode="&#x150;" horiz-adv-x="1030" 
d="M390 766l-19 29l174 115l19 -28zM619 766l-19 29l173 115l20 -28zM515 -25q-212 0 -343.5 104t-131.5 272t131.5 272.5t343.5 104.5q213 0 344 -104.5t131 -272.5t-131 -272t-344 -104zM515 28q186 0 301 89.5t115 233.5t-115 233.5t-301 89.5t-301 -89.5t-115 -233.5
t115 -233.5t301 -89.5z" />
    <glyph glyph-name="ohungarumlaut" unicode="&#x151;" horiz-adv-x="790" 
d="M269 594l-18 29l203 136l20 -29zM499 594l-19 29l204 136l20 -29zM395 -20q-165 0 -265 74t-100 197t100 197.5t265 74.5q166 0 265.5 -74.5t99.5 -197.5t-99.5 -197t-265.5 -74zM395 31q140 0 225 60t85 160t-85 160t-225 60t-225 -60t-85 -160t85 -160t225 -60z" />
    <glyph glyph-name="OE" unicode="&#x152;" horiz-adv-x="1262" 
d="M510 -21q-210 0 -340 102.5t-130 269.5t130 269.5t340 102.5q111 0 181 -20h541v-50h-487v-271h447v-47h-447v-285h497v-50h-551q-72 -21 -181 -21zM504 29q122 0 183 21v602q-57 21 -177 21q-184 0 -297.5 -88.5t-113.5 -233.5q0 -144 112 -233t293 -89z" />
    <glyph glyph-name="oe" unicode="&#x153;" horiz-adv-x="1477" 
d="M1418 146l34 -40q-47 -55 -150 -90.5t-215 -35.5q-123 0 -217 44t-136 120q-39 -76 -129 -120t-210 -44q-160 0 -262.5 76t-102.5 195t102.5 195.5t262.5 76.5q117 0 206.5 -43t130.5 -117q39 74 125 117t200 43q150 0 247 -76t97 -193v-25h-636q11 -86 102.5 -141
t224.5 -55q102 0 193.5 32t132.5 81zM395 27q135 0 222.5 63t87.5 161t-87.5 161t-222.5 63t-222.5 -63t-87.5 -161t87.5 -161t222.5 -63zM1055 469q-118 0 -198.5 -52t-92.5 -134h580q-10 82 -91 134t-198 52z" />
    <glyph glyph-name="Racute" unicode="&#x154;" horiz-adv-x="862" 
d="M402 777l-19 29l174 115l19 -28zM762 -20q-76 0 -113 98l-45 115q-41 107 -127 107h-368v-300h-59v703h502q110 0 179 -55t69 -144q0 -81 -60 -133.5t-160 -58.5v-1q53 -29 85 -114l40 -103q11 -30 25.5 -46t38.5 -16q36 0 60 41l33 -35q-39 -58 -100 -58zM108 354h440
q85 0 138.5 41t53.5 106q0 66 -53.5 107t-138.5 41h-440v-295z" />
    <glyph glyph-name="racute" unicode="&#x155;" horiz-adv-x="527" 
d="M269 594l-18 29l203 136l20 -29zM311 523q82 0 134.5 -44.5t61.5 -127.5l-50 -16q-5 66 -46 101t-105 35q-96 0 -153.5 -66.5t-57.5 -175.5v-229h-55v503h51l3 -119h1q28 66 85 102.5t131 36.5z" />
    <glyph glyph-name="uni0156" unicode="&#x156;" horiz-adv-x="862" 
d="M762 -20q-76 0 -113 98l-45 115q-41 107 -127 107h-368v-300h-59v703h502q110 0 179 -55t69 -144q0 -81 -60 -133.5t-160 -58.5v-1q53 -29 85 -114l40 -103q11 -30 25.5 -46t38.5 -16q36 0 60 41l33 -35q-39 -58 -100 -58zM108 354h440q85 0 138.5 41t53.5 106
q0 66 -53.5 107t-138.5 41h-440v-295zM361 -240l6 29q30 -6 47 8.5t13 44.5q-20 -6 -37 6.5t-17 32.5q0 15 11.5 25.5t27.5 10.5q22 0 35 -20t13 -54q0 -49 -27 -70.5t-72 -12.5z" />
    <glyph glyph-name="uni0157" unicode="&#x157;" horiz-adv-x="527" 
d="M311 523q82 0 134.5 -44.5t61.5 -127.5l-50 -16q-5 66 -46 101t-105 35q-96 0 -153.5 -66.5t-57.5 -175.5v-229h-55v503h51l3 -119h1q28 66 85 102.5t131 36.5zM17 -240l6 29q30 -6 47 8.5t13 44.5q-20 -6 -37 6.5t-17 32.5q0 15 11.5 25.5t27.5 10.5q22 0 35 -20t13 -54
q0 -49 -27 -70.5t-72 -12.5z" />
    <glyph glyph-name="Rcaron" unicode="&#x158;" horiz-adv-x="862" 
d="M380 790l-199 101l15 30l209 -106l210 106l17 -30l-201 -101h-51zM762 -20q-76 0 -113 98l-45 115q-41 107 -127 107h-368v-300h-59v703h502q110 0 179 -55t69 -144q0 -81 -60 -133.5t-160 -58.5v-1q53 -29 85 -114l40 -103q11 -30 25.5 -46t38.5 -16q36 0 60 41l33 -35
q-39 -58 -100 -58zM108 354h440q85 0 138.5 41t53.5 106q0 66 -53.5 107t-138.5 41h-440v-295z" />
    <glyph glyph-name="rcaron" unicode="&#x159;" horiz-adv-x="527" 
d="M245 606l-240 121l16 30l249 -126l250 126l16 -30l-240 -121h-51zM311 523q82 0 134.5 -44.5t61.5 -127.5l-50 -16q-5 66 -46 101t-105 35q-96 0 -153.5 -66.5t-57.5 -175.5v-229h-55v503h51l3 -119h1q28 66 85 102.5t131 36.5z" />
    <glyph glyph-name="Sacute" unicode="&#x15a;" horiz-adv-x="801" 
d="M375 777l-19 29l174 115l19 -28zM444 -25q-159 0 -274.5 65.5t-149.5 173.5l50 30q25 -97 128.5 -156t247.5 -59q125 0 200.5 42.5t75.5 111.5q0 54 -51 87t-163 51l-201 33q-120 19 -173.5 58.5t-53.5 111.5q0 93 82 148.5t216 55.5q115 0 206.5 -45t130.5 -119l-47 -33
q-34 64 -112.5 103.5t-177.5 39.5q-107 0 -173 -40.5t-66 -106.5q0 -47 42.5 -75.5t136.5 -42.5l198 -32q139 -22 202 -66.5t63 -121.5q0 -97 -92 -155.5t-245 -58.5z" />
    <glyph glyph-name="sacute" unicode="&#x15b;" horiz-adv-x="672" 
d="M322 594l-18 29l203 136l20 -29zM373 -20q-132 0 -229 54t-119 137l48 24q18 -72 100.5 -118t197.5 -46q95 0 158.5 29.5t62.5 75.5q0 70 -174 90l-131 13q-103 11 -156 41.5t-53 88.5q1 70 68 112t173 42q92 0 169 -37.5t106 -95.5l-44 -29q-25 49 -89.5 80.5
t-141.5 31.5q-80 0 -132.5 -28.5t-53.5 -71.5q0 -35 38 -53.5t122 -28.5l134 -14q110 -13 165 -44t55 -93q1 -72 -76.5 -116t-197.5 -44z" />
    <glyph glyph-name="Scircumflex" unicode="&#x15c;" horiz-adv-x="801" 
d="M169 783l-15 30l199 101h51l201 -101l-17 -30l-210 106zM444 -25q-159 0 -274.5 65.5t-149.5 173.5l50 30q25 -97 128.5 -156t247.5 -59q125 0 200.5 42.5t75.5 111.5q0 54 -51 87t-163 51l-201 33q-120 19 -173.5 58.5t-53.5 111.5q0 93 82 148.5t216 55.5
q115 0 206.5 -45t130.5 -119l-47 -33q-34 64 -112.5 103.5t-177.5 39.5q-107 0 -173 -40.5t-66 -106.5q0 -47 42.5 -75.5t136.5 -42.5l198 -32q139 -22 202 -66.5t63 -121.5q0 -97 -92 -155.5t-245 -58.5z" />
    <glyph glyph-name="scircumflex" unicode="&#x15d;" horiz-adv-x="672" 
d="M74 593l-16 30l240 121h51l240 -121l-16 -30l-250 126zM373 -20q-132 0 -229 54t-119 137l48 24q18 -72 100.5 -118t197.5 -46q95 0 158.5 29.5t62.5 75.5q0 70 -174 90l-131 13q-103 11 -156 41.5t-53 88.5q1 70 68 112t173 42q92 0 169 -37.5t106 -95.5l-44 -29
q-25 49 -89.5 80.5t-141.5 31.5q-80 0 -132.5 -28.5t-53.5 -71.5q0 -35 38 -53.5t122 -28.5l134 -14q110 -13 165 -44t55 -93q1 -72 -76.5 -116t-197.5 -44z" />
    <glyph glyph-name="Scedilla" unicode="&#x15e;" horiz-adv-x="801" 
d="M444 -25h-10l-3 -24q44 -2 70.5 -22.5t26.5 -57.5q0 -36 -25.5 -57.5t-65.5 -21.5q-30 0 -57 16t-38 41l28 19q8 -18 26 -30t40 -12q57 0 57 44q1 23 -17 35.5t-48 12.5h-35l7 58q-144 10 -246 74t-134 164l50 30q25 -97 128.5 -156t247.5 -59q125 0 200.5 42.5
t75.5 111.5q0 54 -51 87t-163 51l-201 33q-120 19 -173.5 58.5t-53.5 111.5q0 93 82 148.5t216 55.5q115 0 206.5 -45t130.5 -119l-47 -33q-34 64 -112.5 103.5t-177.5 39.5q-107 0 -173 -40.5t-66 -106.5q0 -47 42.5 -75.5t136.5 -42.5l198 -32q139 -22 202 -66.5
t63 -121.5q0 -97 -92 -155.5t-245 -58.5z" />
    <glyph glyph-name="scedilla" unicode="&#x15f;" horiz-adv-x="672" 
d="M373 -20h-8l-4 -29q44 -2 70.5 -22.5t26.5 -57.5q0 -36 -25.5 -57.5t-65.5 -21.5q-30 0 -57 16t-38 41l28 19q8 -18 26 -30t40 -12q57 0 57 44q1 23 -17 35.5t-48 12.5h-35l8 64q-117 8 -201.5 60.5t-104.5 128.5l48 24q18 -72 100.5 -118t197.5 -46q95 0 158.5 29.5
t62.5 75.5q0 70 -174 90l-131 13q-103 11 -156 41.5t-53 88.5q1 70 68 112t173 42q92 0 169 -37.5t106 -95.5l-44 -29q-25 49 -89.5 80.5t-141.5 31.5q-80 0 -132.5 -28.5t-53.5 -71.5q0 -35 38 -53.5t122 -28.5l134 -14q110 -13 165 -44t55 -93q1 -72 -76.5 -116
t-197.5 -44z" />
    <glyph glyph-name="Scaron" unicode="&#x160;" horiz-adv-x="801" 
d="M353 790l-199 101l15 30l209 -106l210 106l17 -30l-201 -101h-51zM444 -25q-159 0 -274.5 65.5t-149.5 173.5l50 30q25 -97 128.5 -156t247.5 -59q125 0 200.5 42.5t75.5 111.5q0 54 -51 87t-163 51l-201 33q-120 19 -173.5 58.5t-53.5 111.5q0 93 82 148.5t216 55.5
q115 0 206.5 -45t130.5 -119l-47 -33q-34 64 -112.5 103.5t-177.5 39.5q-107 0 -173 -40.5t-66 -106.5q0 -47 42.5 -75.5t136.5 -42.5l198 -32q139 -22 202 -66.5t63 -121.5q0 -97 -92 -155.5t-245 -58.5z" />
    <glyph glyph-name="scaron" unicode="&#x161;" horiz-adv-x="672" 
d="M298 606l-240 121l16 30l249 -126l250 126l16 -30l-240 -121h-51zM373 -20q-132 0 -229 54t-119 137l48 24q18 -72 100.5 -118t197.5 -46q95 0 158.5 29.5t62.5 75.5q0 70 -174 90l-131 13q-103 11 -156 41.5t-53 88.5q1 70 68 112t173 42q92 0 169 -37.5t106 -95.5
l-44 -29q-25 49 -89.5 80.5t-141.5 31.5q-80 0 -132.5 -28.5t-53.5 -71.5q0 -35 38 -53.5t122 -28.5l134 -14q110 -13 165 -44t55 -93q1 -72 -76.5 -116t-197.5 -44z" />
    <glyph glyph-name="uni0162" unicode="&#x162;" horiz-adv-x="754" 
d="M406 0h-11l-7 -49q44 -2 70.5 -22.5t26.5 -57.5q0 -36 -25.5 -57.5t-65.5 -21.5q-30 0 -57 16t-38 41l28 19q8 -18 26 -30t40 -12q57 0 57 44q1 23 -17 35.5t-48 12.5h-35l10 82h-13v649h-342v54h744v-54h-343v-649z" />
    <glyph glyph-name="uni0163" unicode="&#x163;" horiz-adv-x="618" 
d="M589 120q-21 -59 -75 -97t-121 -43l-4 -29q44 -2 70.5 -22.5t26.5 -57.5q0 -36 -25.5 -57.5t-65.5 -21.5q-30 0 -57 16t-38 41l28 19q8 -18 26 -30t40 -12q57 0 57 44q1 23 -17 35.5t-48 12.5h-35l7 63q-83 5 -127.5 53.5t-43.5 134.5v285h-187v49h186v161l56 14v-175
h335v-49h-335v-283q-1 -68 34.5 -104.5t102.5 -36.5q55 0 100.5 32t61.5 83z" />
    <glyph glyph-name="Tcaron" unicode="&#x164;" horiz-adv-x="754" 
d="M353 790l-199 101l15 30l209 -106l210 106l17 -30l-201 -101h-51zM347 0v649h-342v54h744v-54h-343v-649h-59z" />
    <glyph glyph-name="tcaron" unicode="&#x165;" horiz-adv-x="618" 
d="M341 580l6 28q30 -6 47 9t13 45q-20 -6 -37 6t-17 32q0 16 11 26.5t28 10.5q22 0 35 -20t13 -54q0 -49 -27 -71t-72 -12zM378 -20q-93 0 -142.5 49t-48.5 140v285h-187v49h186v161l56 14v-175h335v-49h-335v-283q-1 -68 34.5 -104.5t102.5 -36.5q55 0 100.5 32t61.5 83
l48 -25q-22 -62 -81 -101t-130 -39z" />
    <glyph glyph-name="Utilde" unicode="&#x168;" 
d="M530 780q-26 0 -50 9.5t-37.5 19.5t-34.5 28q-20 17 -32.5 26.5t-33.5 18t-43 8.5q-44 0 -71.5 -28.5t-27.5 -71.5h-33q0 58 38 95.5t96 37.5q28 0 54 -10.5t38.5 -20.5t35.5 -30q55 -49 102 -49q45 0 73.5 28.5t28.5 72.5h33q0 -58 -39 -96t-97 -38zM417 -25
q-176 0 -276.5 87t-100.5 244v397h59v-397q0 -133 84.5 -204.5t233.5 -71.5t233 71.5t84 204.5v397h59v-397q0 -157 -100.5 -244t-275.5 -87z" />
    <glyph glyph-name="utilde" unicode="&#x169;" horiz-adv-x="720" 
d="M474 590q-26 0 -49.5 9t-37.5 19.5t-35 28.5q-22 19 -32.5 26.5t-32.5 17t-44 9.5q-44 0 -71.5 -28.5t-27.5 -71.5h-33q0 58 38 95.5t96 37.5q27 0 52.5 -10.5t38.5 -20t36 -30.5q19 -16 30.5 -24.5t31.5 -16.5t41 -8q45 0 73.5 28.5t28.5 72.5h33q0 -58 -39 -96t-97 -38
zM319 -20q-134 0 -209 65.5t-75 181.5v276h55v-271q0 -94 62.5 -147t173.5 -53q141 0 220 71t79 197v203h55v-503h-51l-5 146h-1q-32 -78 -112 -122t-192 -44z" />
    <glyph glyph-name="Umacron" unicode="&#x16a;" 
d="M183 794v35h465v-35h-465zM417 -25q-176 0 -276.5 87t-100.5 244v397h59v-397q0 -133 84.5 -204.5t233.5 -71.5t233 71.5t84 204.5v397h59v-397q0 -157 -100.5 -244t-275.5 -87z" />
    <glyph glyph-name="umacron" unicode="&#x16b;" horiz-adv-x="720" 
d="M127 594v35h465v-35h-465zM319 -20q-134 0 -209 65.5t-75 181.5v276h55v-271q0 -94 62.5 -147t173.5 -53q141 0 220 71t79 197v203h55v-503h-51l-5 146h-1q-32 -78 -112 -122t-192 -44z" />
    <glyph glyph-name="Ubreve" unicode="&#x16c;" 
d="M416 790q-88 0 -143 33t-55 91h34q1 -43 46 -66.5t118 -23.5q74 0 120 23.5t45 66.5h34q0 -58 -55 -91t-144 -33zM417 -25q-176 0 -276.5 87t-100.5 244v397h59v-397q0 -133 84.5 -204.5t233.5 -71.5t233 71.5t84 204.5v397h59v-397q0 -157 -100.5 -244t-275.5 -87z" />
    <glyph glyph-name="ubreve" unicode="&#x16d;" horiz-adv-x="720" 
d="M359 596q-104 0 -171 42t-67 106h34q1 -50 58.5 -82t145.5 -32q89 0 147.5 32.5t57.5 81.5h34q0 -65 -67.5 -106.5t-171.5 -41.5zM319 -20q-134 0 -209 65.5t-75 181.5v276h55v-271q0 -94 62.5 -147t173.5 -53q141 0 220 71t79 197v203h55v-503h-51l-5 146h-1
q-32 -78 -112 -122t-192 -44z" />
    <glyph glyph-name="Uring" unicode="&#x16e;" 
d="M417 786q-39 0 -64.5 25t-25.5 64t25 64t65 25q38 0 63 -25t26 -64q0 -39 -25 -64t-64 -25zM416 818q25 0 40.5 16t15.5 41t-15.5 41t-40.5 16q-24 0 -40.5 -16t-16.5 -41t16.5 -41t40.5 -16zM417 -25q-176 0 -276.5 87t-100.5 244v397h59v-397q0 -133 84.5 -204.5
t233.5 -71.5t233 71.5t84 204.5v397h59v-397q0 -157 -100.5 -244t-275.5 -87z" />
    <glyph glyph-name="uring" unicode="&#x16f;" horiz-adv-x="720" 
d="M361 596q-39 0 -64.5 25t-25.5 64t25 64t65 25q38 0 63 -25t26 -64q0 -39 -25 -64t-64 -25zM360 628q25 0 40.5 16t15.5 41t-15.5 41t-40.5 16q-24 0 -40.5 -16t-16.5 -41t16.5 -41t40.5 -16zM319 -20q-134 0 -209 65.5t-75 181.5v276h55v-271q0 -94 62.5 -147t173.5 -53
q141 0 220 71t79 197v203h55v-503h-51l-5 146h-1q-32 -78 -112 -122t-192 -44z" />
    <glyph glyph-name="Uhungarumlaut" unicode="&#x170;" 
d="M291 766l-19 29l174 115l19 -28zM520 766l-19 29l173 115l20 -28zM417 -25q-176 0 -276.5 87t-100.5 244v397h59v-397q0 -133 84.5 -204.5t233.5 -71.5t233 71.5t84 204.5v397h59v-397q0 -157 -100.5 -244t-275.5 -87z" />
    <glyph glyph-name="uhungarumlaut" unicode="&#x171;" horiz-adv-x="720" 
d="M233 594l-18 29l203 136l20 -29zM463 594l-19 29l204 136l20 -29zM319 -20q-134 0 -209 65.5t-75 181.5v276h55v-271q0 -94 62.5 -147t173.5 -53q141 0 220 71t79 197v203h55v-503h-51l-5 146h-1q-32 -78 -112 -122t-192 -44z" />
    <glyph glyph-name="Uogonek" unicode="&#x172;" 
d="M734 703h59v-397q0 -120 -60.5 -200.5t-169.5 -111.5q-102 -39 -146 -64.5t-44 -59.5q1 -20 18.5 -32t47.5 -12q26 0 52.5 13t43.5 34l22 -27q-21 -25 -53.5 -39.5t-65.5 -14.5q-45 0 -72 20.5t-28 54.5q-1 57 102 108h-23q-176 0 -276.5 87t-100.5 244v397h59v-397
q0 -133 84.5 -204.5t233.5 -71.5t233 71.5t84 204.5v397z" />
    <glyph glyph-name="uogonek" unicode="&#x173;" horiz-adv-x="720" 
d="M680 0q-112 -42 -159 -68.5t-47 -61.5q1 -20 18.5 -32t47.5 -12q26 0 52.5 13t43.5 34l22 -27q-21 -25 -53.5 -39.5t-65.5 -14.5q-45 0 -72 20.5t-28 54.5q-1 42 45.5 75t144.5 72l-5 132h-1q-32 -78 -112 -122t-192 -44q-134 0 -209 65.5t-75 181.5v276h55v-271
q0 -94 62.5 -147t173.5 -53q141 0 220 71t79 197v203h55v-503z" />
    <glyph glyph-name="Wcircumflex" unicode="&#x174;" horiz-adv-x="1351" 
d="M465 783l-15 30l199 101h51l201 -101l-17 -30l-210 106zM311 0l-312 703h65l286 -645h1l280 645h87l281 -645h1l286 645h65l-312 -703h-79l-285 647h-1l-284 -647h-79z" />
    <glyph glyph-name="wcircumflex" unicode="&#x175;" horiz-adv-x="1181" 
d="M344 593l-16 30l240 121h51l240 -121l-16 -30l-250 126zM278 0l-276 503h61l252 -452h1l240 452h74l243 -453h1l247 453h60l-270 -503h-73l-245 454h-1l-241 -454h-73z" />
    <glyph glyph-name="Ycircumflex" unicode="&#x176;" horiz-adv-x="754" 
d="M167 783l-15 30l199 101h51l201 -101l-17 -30l-210 106zM348 0v275l-350 428h77l302 -373h1l301 373h75l-347 -428v-275h-59z" />
    <glyph glyph-name="ycircumflex" unicode="&#x177;" horiz-adv-x="726" 
d="M117 593l-16 30l240 121h51l240 -121l-16 -30l-250 126zM329 -230q-116 0 -217.5 38t-148.5 94l34 41q48 -53 138 -87.5t194 -34.5q138 0 220 61.5t82 167.5v77h-1q-32 -77 -107 -122t-172 -45q-138 0 -224 80.5t-86 213.5v249h56v-245q0 -112 71.5 -179.5t185.5 -67.5
q124 0 201 75.5t77 201.5v215h54v-453q0 -130 -97 -205t-260 -75z" />
    <glyph glyph-name="Ydieresis" unicode="&#x178;" horiz-adv-x="754" 
d="M222 809q-19 0 -31.5 12t-12.5 31t12.5 31t31.5 12t31.5 -12t12.5 -31t-12.5 -31t-31.5 -12zM533 809q-19 0 -31.5 12t-12.5 31t12.5 31t31.5 12t31.5 -12t12.5 -31t-12.5 -31t-31.5 -12zM348 0v275l-350 428h77l302 -373h1l301 373h75l-347 -428v-275h-59z" />
    <glyph glyph-name="Zacute" unicode="&#x179;" horiz-adv-x="784" 
d="M397 777l-19 29l174 115l19 -28zM15 0v71l675 578h-665v54h734v-71l-676 -579h686v-53h-754z" />
    <glyph glyph-name="zacute" unicode="&#x17a;" horiz-adv-x="688" 
d="M353 594l-18 29l203 136l20 -29zM20 0v65l566 386h-556v52h628v-66l-567 -386h577v-51h-648z" />
    <glyph glyph-name="Zdotaccent" unicode="&#x17b;" horiz-adv-x="784" 
d="M401 809q-19 0 -31.5 12.5t-12.5 31.5t12.5 31t31.5 12t31.5 -12t12.5 -31t-12.5 -31.5t-31.5 -12.5zM15 0v71l675 578h-665v54h734v-71l-676 -579h686v-53h-754z" />
    <glyph glyph-name="zdotaccent" unicode="&#x17c;" horiz-adv-x="688" 
d="M353 606q-19 0 -31.5 12.5t-12.5 31.5q0 20 12.5 32t31.5 12t31.5 -12.5t12.5 -31.5t-12.5 -31.5t-31.5 -12.5zM20 0v65l566 386h-556v52h628v-66l-567 -386h577v-51h-648z" />
    <glyph glyph-name="Zcaron" unicode="&#x17d;" horiz-adv-x="784" 
d="M376 790l-199 101l15 30l209 -106l210 106l17 -30l-201 -101h-51zM15 0v71l675 578h-665v54h734v-71l-676 -579h686v-53h-754z" />
    <glyph glyph-name="zcaron" unicode="&#x17e;" horiz-adv-x="688" 
d="M328 606l-240 121l16 30l249 -126l250 126l16 -30l-240 -121h-51zM20 0v65l566 386h-556v52h628v-66l-567 -386h577v-51h-648z" />
    <glyph glyph-name="AEacute" unicode="&#x1fc;" horiz-adv-x="1048" 
d="M522 777l-19 29l174 115l19 -28zM-1 0l480 703h539v-53h-451v-268h411v-51h-411v-278h461v-53h-519v151h-337l-104 -151h-69zM204 202h305v444h-1z" />
    <glyph glyph-name="aeacute" unicode="&#x1fd;" horiz-adv-x="1339" 
d="M664 594l-18 29l203 136l20 -29zM309 -20q-127 0 -208 40.5t-81 105.5q0 59 71 101t192 52l302 24q16 2 26 12t10 27q0 56 -66 92.5t-167 36.5q-98 0 -184.5 -33.5t-119.5 -85.5l-36 35q39 59 137.5 97.5t205.5 38.5q101 0 175 -37.5t97 -99.5q31 59 109.5 98t172.5 39
q141 0 231.5 -74.5t90.5 -188.5q0 -21 -1 -33h-583q13 -85 97.5 -139.5t202.5 -54.5q89 0 172.5 32t124.5 81l34 -40q-47 -55 -140 -90.5t-192 -35.5q-112 0 -199.5 46t-122.5 121q-21 -73 -119 -120t-232 -47zM682 277h528q-2 85 -77.5 139.5t-188.5 54.5
q-110 0 -184 -54.5t-78 -139.5zM309 31q137 0 225.5 50.5t88.5 128.5v47l-344 -28q-88 -7 -146 -36t-58 -66q0 -41 66 -68.5t168 -27.5z" />
    <glyph glyph-name="Oslashacute" unicode="&#x1fe;" horiz-adv-x="1030" 
d="M656 893l-174 -116l-19 29l174 115zM721 697q126 -42 197.5 -133t71.5 -213q0 -168 -131 -272t-344 -104q-86 0 -165 19l-68 -128l-30 16l64 122q-129 41 -202.5 132.5t-73.5 214.5q0 168 131.5 272.5t343.5 104.5q94 0 172 -21l59 112l31 -16zM99 351
q0 -106 64.5 -184.5t178.5 -113.5l319 604q-70 17 -146 17q-186 0 -301 -89.5t-115 -233.5zM515 28q186 0 301 89.5t115 233.5q0 105 -63 182.5t-173 113.5l-319 -604q63 -15 139 -15z" />
    <glyph glyph-name="oslashacute" unicode="&#x1ff;" horiz-adv-x="790" 
d="M528 730l-205 -136l-18 29l203 136zM554 501q97 -30 151.5 -95.5t54.5 -154.5q0 -123 -99.5 -197t-265.5 -74q-61 0 -110 10l-122 -230l-30 16l117 222q-103 28 -161.5 94.5t-58.5 158.5q0 123 100 197.5t265 74.5q70 0 125 -13l107 203l31 -16zM85 251q0 -76 50.5 -130
t139.5 -76l220 417q-47 9 -100 9q-140 0 -225 -60t-85 -160zM395 31q140 0 225 60t85 160q0 73 -46.5 126t-129.5 76l-219 -415q36 -7 85 -7z" />
    <glyph glyph-name="uni0218" unicode="&#x218;" horiz-adv-x="801" 
d="M444 -25q-159 0 -274.5 65.5t-149.5 173.5l50 30q25 -97 128.5 -156t247.5 -59q125 0 200.5 42.5t75.5 111.5q0 54 -51 87t-163 51l-201 33q-120 19 -173.5 58.5t-53.5 111.5q0 93 82 148.5t216 55.5q115 0 206.5 -45t130.5 -119l-47 -33q-34 64 -112.5 103.5
t-177.5 39.5q-107 0 -173 -40.5t-66 -106.5q0 -47 42.5 -75.5t136.5 -42.5l198 -32q139 -22 202 -66.5t63 -121.5q0 -97 -92 -155.5t-245 -58.5zM369 -240l6 29q30 -6 47 8.5t13 44.5q-20 -6 -37 6.5t-17 32.5q0 15 11.5 25.5t27.5 10.5q22 0 35 -20t13 -54q0 -49 -27 -70.5
t-72 -12.5z" />
    <glyph glyph-name="uni0219" unicode="&#x219;" horiz-adv-x="672" 
d="M373 -20q-132 0 -229 54t-119 137l48 24q18 -72 100.5 -118t197.5 -46q95 0 158.5 29.5t62.5 75.5q0 70 -174 90l-131 13q-103 11 -156 41.5t-53 88.5q1 70 68 112t173 42q92 0 169 -37.5t106 -95.5l-44 -29q-25 49 -89.5 80.5t-141.5 31.5q-80 0 -132.5 -28.5
t-53.5 -71.5q0 -35 38 -53.5t122 -28.5l134 -14q110 -13 165 -44t55 -93q1 -72 -76.5 -116t-197.5 -44zM299 -240l6 29q30 -6 47 8.5t13 44.5q-20 -6 -37 6.5t-17 32.5q0 15 11.5 25.5t27.5 10.5q22 0 35 -20t13 -54q0 -49 -27 -70.5t-72 -12.5z" />
    <glyph glyph-name="uni021A" unicode="&#x21a;" horiz-adv-x="754" 
d="M347 0v649h-342v54h744v-54h-343v-649h-59zM327 -240l6 29q30 -6 47 8.5t13 44.5q-20 -6 -37 6.5t-17 32.5q0 15 11.5 25.5t27.5 10.5q22 0 35 -20t13 -54q0 -49 -27 -70.5t-72 -12.5z" />
    <glyph glyph-name="uni021B" unicode="&#x21b;" horiz-adv-x="618" 
d="M378 -20q-93 0 -142.5 49t-48.5 140v285h-187v49h186v161l56 14v-175h335v-49h-335v-283q-1 -68 34.5 -104.5t102.5 -36.5q55 0 100.5 32t61.5 83l48 -25q-22 -62 -81 -101t-130 -39zM328 -240l6 29q30 -6 47 8.5t13 44.5q-20 -6 -37 6.5t-17 32.5q0 15 11.5 25.5
t27.5 10.5q22 0 35 -20t13 -54q0 -49 -27 -70.5t-72 -12.5z" />
    <glyph glyph-name="uni0237" unicode="&#x237;" horiz-adv-x="147" 
d="M-56 -230q-68 0 -113 24l11 50q46 -23 100 -23q50 0 79.5 32t29.5 85v565h55v-568q0 -76 -43.5 -120.5t-118.5 -44.5z" />
    <glyph glyph-name="circumflex" unicode="&#x2c6;" horiz-adv-x="652" 
d="M76 593l-16 30l240 121h51l240 -121l-16 -30l-250 126z" />
    <glyph glyph-name="caron" unicode="&#x2c7;" horiz-adv-x="652" 
d="M300 606l-240 121l16 30l249 -126l250 126l16 -30l-240 -121h-51z" />
    <glyph glyph-name="breve" unicode="&#x2d8;" horiz-adv-x="598" 
d="M299 596q-104 0 -171 42t-67 106h34q1 -50 58.5 -82t145.5 -32q89 0 147.5 32.5t57.5 81.5h34q0 -65 -67.5 -106.5t-171.5 -41.5z" />
    <glyph glyph-name="dotaccent" unicode="&#x2d9;" horiz-adv-x="209" 
d="M105 606q-19 0 -31.5 12.5t-12.5 31.5q0 20 12.5 32t31.5 12t31.5 -12.5t12.5 -31.5t-12.5 -31.5t-31.5 -12.5z" />
    <glyph glyph-name="ring" unicode="&#x2da;" horiz-adv-x="300" 
d="M151 596q-39 0 -64.5 25t-25.5 64t25 64t65 25q38 0 63 -25t26 -64q0 -39 -25 -64t-64 -25zM150 628q25 0 40.5 16t15.5 41t-15.5 41t-40.5 16q-24 0 -40.5 -16t-16.5 -41t16.5 -41t40.5 -16z" />
    <glyph glyph-name="ogonek" unicode="&#x2db;" horiz-adv-x="378" 
d="M176 -208q-45 0 -72 20.5t-28 54.5q-1 44 51.5 79t164.5 78l25 -24q-112 -42 -159 -68.5t-47 -61.5q1 -20 18.5 -32t47.5 -12q26 0 52.5 13t43.5 34l22 -27q-21 -25 -53.5 -39.5t-65.5 -14.5z" />
    <glyph glyph-name="tilde" unicode="&#x2dc;" horiz-adv-x="619" 
d="M423 590q-26 0 -49.5 9t-37.5 19.5t-35 28.5q-22 19 -32.5 26.5t-32.5 17t-44 9.5q-44 0 -71.5 -28.5t-27.5 -71.5h-33q0 58 38 95.5t96 37.5q27 0 52.5 -10.5t38.5 -20t36 -30.5q19 -16 30.5 -24.5t31.5 -16.5t41 -8q45 0 73.5 28.5t28.5 72.5h33q0 -58 -39 -96t-97 -38
z" />
    <glyph glyph-name="hungarumlaut" unicode="&#x2dd;" horiz-adv-x="574" 
d="M79 594l-18 29l203 136l20 -29zM309 594l-19 29l204 136l20 -29z" />
    <glyph glyph-name="Wgrave" unicode="&#x1e80;" horiz-adv-x="1351" 
d="M680 777l-174 116l20 28l173 -115zM311 0l-312 703h65l286 -645h1l280 645h87l281 -645h1l286 645h65l-312 -703h-79l-285 647h-1l-284 -647h-79z" />
    <glyph glyph-name="wgrave" unicode="&#x1e81;" horiz-adv-x="1181" 
d="M599 594l-205 136l20 29l203 -136zM278 0l-276 503h61l252 -452h1l240 452h74l243 -453h1l247 453h60l-270 -503h-73l-245 454h-1l-241 -454h-73z" />
    <glyph glyph-name="Wacute" unicode="&#x1e82;" horiz-adv-x="1351" 
d="M671 777l-19 29l174 115l19 -28zM311 0l-312 703h65l286 -645h1l280 645h87l281 -645h1l286 645h65l-312 -703h-79l-285 647h-1l-284 -647h-79z" />
    <glyph glyph-name="wacute" unicode="&#x1e83;" horiz-adv-x="1181" 
d="M592 594l-18 29l203 136l20 -29zM278 0l-276 503h61l252 -452h1l240 452h74l243 -453h1l247 453h60l-270 -503h-73l-245 454h-1l-241 -454h-73z" />
    <glyph glyph-name="Wdieresis" unicode="&#x1e84;" horiz-adv-x="1351" 
d="M520 809q-19 0 -31.5 12t-12.5 31t12.5 31t31.5 12t31.5 -12t12.5 -31t-12.5 -31t-31.5 -12zM831 809q-19 0 -31.5 12t-12.5 31t12.5 31t31.5 12t31.5 -12t12.5 -31t-12.5 -31t-31.5 -12zM311 0l-312 703h65l286 -645h1l280 645h87l281 -645h1l286 645h65l-312 -703h-79
l-285 647h-1l-284 -647h-79z" />
    <glyph glyph-name="wdieresis" unicode="&#x1e85;" horiz-adv-x="1181" 
d="M435 607q-19 0 -31.5 12.5t-12.5 31.5t12.5 31t31.5 12t31.5 -12t12.5 -31t-12.5 -31.5t-31.5 -12.5zM749 607q-19 0 -31 12t-12 32q0 19 12 31t31 12t31.5 -12t12.5 -31t-12.5 -31.5t-31.5 -12.5zM278 0l-276 503h61l252 -452h1l240 452h74l243 -453h1l247 453h60
l-270 -503h-73l-245 454h-1l-241 -454h-73z" />
    <glyph glyph-name="uni1E9E" unicode="&#x1e9e;" horiz-adv-x="753" 
d="M542 275q101 -20 146 -52.5t45 -87.5q0 -69 -68.5 -109t-176.5 -40q-126 0 -209 47.5t-97 126.5l53 22q10 -66 78.5 -106t173.5 -40q84 0 138 26t54 71q0 35 -35 56.5t-111 35.5l-153 29q-79 14 -115 40.5t-36 71.5q0 132 386 150q9 21 9 43q0 53 -63.5 84.5t-170.5 31.5
q-135 0 -213 -48.5t-78 -138.5v-488h-59v492q0 113 94.5 175t257.5 62q133 0 211.5 -46.5t78.5 -125.5q0 -48 -22 -87q-132 -3 -219 -18.5t-121.5 -36t-34.5 -47.5q0 -44 106 -64z" />
    <glyph glyph-name="Ygrave" unicode="&#x1ef2;" horiz-adv-x="754" 
d="M382 777l-174 116l20 28l173 -115zM348 0v275l-350 428h77l302 -373h1l301 373h75l-347 -428v-275h-59z" />
    <glyph glyph-name="ygrave" unicode="&#x1ef3;" horiz-adv-x="726" 
d="M372 594l-205 136l20 29l203 -136zM329 -230q-116 0 -217.5 38t-148.5 94l34 41q48 -53 138 -87.5t194 -34.5q138 0 220 61.5t82 167.5v77h-1q-32 -77 -107 -122t-172 -45q-138 0 -224 80.5t-86 213.5v249h56v-245q0 -112 71.5 -179.5t185.5 -67.5q124 0 201 75.5
t77 201.5v215h54v-453q0 -130 -97 -205t-260 -75z" />
    <glyph glyph-name="endash" unicode="&#x2013;" horiz-adv-x="839" 
d="M56 251v34h727v-34h-727z" />
    <glyph glyph-name="emdash" unicode="&#x2014;" horiz-adv-x="1209" 
d="M56 251v34h1098v-34h-1098z" />
    <glyph glyph-name="quoteleft" unicode="&#x2018;" horiz-adv-x="187" 
d="M152 719l-8 -29q-34 9 -56 -14.5t-19 -64.5q25 8 42.5 -5t16.5 -35q0 -18 -12 -30.5t-30 -12.5q-50 0 -50 81q0 62 32 92.5t84 17.5z" />
    <glyph glyph-name="quoteright" unicode="&#x2019;" horiz-adv-x="187" 
d="M36 532l8 29q34 -9 56 14.5t18 64.5q-25 -8 -42 4.5t-17 35.5q0 18 12 30.5t31 12.5q50 0 50 -81q0 -61 -32.5 -92t-83.5 -18z" />
    <glyph glyph-name="quotesinglbase" unicode="&#x201a;" horiz-adv-x="187" 
d="M36 -115l8 29q34 -9 56 14.5t18 64.5q-25 -8 -42 4.5t-17 35.5q0 18 12 30.5t31 12.5q50 0 50 -81q0 -61 -32.5 -92t-83.5 -18z" />
    <glyph glyph-name="quotedblleft" unicode="&#x201c;" horiz-adv-x="323" 
d="M152 719l-8 -29q-34 9 -56 -14.5t-19 -64.5q25 8 42.5 -5t16.5 -35q0 -18 -12 -30.5t-30 -12.5q-50 0 -50 81q0 62 32 92.5t84 17.5zM287 719l-8 -29q-34 9 -56 -14.5t-18 -64.5q25 8 42 -4.5t17 -35.5q0 -18 -12 -30.5t-31 -12.5q-50 0 -50 81q0 61 32.5 92t83.5 18z
" />
    <glyph glyph-name="quotedblright" unicode="&#x201d;" horiz-adv-x="323" 
d="M36 532l8 29q34 -9 56 14.5t18 64.5q-25 -8 -42 4.5t-17 35.5q0 18 12 30.5t31 12.5q50 0 50 -81q0 -61 -32.5 -92t-83.5 -18zM171 532l8 29q34 -9 56.5 14.5t18.5 64.5q-25 -8 -42.5 5t-16.5 35q0 18 12 30.5t30 12.5q50 0 50 -81q0 -62 -32 -92.5t-84 -17.5z" />
    <glyph glyph-name="quotedblbase" unicode="&#x201e;" horiz-adv-x="323" 
d="M36 -115l8 29q34 -9 56 14.5t18 64.5q-25 -8 -42 4.5t-17 35.5q0 18 12 30.5t31 12.5q50 0 50 -81q0 -61 -32.5 -92t-83.5 -18zM171 -115l8 29q34 -9 56.5 14.5t18.5 64.5q-25 -8 -42.5 5t-16.5 35q0 18 12 30.5t30 12.5q50 0 50 -81q0 -62 -32 -92.5t-84 -17.5z" />
    <glyph glyph-name="bullet" unicode="&#x2022;" horiz-adv-x="237" 
d="M118 229q-36 0 -59 22.5t-23 58.5t23 58.5t59 22.5t59.5 -23t23.5 -58t-23.5 -58t-59.5 -23z" />
    <glyph glyph-name="ellipsis" unicode="&#x2026;" horiz-adv-x="507" 
d="M80 -11q-20 0 -32 12.5t-12 31.5t12.5 31t31.5 12t31.5 -12t12.5 -31t-12 -31.5t-32 -12.5zM253 -11q-19 0 -31.5 12.5t-12.5 31.5t12.5 31t31.5 12q20 0 32.5 -12t12.5 -31t-12.5 -31.5t-32.5 -12.5zM427 -11q-19 0 -31.5 12.5t-12.5 31.5t12.5 31t31.5 12
q20 0 32.5 -12t12.5 -31t-12.5 -31.5t-32.5 -12.5z" />
    <glyph glyph-name="perthousand" unicode="&#x2030;" horiz-adv-x="1458" 
d="M247 -10l-29 19l509 734l28 -19zM230 338q-87 0 -143.5 56.5t-56.5 143.5t56.5 143.5t143.5 56.5q86 0 142.5 -56.5t56.5 -143.5t-56.5 -143.5t-142.5 -56.5zM231 390q64 0 105.5 42t41.5 106q0 65 -41.5 107t-105.5 42q-66 0 -108 -42t-42 -107q0 -64 42.5 -106
t107.5 -42zM738 -12q-87 0 -143.5 56.5t-56.5 143.5q1 87 57.5 143.5t142.5 56.5t142.5 -56.5t56.5 -143.5t-56 -143.5t-143 -56.5zM1229 -12q-87 0 -143.5 56.5t-56.5 143.5t57 143.5t143 56.5t142.5 -56.5t56.5 -143.5t-56 -143.5t-143 -56.5zM739 40q64 0 106 42t42 106
t-42 106.5t-106 42.5q-65 0 -107.5 -42t-42.5 -107q0 -64 42.5 -106t107.5 -42zM1230 40q64 0 106 42t42 106q0 65 -42 107t-106 42q-65 0 -107.5 -42t-42.5 -107q0 -64 42.5 -106t107.5 -42z" />
    <glyph glyph-name="guilsinglleft" unicode="&#x2039;" horiz-adv-x="393" 
d="M341 -10l-311 261l310 262l23 -27l-280 -235l279 -235z" />
    <glyph glyph-name="guilsinglright" unicode="&#x203a;" horiz-adv-x="393" 
d="M53 -10l-21 26l278 235l-280 235l23 27l310 -262z" />
    <glyph glyph-name="lira" unicode="&#x20a4;" horiz-adv-x="744" 
d="M30 0v58q49 15 79.5 73t30.5 137h-101v34h101v61h-101v34h101v128q0 88 77 145t199 57q124 0 207 -58.5t91 -150.5l-54 -9q-7 74 -74.5 121t-169.5 47q-98 0 -159 -43t-61 -109v-128h460v-34h-460v-61h460v-34h-460q0 -74 -29 -134t-75 -83v-1h621v-50h-683z" />
    <glyph glyph-name="Euro" unicode="&#x20ac;" horiz-adv-x="1079" 
d="M989 281l55 -19q-42 -132 -162 -209.5t-281 -77.5q-189 0 -309.5 81.5t-146.5 223.5h-115v34h111q-2 24 -2 37q0 15 2 45h-111v34h116q26 139 138 218.5t285 79.5q140 0 248 -66t150 -178l-53 -22q-34 97 -127 154.5t-217 57.5q-146 0 -242 -65t-122 -179h564v-34h-569
q-3 -22 -3 -45q0 -13 2 -37h570v-34h-565q26 -118 130.5 -185t265.5 -67q142 0 247.5 68.5t140.5 184.5z" />
    <glyph glyph-name="trademark" unicode="&#x2122;" horiz-adv-x="1196" 
d="M210 280v376h-205v47h459l1 -47h-205v-376h-50zM513 280l-1 423h77l240 -375l240 375h77v-423h-50v373l-239 -373h-55l-239 373v-373h-50z" />
    <glyph glyph-name="arrowleft" unicode="&#x2190;" horiz-adv-x="596" 
d="M260 32l-220 229l220 229l25 -24l-181 -188h452v-34h-452l181 -188z" />
    <glyph glyph-name="arrowup" unicode="&#x2191;" horiz-adv-x="538" 
d="M40 296l229 220l229 -220l-24 -25l-188 181v-452h-34v452l-188 -181z" />
    <glyph glyph-name="arrowright" unicode="&#x2192;" horiz-adv-x="596" 
d="M336 32l-25 24l181 188h-452v34h452l-181 188l25 24l220 -229z" />
    <glyph glyph-name="arrowdown" unicode="&#x2193;" horiz-adv-x="538" 
d="M40 206l24 25l188 -180v452h34v-452l188 180l24 -25l-229 -220z" />
    <glyph glyph-name="arrowboth" unicode="&#x2194;" horiz-adv-x="924" 
d="M664 490l220 -229l-220 -229l-25 24l181 188h-716l181 -188l-25 -24l-220 229l220 229l25 -24l-181 -188h716l-181 188z" />
    <glyph glyph-name="arrowupdn" unicode="&#x2195;" horiz-adv-x="538" 
d="M286 -79l188 180l24 -25l-229 -220l-229 220l24 25l188 -180v661l-188 -181l-24 25l229 220l229 -220l-24 -25l-188 181v-661z" />
    <glyph glyph-name="uni2196" unicode="&#x2196;" horiz-adv-x="474" 
d="M374 446l1 -35l-261 -5l320 -320l-24 -24l-320 320l-5 -261l-35 1l7 317z" />
    <glyph glyph-name="uni2197" unicode="&#x2197;" horiz-adv-x="474" 
d="M100 446l318 -7l6 -317l-34 -1l-6 261l-319 -320l-25 24l320 320l-261 5z" />
    <glyph glyph-name="uni2198" unicode="&#x2198;" horiz-adv-x="474" 
d="M424 398l-7 -318l-317 -6l-1 34l261 5l-320 320l25 24l319 -320l5 261h35z" />
    <glyph glyph-name="uni2199" unicode="&#x2199;" horiz-adv-x="474" 
d="M50 398h35l5 -261l320 320l24 -24l-320 -320l261 -5l-1 -34l-317 6z" />
    <glyph glyph-name="minus" unicode="&#x2212;" horiz-adv-x="721" 
d="M56 348v52h610v-52h-610z" />
    <glyph glyph-name="notequal" unicode="&#x2260;" horiz-adv-x="781" 
d="M726 412h-267l-75 -128h342v-51h-372l-142 -244l-30 16l133 228h-259v51h289l74 128h-363v52h393l132 226l31 -16l-123 -210h237v-52z" />
    <glyph glyph-name="lessequal" unicode="&#x2264;" horiz-adv-x="658" 
d="M590 203l-534 162v71l534 162l13 -50l-499 -147l498 -148zM56 103v34h547v-34h-547z" />
    <glyph glyph-name="greaterequal" unicode="&#x2265;" horiz-adv-x="658" 
d="M68 203l-12 50l498 148l-498 147l13 50l533 -162v-71zM603 103h-547v34h547v-34z" />
    <glyph glyph-name="uniF6C3" unicode="&#xf6c3;" horiz-adv-x="0" 
d="M-159 -240l6 29q30 -6 47 8.5t13 44.5q-20 -6 -37 6.5t-17 32.5q0 15 11.5 25.5t27.5 10.5q22 0 35 -20t13 -54q0 -49 -27 -70.5t-72 -12.5z" />
    <glyph glyph-name="G.alt1" horiz-adv-x="1024" 
d="M519 -25q-208 0 -343.5 106t-135.5 270t126.5 270.5t322.5 106.5q135 0 245 -61t139 -154l-55 -16q-25 77 -119 127t-210 50q-170 1 -280 -90t-110 -233q0 -140 119 -231.5t301 -91.5q173 0 289 86.5t116 218.5h-596v52h655q1 -9 1 -26q0 -168 -129 -276t-336 -108z" />
    <glyph glyph-name="K.alt1" horiz-adv-x="703" 
d="M50 0v703h59v-312h1l492 312h103l-532 -336l540 -367h-100l-503 344h-1v-344h-59z" />
    <glyph glyph-name="R.alt1" horiz-adv-x="835" 
d="M50 0v703h502q110 0 179 -55t69 -144q0 -60 -36.5 -106.5t-99.5 -67.5v-1q51 -10 80.5 -46t29.5 -87v-196h-59v189q0 49 -34 80t-87 31h-485v-300h-59zM108 354h440q85 0 138.5 41t53.5 106q0 66 -53.5 107t-138.5 41h-440v-295z" />
    <glyph glyph-name="R.alt2" horiz-adv-x="829" 
d="M50 0v703h502q109 0 178 -56t69 -144q0 -79 -57.5 -132.5t-150.5 -61.5l203 -309h-69l-195 300h-421v-300h-59zM108 354h440q85 0 138.5 41t53.5 106q0 66 -53.5 107t-138.5 41h-440v-295z" />
    <glyph glyph-name="a.alt1" horiz-adv-x="717" 
d="M285 -20q-265 0 -265 143q0 140 297 162l276 22q35 3 35 34q0 55 -68.5 92.5t-173.5 37.5q-101 0 -190 -34t-123 -86l-36 35q39 59 138 98t210 39q127 0 212 -51t85 -136v-336h-51l-4 115h-1q-35 -59 -130.5 -97t-210.5 -38zM287 29q147 0 243.5 55.5t96.5 140.5v36
l-312 -24q-240 -19 -240 -111q0 -97 212 -97z" />
    <glyph glyph-name="a.alt2" horiz-adv-x="799" 
d="M392 -20q-160 0 -261 75.5t-101 195.5q0 121 100.5 196.5t259.5 75.5q110 0 194 -40.5t119 -107.5h1l4 128h51v-503h-50l-4 128h-1q-34 -67 -118.5 -107.5t-193.5 -40.5zM395 31q137 0 223.5 61.5t86.5 158.5t-86.5 158.5t-223.5 61.5t-223.5 -61.5t-86.5 -158.5
t87 -158.5t223 -61.5z" />
    <glyph glyph-name="k.alt1" horiz-adv-x="566" 
d="M40 0v733h55v-446h1l359 216h102l-402 -237l411 -266h-101l-369 244h-1v-244h-55z" />
    <glyph glyph-name="u.alt1" horiz-adv-x="715" 
d="M357 -20q-155 0 -238.5 71t-83.5 203v249h55v-249q0 -107 69.5 -165t198.5 -58t198 58t69 165v249h55v-249q0 -132 -84 -203t-239 -71z" />
    <glyph glyph-name="y.alt1" horiz-adv-x="691" 
d="M163 -210l180 268l-344 445h65l308 -392h1l257 392h61l-466 -713h-62z" />
    <glyph glyph-name="agrave.alt1" horiz-adv-x="717" 
d="M393 594l-205 136l20 29l203 -136zM285 -20q-265 0 -265 143q0 140 297 162l276 22q35 3 35 34q0 55 -68.5 92.5t-173.5 37.5q-101 0 -190 -34t-123 -86l-36 35q39 59 138 98t210 39q127 0 212 -51t85 -136v-336h-51l-4 115h-1q-35 -59 -130.5 -97t-210.5 -38zM287 29
q147 0 243.5 55.5t96.5 140.5v36l-312 -24q-240 -19 -240 -111q0 -97 212 -97z" />
    <glyph glyph-name="agrave.alt2" horiz-adv-x="799" 
d="M401 594l-205 136l20 29l203 -136zM392 -20q-160 0 -261 75.5t-101 195.5q0 121 100.5 196.5t259.5 75.5q110 0 194 -40.5t119 -107.5h1l4 128h51v-503h-50l-4 128h-1q-34 -67 -118.5 -107.5t-193.5 -40.5zM395 31q137 0 223.5 61.5t86.5 158.5t-86.5 158.5t-223.5 61.5
t-223.5 -61.5t-86.5 -158.5t87 -158.5t223 -61.5z" />
    <glyph glyph-name="aacute.alt1" horiz-adv-x="717" 
d="M386 594l-18 29l203 136l20 -29zM285 -20q-265 0 -265 143q0 140 297 162l276 22q35 3 35 34q0 55 -68.5 92.5t-173.5 37.5q-101 0 -190 -34t-123 -86l-36 35q39 59 138 98t210 39q127 0 212 -51t85 -136v-336h-51l-4 115h-1q-35 -59 -130.5 -97t-210.5 -38zM287 29
q147 0 243.5 55.5t96.5 140.5v36l-312 -24q-240 -19 -240 -111q0 -97 212 -97z" />
    <glyph glyph-name="aacute.alt2" horiz-adv-x="799" 
d="M394 594l-18 29l203 136l20 -29zM392 -20q-160 0 -261 75.5t-101 195.5q0 121 100.5 196.5t259.5 75.5q110 0 194 -40.5t119 -107.5h1l4 128h51v-503h-50l-4 128h-1q-34 -67 -118.5 -107.5t-193.5 -40.5zM395 31q137 0 223.5 61.5t86.5 158.5t-86.5 158.5t-223.5 61.5
t-223.5 -61.5t-86.5 -158.5t87 -158.5t223 -61.5z" />
    <glyph glyph-name="atilde.alt1" horiz-adv-x="717" 
d="M501 590q-26 0 -49.5 9t-37.5 19.5t-35 28.5q-22 19 -32.5 26.5t-32.5 17t-44 9.5q-44 0 -71.5 -28.5t-27.5 -71.5h-33q0 58 38 95.5t96 37.5q27 0 52.5 -10.5t38.5 -20t36 -30.5q19 -16 30.5 -24.5t31.5 -16.5t41 -8q45 0 73.5 28.5t28.5 72.5h33q0 -58 -39 -96t-97 -38
zM285 -20q-265 0 -265 143q0 140 297 162l276 22q35 3 35 34q0 55 -68.5 92.5t-173.5 37.5q-101 0 -190 -34t-123 -86l-36 35q39 59 138 98t210 39q127 0 212 -51t85 -136v-336h-51l-4 115h-1q-35 -59 -130.5 -97t-210.5 -38zM287 29q147 0 243.5 55.5t96.5 140.5v36
l-312 -24q-240 -19 -240 -111q0 -97 212 -97z" />
    <glyph glyph-name="atilde.alt2" horiz-adv-x="799" 
d="M509 590q-26 0 -49.5 9t-37.5 19.5t-35 28.5q-22 19 -32.5 26.5t-32.5 17t-44 9.5q-44 0 -71.5 -28.5t-27.5 -71.5h-33q0 58 38 95.5t96 37.5q27 0 52.5 -10.5t38.5 -20t36 -30.5q19 -16 30.5 -24.5t31.5 -16.5t41 -8q45 0 73.5 28.5t28.5 72.5h33q0 -58 -39 -96t-97 -38
zM392 -20q-160 0 -261 75.5t-101 195.5q0 121 100.5 196.5t259.5 75.5q110 0 194 -40.5t119 -107.5h1l4 128h51v-503h-50l-4 128h-1q-34 -67 -118.5 -107.5t-193.5 -40.5zM395 31q137 0 223.5 61.5t86.5 158.5t-86.5 158.5t-223.5 61.5t-223.5 -61.5t-86.5 -158.5t87 -158.5
t223 -61.5z" />
    <glyph glyph-name="adieresis.alt1" horiz-adv-x="717" 
d="M229 607q-19 0 -31.5 12.5t-12.5 31.5t12.5 31t31.5 12t31.5 -12t12.5 -31t-12.5 -31.5t-31.5 -12.5zM543 607q-19 0 -31 12t-12 32q0 19 12 31t31 12t31.5 -12t12.5 -31t-12.5 -31.5t-31.5 -12.5zM285 -20q-265 0 -265 143q0 140 297 162l276 22q35 3 35 34
q0 55 -68.5 92.5t-173.5 37.5q-101 0 -190 -34t-123 -86l-36 35q39 59 138 98t210 39q127 0 212 -51t85 -136v-336h-51l-4 115h-1q-35 -59 -130.5 -97t-210.5 -38zM287 29q147 0 243.5 55.5t96.5 140.5v36l-312 -24q-240 -19 -240 -111q0 -97 212 -97z" />
    <glyph glyph-name="adieresis.alt2" horiz-adv-x="799" 
d="M238 607q-20 0 -32 12.5t-12 31.5t12.5 31t31.5 12t31.5 -12t12.5 -31t-12 -31.5t-32 -12.5zM552 607q-19 0 -31 12t-12 32q0 19 12 31t31 12t31.5 -12t12.5 -31t-12 -31.5t-32 -12.5zM392 -20q-160 0 -261 75.5t-101 195.5q0 121 100.5 196.5t259.5 75.5
q110 0 194 -40.5t119 -107.5h1l4 128h51v-503h-50l-4 128h-1q-34 -67 -118.5 -107.5t-193.5 -40.5zM395 31q137 0 223.5 61.5t86.5 158.5t-86.5 158.5t-223.5 61.5t-223.5 -61.5t-86.5 -158.5t87 -158.5t223 -61.5z" />
    <glyph glyph-name="aring.alt1" horiz-adv-x="717" 
d="M388 596q-39 0 -64.5 25t-25.5 64t25 64t65 25q38 0 63 -25t26 -64q0 -39 -25 -64t-64 -25zM387 628q25 0 40.5 16t15.5 41t-15.5 41t-40.5 16q-24 0 -40.5 -16t-16.5 -41t16.5 -41t40.5 -16zM285 -20q-265 0 -265 143q0 140 297 162l276 22q35 3 35 34q0 55 -68.5 92.5
t-173.5 37.5q-101 0 -190 -34t-123 -86l-36 35q39 59 138 98t210 39q127 0 212 -51t85 -136v-336h-51l-4 115h-1q-35 -59 -130.5 -97t-210.5 -38zM287 29q147 0 243.5 55.5t96.5 140.5v36l-312 -24q-240 -19 -240 -111q0 -97 212 -97z" />
    <glyph glyph-name="aring.alt2" horiz-adv-x="799" 
d="M396 596q-39 0 -64.5 25t-25.5 64t25 64t65 25q38 0 63 -25t26 -64q0 -39 -25 -64t-64 -25zM395 628q25 0 40.5 16t15.5 41t-15.5 41t-40.5 16q-24 0 -40.5 -16t-16.5 -41t16.5 -41t40.5 -16zM392 -20q-160 0 -261 75.5t-101 195.5q0 121 100.5 196.5t259.5 75.5
q110 0 194 -40.5t119 -107.5h1l4 128h51v-503h-50l-4 128h-1q-34 -67 -118.5 -107.5t-193.5 -40.5zM395 31q137 0 223.5 61.5t86.5 158.5t-86.5 158.5t-223.5 61.5t-223.5 -61.5t-86.5 -158.5t87 -158.5t223 -61.5z" />
    <glyph glyph-name="amacron.alt1" horiz-adv-x="717" 
d="M154 594v35h465v-35h-465zM285 -20q-265 0 -265 143q0 140 297 162l276 22q35 3 35 34q0 55 -68.5 92.5t-173.5 37.5q-101 0 -190 -34t-123 -86l-36 35q39 59 138 98t210 39q127 0 212 -51t85 -136v-336h-51l-4 115h-1q-35 -59 -130.5 -97t-210.5 -38zM287 29
q147 0 243.5 55.5t96.5 140.5v36l-312 -24q-240 -19 -240 -111q0 -97 212 -97z" />
    <glyph glyph-name="amacron.alt2" horiz-adv-x="799" 
d="M162 594v35h465v-35h-465zM392 -20q-160 0 -261 75.5t-101 195.5q0 121 100.5 196.5t259.5 75.5q110 0 194 -40.5t119 -107.5h1l4 128h51v-503h-50l-4 128h-1q-34 -67 -118.5 -107.5t-193.5 -40.5zM395 31q137 0 223.5 61.5t86.5 158.5t-86.5 158.5t-223.5 61.5
t-223.5 -61.5t-86.5 -158.5t87 -158.5t223 -61.5z" />
    <glyph glyph-name="abreve.alt1" horiz-adv-x="717" 
d="M386 596q-104 0 -171 42t-67 106h34q1 -50 58.5 -82t145.5 -32q89 0 147.5 32.5t57.5 81.5h34q0 -65 -67.5 -106.5t-171.5 -41.5zM285 -20q-265 0 -265 143q0 140 297 162l276 22q35 3 35 34q0 55 -68.5 92.5t-173.5 37.5q-101 0 -190 -34t-123 -86l-36 35q39 59 138 98
t210 39q127 0 212 -51t85 -136v-336h-51l-4 115h-1q-35 -59 -130.5 -97t-210.5 -38zM287 29q147 0 243.5 55.5t96.5 140.5v36l-312 -24q-240 -19 -240 -111q0 -97 212 -97z" />
    <glyph glyph-name="abreve.alt2" horiz-adv-x="799" 
d="M394 596q-104 0 -171 42t-67 106h34q1 -50 58.5 -82t145.5 -32q89 0 147.5 32.5t57.5 81.5h34q0 -65 -67.5 -106.5t-171.5 -41.5zM392 -20q-160 0 -261 75.5t-101 195.5q0 121 100.5 196.5t259.5 75.5q110 0 194 -40.5t119 -107.5h1l4 128h51v-503h-50l-4 128h-1
q-34 -67 -118.5 -107.5t-193.5 -40.5zM395 31q137 0 223.5 61.5t86.5 158.5t-86.5 158.5t-223.5 61.5t-223.5 -61.5t-86.5 -158.5t87 -158.5t223 -61.5z" />
    <glyph glyph-name="aogonek.alt1" horiz-adv-x="717" 
d="M682 0q-112 -42 -159 -68.5t-47 -61.5q1 -20 18.5 -32t47.5 -12q26 0 52.5 13t43.5 34l22 -27q-21 -25 -53.5 -39.5t-65.5 -14.5q-45 0 -72 20.5t-28 54.5q-1 42 45.5 75t144.5 72l-4 101h-1q-35 -59 -130.5 -97t-210.5 -38q-265 0 -265 143q0 140 297 162l276 22
q35 3 35 34q0 55 -68.5 92.5t-173.5 37.5q-101 0 -190 -34t-123 -86l-36 35q39 59 138 98t210 39q127 0 212 -51t85 -136v-336zM627 225v36l-312 -24q-240 -19 -240 -111q0 -97 212 -97q147 0 243.5 55.5t96.5 140.5z" />
    <glyph glyph-name="aogonek.alt2" horiz-adv-x="799" 
d="M759 0q-112 -42 -159 -68.5t-47 -61.5q1 -20 18.5 -32t47.5 -12q26 0 52.5 13t43.5 34l22 -27q-21 -25 -53.5 -39.5t-65.5 -14.5q-45 0 -72 20.5t-28 54.5q-1 42 46 75t145 72l-4 114h-1q-34 -67 -118.5 -107.5t-193.5 -40.5q-160 0 -261 75.5t-101 195.5
q0 121 100.5 196.5t259.5 75.5q110 0 194 -40.5t119 -107.5h1l4 128h51v-503zM395 31q137 0 223.5 61.5t86.5 158.5t-86.5 158.5t-223.5 61.5t-223.5 -61.5t-86.5 -158.5t87 -158.5t223 -61.5z" />
    <glyph glyph-name="acircumflex.alt1" horiz-adv-x="717" 
d="M138 593l-16 30l240 121h51l240 -121l-16 -30l-250 126zM285 -20q-265 0 -265 143q0 140 297 162l276 22q35 3 35 34q0 55 -68.5 92.5t-173.5 37.5q-101 0 -190 -34t-123 -86l-36 35q39 59 138 98t210 39q127 0 212 -51t85 -136v-336h-51l-4 115h-1q-35 -59 -130.5 -97
t-210.5 -38zM287 29q147 0 243.5 55.5t96.5 140.5v36l-312 -24q-240 -19 -240 -111q0 -97 212 -97z" />
    <glyph glyph-name="acircumflex.alt2" horiz-adv-x="799" 
d="M146 593l-16 30l240 121h51l240 -121l-16 -30l-250 126zM392 -20q-160 0 -261 75.5t-101 195.5q0 121 100.5 196.5t259.5 75.5q110 0 194 -40.5t119 -107.5h1l4 128h51v-503h-50l-4 128h-1q-34 -67 -118.5 -107.5t-193.5 -40.5zM395 31q137 0 223.5 61.5t86.5 158.5
t-86.5 158.5t-223.5 61.5t-223.5 -61.5t-86.5 -158.5t87 -158.5t223 -61.5z" />
    <glyph glyph-name="Gcircumflex.alt1" horiz-adv-x="1024" 
d="M280 783l-15 30l199 101h51l201 -101l-17 -30l-210 106zM519 -25q-208 0 -343.5 106t-135.5 270t126.5 270.5t322.5 106.5q135 0 245 -61t139 -154l-55 -16q-25 77 -119 127t-210 50q-170 1 -280 -90t-110 -233q0 -140 119 -231.5t301 -91.5q173 0 289 86.5t116 218.5
h-596v52h655q1 -9 1 -26q0 -168 -129 -276t-336 -108z" />
    <glyph glyph-name="Gbreve.alt1" horiz-adv-x="1024" 
d="M488 790q-88 0 -143 33t-55 91h34q1 -43 46 -66.5t118 -23.5q74 0 120 23.5t45 66.5h34q0 -58 -55 -91t-144 -33zM519 -25q-208 0 -343.5 106t-135.5 270t126.5 270.5t322.5 106.5q135 0 245 -61t139 -154l-55 -16q-25 77 -119 127t-210 50q-170 1 -280 -90t-110 -233
q0 -140 119 -231.5t301 -91.5q173 0 289 86.5t116 218.5h-596v52h655q1 -9 1 -26q0 -168 -129 -276t-336 -108z" />
    <glyph glyph-name="Gdotaccent.alt1" horiz-adv-x="1024" 
d="M489 809q-19 0 -31.5 12.5t-12.5 31.5t12.5 31t31.5 12t31.5 -12t12.5 -31t-12.5 -31.5t-31.5 -12.5zM519 -25q-208 0 -343.5 106t-135.5 270t126.5 270.5t322.5 106.5q135 0 245 -61t139 -154l-55 -16q-25 77 -119 127t-210 50q-170 1 -280 -90t-110 -233
q0 -140 119 -231.5t301 -91.5q173 0 289 86.5t116 218.5h-596v52h655q1 -9 1 -26q0 -168 -129 -276t-336 -108z" />
    <glyph glyph-name="uni0122.alt1" horiz-adv-x="1024" 
d="M519 -25q-208 0 -343.5 106t-135.5 270t126.5 270.5t322.5 106.5q135 0 245 -61t139 -154l-55 -16q-25 77 -119 127t-210 50q-170 1 -280 -90t-110 -233q0 -140 119 -231.5t301 -91.5q173 0 289 86.5t116 218.5h-596v52h655q1 -9 1 -26q0 -168 -129 -276t-336 -108z
M468 -240l6 29q30 -6 47 8.5t13 44.5q-20 -6 -37 6.5t-17 32.5q0 15 11.5 25.5t27.5 10.5q22 0 35 -20t13 -54q0 -49 -27 -70.5t-72 -12.5z" />
    <glyph glyph-name="IJacute" horiz-adv-x="722" 
d="M86 780l-28 17l70 124l29 -18zM651 780l-29 17l71 124l29 -18zM51 0v703h59v-703h-59zM439 -20q-107 0 -175.5 54.5t-88.5 154.5l52 22q14 -85 68.5 -131.5t140.5 -46.5q88 0 137.5 55.5t49.5 154.5v460h59v-464q0 -122 -64 -190.5t-179 -68.5z" />
    <glyph glyph-name="ijacute" horiz-adv-x="282" 
d="M75 600l-28 18l84 143l29 -17zM218 600l-29 18l85 143l29 -17zM79 -230q-68 0 -113 24l12 50q44 -23 99 -23q50 0 79.5 32t29.5 85v565h55v-568q0 -76 -43.5 -120.5t-118.5 -44.5zM40 0v503h55v-503h-55z" />
    <glyph glyph-name="uni0136.alt1" horiz-adv-x="703" 
d="M50 0v703h59v-312h1l492 312h103l-532 -336l540 -367h-100l-503 344h-1v-344h-59zM297 -240l6 29q30 -6 47 8.5t13 44.5q-20 -6 -37 6.5t-17 32.5q0 15 11.5 25.5t27.5 10.5q22 0 35 -20t13 -54q0 -49 -27 -70.5t-72 -12.5z" />
    <glyph glyph-name="uni0137.alt1" horiz-adv-x="566" 
d="M40 0v733h55v-446h1l359 216h102l-402 -237l411 -266h-101l-369 244h-1v-244h-55zM210 -240l6 29q30 -6 47 8.5t13 44.5q-20 -6 -37 6.5t-17 32.5q0 15 11.5 25.5t27.5 10.5q22 0 35 -20t13 -54q0 -49 -27 -70.5t-72 -12.5z" />
    <glyph glyph-name="Racute.alt1" horiz-adv-x="835" 
d="M402 777l-19 29l174 115l19 -28zM50 0v703h502q110 0 179 -55t69 -144q0 -60 -36.5 -106.5t-99.5 -67.5v-1q51 -10 80.5 -46t29.5 -87v-196h-59v189q0 49 -34 80t-87 31h-485v-300h-59zM108 354h440q85 0 138.5 41t53.5 106q0 66 -53.5 107t-138.5 41h-440v-295z" />
    <glyph glyph-name="Racute.alt2" horiz-adv-x="829" 
d="M402 777l-19 29l174 115l19 -28zM50 0v703h502q109 0 178 -56t69 -144q0 -79 -57.5 -132.5t-150.5 -61.5l203 -309h-69l-195 300h-421v-300h-59zM108 354h440q85 0 138.5 41t53.5 106q0 66 -53.5 107t-138.5 41h-440v-295z" />
    <glyph glyph-name="Rcaron.alt1" horiz-adv-x="835" 
d="M380 790l-199 101l15 30l209 -106l210 106l17 -30l-201 -101h-51zM50 0v703h502q110 0 179 -55t69 -144q0 -60 -36.5 -106.5t-99.5 -67.5v-1q51 -10 80.5 -46t29.5 -87v-196h-59v189q0 49 -34 80t-87 31h-485v-300h-59zM108 354h440q85 0 138.5 41t53.5 106
q0 66 -53.5 107t-138.5 41h-440v-295z" />
    <glyph glyph-name="Rcaron.alt2" horiz-adv-x="829" 
d="M380 790l-199 101l15 30l209 -106l210 106l17 -30l-201 -101h-51zM50 0v703h502q109 0 178 -56t69 -144q0 -79 -57.5 -132.5t-150.5 -61.5l203 -309h-69l-195 300h-421v-300h-59zM108 354h440q85 0 138.5 41t53.5 106q0 66 -53.5 107t-138.5 41h-440v-295z" />
    <glyph glyph-name="uni0156.alt1" horiz-adv-x="835" 
d="M50 0v703h502q110 0 179 -55t69 -144q0 -60 -36.5 -106.5t-99.5 -67.5v-1q51 -10 80.5 -46t29.5 -87v-196h-59v189q0 49 -34 80t-87 31h-485v-300h-59zM108 354h440q85 0 138.5 41t53.5 106q0 66 -53.5 107t-138.5 41h-440v-295zM361 -240l6 29q30 -6 47 8.5t13 44.5
q-20 -6 -37 6.5t-17 32.5q0 15 11.5 25.5t27.5 10.5q22 0 35 -20t13 -54q0 -49 -27 -70.5t-72 -12.5z" />
    <glyph glyph-name="uni0156.alt2" horiz-adv-x="829" 
d="M50 0v703h502q109 0 178 -56t69 -144q0 -79 -57.5 -132.5t-150.5 -61.5l203 -309h-69l-195 300h-421v-300h-59zM108 354h440q85 0 138.5 41t53.5 106q0 66 -53.5 107t-138.5 41h-440v-295zM361 -240l6 29q30 -6 47 8.5t13 44.5q-20 -6 -37 6.5t-17 32.5q0 15 11.5 25.5
t27.5 10.5q22 0 35 -20t13 -54q0 -49 -27 -70.5t-72 -12.5z" />
    <glyph glyph-name="ugrave.alt1" horiz-adv-x="715" 
d="M366 594l-205 136l20 29l203 -136zM357 -20q-155 0 -238.5 71t-83.5 203v249h55v-249q0 -107 69.5 -165t198.5 -58t198 58t69 165v249h55v-249q0 -132 -84 -203t-239 -71z" />
    <glyph glyph-name="uacute.alt1" horiz-adv-x="715" 
d="M359 594l-18 29l203 136l20 -29zM357 -20q-155 0 -238.5 71t-83.5 203v249h55v-249q0 -107 69.5 -165t198.5 -58t198 58t69 165v249h55v-249q0 -132 -84 -203t-239 -71z" />
    <glyph glyph-name="ucircumflex.alt1" horiz-adv-x="715" 
d="M111 593l-16 30l240 121h51l240 -121l-16 -30l-250 126zM357 -20q-155 0 -238.5 71t-83.5 203v249h55v-249q0 -107 69.5 -165t198.5 -58t198 58t69 165v249h55v-249q0 -132 -84 -203t-239 -71z" />
    <glyph glyph-name="utilde.alt1" horiz-adv-x="715" 
d="M474 590q-26 0 -49.5 9t-37.5 19.5t-35 28.5q-22 19 -32.5 26.5t-32.5 17t-44 9.5q-44 0 -71.5 -28.5t-27.5 -71.5h-33q0 58 38 95.5t96 37.5q27 0 52.5 -10.5t38.5 -20t36 -30.5q19 -16 30.5 -24.5t31.5 -16.5t41 -8q45 0 73.5 28.5t28.5 72.5h33q0 -58 -39 -96t-97 -38
zM357 -20q-155 0 -238.5 71t-83.5 203v249h55v-249q0 -107 69.5 -165t198.5 -58t198 58t69 165v249h55v-249q0 -132 -84 -203t-239 -71z" />
    <glyph glyph-name="umacron.alt1" horiz-adv-x="715" 
d="M127 594v35h465v-35h-465zM357 -20q-155 0 -238.5 71t-83.5 203v249h55v-249q0 -107 69.5 -165t198.5 -58t198 58t69 165v249h55v-249q0 -132 -84 -203t-239 -71z" />
    <glyph glyph-name="ubreve.alt1" horiz-adv-x="715" 
d="M359 596q-104 0 -171 42t-67 106h34q1 -50 58.5 -82t145.5 -32q89 0 147.5 32.5t57.5 81.5h34q0 -65 -67.5 -106.5t-171.5 -41.5zM357 -20q-155 0 -238.5 71t-83.5 203v249h55v-249q0 -107 69.5 -165t198.5 -58t198 58t69 165v249h55v-249q0 -132 -84 -203t-239 -71z" />
    <glyph glyph-name="uring.alt1" horiz-adv-x="715" 
d="M361 596q-39 0 -64.5 25t-25.5 64t25 64t65 25q38 0 63 -25t26 -64q0 -39 -25 -64t-64 -25zM360 628q25 0 40.5 16t15.5 41t-15.5 41t-40.5 16q-24 0 -40.5 -16t-16.5 -41t16.5 -41t40.5 -16zM357 -20q-155 0 -238.5 71t-83.5 203v249h55v-249q0 -107 69.5 -165
t198.5 -58t198 58t69 165v249h55v-249q0 -132 -84 -203t-239 -71z" />
    <glyph glyph-name="uhungarumlaut.alt1" horiz-adv-x="715" 
d="M233 594l-18 29l203 136l20 -29zM463 594l-19 29l204 136l20 -29zM357 -20q-155 0 -238.5 71t-83.5 203v249h55v-249q0 -107 69.5 -165t198.5 -58t198 58t69 165v249h55v-249q0 -132 -84 -203t-239 -71z" />
    <glyph glyph-name="udieresis.alt1" horiz-adv-x="715" 
d="M202 607q-20 0 -32 12.5t-12 31.5t12.5 31t31.5 12t31.5 -12t12.5 -31t-12 -31.5t-32 -12.5zM516 607q-19 0 -31 12t-12 32q0 19 12 31t31 12t31.5 -12t12.5 -31t-12 -31.5t-32 -12.5zM357 -20q-155 0 -238.5 71t-83.5 203v249h55v-249q0 -107 69.5 -165t198.5 -58
t198 58t69 165v249h55v-249q0 -132 -84 -203t-239 -71z" />
    <glyph glyph-name="uogonek.alt1" horiz-adv-x="715" 
d="M625 503h55v-249q0 -102 -50.5 -168t-146.5 -91q-102 -38 -147 -64.5t-45 -60.5q1 -20 18.5 -32t47.5 -12q26 0 52.5 13t43.5 34l22 -27q-21 -25 -53.5 -39.5t-65.5 -14.5q-45 0 -72 20.5t-28 54.5q-1 59 112 113h-11q-155 0 -238.5 71t-83.5 203v249h55v-249
q0 -107 69.5 -165t198.5 -58t198 58t69 165v249z" />
    <glyph glyph-name="ygrave.alt1" horiz-adv-x="691" 
d="M359 594l-205 136l20 29l203 -136zM163 -210l180 268l-344 445h65l308 -392h1l257 392h61l-466 -713h-62z" />
    <glyph glyph-name="yacute.alt1" horiz-adv-x="691" 
d="M353 594l-18 29l203 136l20 -29zM163 -210l180 268l-344 445h65l308 -392h1l257 392h61l-466 -713h-62z" />
    <glyph glyph-name="ydieresis.alt1" horiz-adv-x="691" 
d="M196 607q-20 0 -32 12.5t-12 31.5t12.5 31t31.5 12t31.5 -12t12.5 -31t-12 -31.5t-32 -12.5zM510 607q-19 0 -31 12t-12 32q0 19 12 31t31 12t31.5 -12t12.5 -31t-12 -31.5t-32 -12.5zM163 -210l180 268l-344 445h65l308 -392h1l257 392h61l-466 -713h-62z" />
    <glyph glyph-name="ycircumflex.alt1" horiz-adv-x="691" 
d="M104 593l-16 30l240 121h51l240 -121l-16 -30l-250 126zM163 -210l180 268l-344 445h65l308 -392h1l257 392h61l-466 -713h-62z" />
    <glyph glyph-name="three.alt1" horiz-adv-x="772" 
d="M388 -25q-142 0 -238.5 66.5t-113.5 178.5l53 20q10 -97 92 -154.5t207 -57.5q123 0 201.5 49.5t78.5 128.5q0 75 -69 122t-169 47q-58 0 -88 -17l-30 44l280 248l-488 -1v54h551v-66l-243 -214q12 2 36 2q120 -1 199 -63.5t79 -156.5q0 -101 -95.5 -165.5t-242.5 -64.5z
" />
    <glyph glyph-name="colon.case" horiz-adv-x="160" 
d="M80 493q-20 0 -32 12.5t-12 31.5t12 31.5t32 12.5t32 -12.5t12 -31.5t-12.5 -31.5t-31.5 -12.5zM80 80q-20 0 -32 12t-12 32q0 19 12.5 31.5t31.5 12.5t31.5 -12.5t12.5 -31.5t-12.5 -31.5t-31.5 -12.5z" />
    <glyph glyph-name="semicolon.case" horiz-adv-x="187" 
d="M103 493q-19 0 -31.5 12.5t-12.5 31.5t12.5 31.5t31.5 12.5q20 0 32.5 -12.5t12.5 -31.5t-13 -31.5t-32 -12.5zM36 -24l8 29q34 -9 56 14.5t18 64.5q-25 -7 -42 5.5t-17 34.5q0 19 12 31t31 12q23 0 36.5 -20.5t13.5 -59.5q0 -62 -32.5 -92.5t-83.5 -18.5z" />
    <glyph glyph-name="exclamdown.case" horiz-adv-x="269" 
d="M135 714q19 0 31.5 -12t12.5 -32q0 -19 -12.5 -31.5t-31.5 -12.5q-20 0 -32.5 12.5t-12.5 31.5t12.5 31.5t32.5 12.5zM155 532l9 -338v-194h-59v194l9 338h41z" />
    <glyph glyph-name="questiondown.case" horiz-adv-x="677" 
d="M353 714q20 0 32 -12t12 -32q0 -19 -12 -31.5t-32 -12.5q-19 0 -31.5 12.5t-12.5 31.5t12.5 31.5t31.5 12.5zM381 532q0 -74 -33.5 -117t-109.5 -79l-56 -25q-55 -26 -84 -54.5t-29 -69.5q0 -67 73.5 -113t181.5 -46t182 47t97 126l50 -28q-28 -88 -117.5 -143
t-215.5 -55q-134 0 -222 60.5t-88 151.5q0 56 35.5 94t107.5 72l55 25q66 31 92 63t26 91h55z" />
    <glyph glyph-name="slash.case" horiz-adv-x="546" 
d="M38 -60l-28 20l496 799l29 -19z" />
    <glyph glyph-name="backslash.case" horiz-adv-x="546" 
d="M507 -60l-497 800l29 19l496 -799z" />
    <glyph glyph-name="parenleft.case" horiz-adv-x="236" 
d="M200 -120q-71 74 -115.5 204t-44.5 262q0 133 44.5 263.5t115.5 204.5l25 -22q-68 -78 -109.5 -201t-41.5 -247q1 -123 42 -244t109 -197z" />
    <glyph glyph-name="parenright.case" horiz-adv-x="235" 
d="M35 -120l-24 23q68 77 109 198t41 243q1 124 -40.5 247t-110.5 201l25 22q71 -74 116 -204.5t44 -263.5q0 -132 -44.5 -262t-115.5 -204z" />
    <glyph glyph-name="braceleft.case" horiz-adv-x="307" 
d="M201 -120q-38 0 -61 25.5t-23 68.5v269q0 34 -17 54.5t-46 22.5l-14 1v52l14 1q30 2 46.5 22.5t16.5 55.5v266q0 43 23 69t62 26h94v-35h-94q-23 0 -36.5 -16t-13.5 -44v-270q0 -42 -20.5 -69t-54.5 -30v-2q34 -4 54.5 -31t20.5 -69v-273q0 -27 13.5 -43.5t36.5 -16.5h94
l-1 -34h-94z" />
    <glyph glyph-name="braceright.case" horiz-adv-x="306" 
d="M105 -120h-95v34h94q23 0 36.5 16.5t13.5 43.5v273q0 42 20.5 69t54.5 31v2q-34 3 -54.5 30t-20.5 69v270q0 28 -13.5 44t-36.5 16h-94v35h94q38 0 61.5 -26t23.5 -69v-266q0 -35 16.5 -55.5t46.5 -22.5l14 -1v-52l-14 -1q-29 -2 -46 -22.5t-17 -54.5v-269
q0 -43 -23 -68.5t-61 -25.5z" />
    <glyph glyph-name="bracketleft.case" horiz-adv-x="234" 
d="M50 -120v933h173v-35h-138v-864h138v-34h-173z" />
    <glyph glyph-name="bracketright.case" horiz-adv-x="233" 
d="M183 -120h-173v34h138v864h-138v35h173v-933z" />
    <glyph glyph-name="hyphen.case" horiz-adv-x="618" 
d="M56 342v52h506v-52h-506z" />
    <glyph glyph-name="endash.case" horiz-adv-x="839" 
d="M56 350v35h727v-35h-727z" />
    <glyph glyph-name="emdash.case" horiz-adv-x="1209" 
d="M56 350v35h1098v-35h-1098z" />
    <glyph glyph-name="guillemotleft.case" horiz-adv-x="621" 
d="M341 90l-311 261l310 262l23 -27l-280 -235l279 -235zM569 90l-311 261l310 262l23 -27l-279 -235l278 -235z" />
    <glyph glyph-name="guillemotright.case" horiz-adv-x="621" 
d="M52 613l311 -261l-310 -262l-23 27l279 235l-278 235zM280 613l311 -261l-310 -262l-23 27l280 235l-279 235z" />
    <glyph glyph-name="guilsinglleft.case" horiz-adv-x="393" 
d="M341 90l-311 261l310 262l23 -27l-280 -235l279 -235z" />
    <glyph glyph-name="guilsinglright.case" horiz-adv-x="393" 
d="M52 613l311 -261l-310 -262l-23 27l280 235l-279 235z" />
    <glyph glyph-name="at.case" horiz-adv-x="1143" 
d="M578 -72q-254 0 -396 116t-142 303q0 186 147.5 306.5t398.5 120.5q245 0 381 -116.5t136 -315.5q0 -253 -154 -253q-49 0 -80.5 32t-31.5 82v20h-1q-35 -59 -130.5 -97.5t-209.5 -38.5q-129 0 -197.5 36.5t-68.5 107.5q0 140 298 162l275 22q35 3 35 33q0 56 -68 93
t-174 37q-101 0 -190 -33.5t-122 -85.5l-37 36q40 59 138.5 97t210.5 38q127 0 212 -50.5t85 -135.5v-241q0 -76 67 -76q45 0 76.5 48.5t31.5 165.5q0 185 -125.5 291.5t-354.5 106.5q-239 0 -376.5 -110.5t-137.5 -281.5q0 -172 133 -278.5t374 -106.5q141 0 261 52l11 -31
q-127 -55 -275 -55zM498 137q146 0 242.5 55.5t96.5 137.5v40l-305 -24q-246 -18 -246 -112q0 -97 212 -97z" />
    <glyph glyph-name="acute.case" horiz-adv-x="314" 
d="M80 777l-19 29l174 115l19 -28z" />
    <glyph glyph-name="breve.case" horiz-adv-x="518" 
d="M259 790q-88 0 -143 33t-55 91h34q1 -43 46 -66.5t118 -23.5q74 0 120 23.5t45 66.5h34q0 -58 -55 -91t-144 -33z" />
    <glyph glyph-name="caron.case" horiz-adv-x="572" 
d="M260 790l-199 101l15 30l209 -106l210 106l17 -30l-201 -101h-51z" />
    <glyph glyph-name="caron.alt1" horiz-adv-x="222" 
d="M63 560l6 28q30 -6 47 9t13 45q-20 -6 -37 6t-17 32q0 16 11 26.5t28 10.5q22 0 35 -20t13 -54q0 -49 -27 -71t-72 -12z" />
    <glyph glyph-name="circumflex.case" horiz-adv-x="572" 
d="M76 783l-15 30l199 101h51l201 -101l-17 -30l-210 106z" />
    <glyph glyph-name="dieresis.case" horiz-adv-x="520" 
d="M105 809q-19 0 -31.5 12t-12.5 31t12.5 31t31.5 12t31.5 -12t12.5 -31t-12.5 -31t-31.5 -12zM416 809q-19 0 -31.5 12t-12.5 31t12.5 31t31.5 12t31.5 -12t12.5 -31t-12.5 -31t-31.5 -12z" />
    <glyph glyph-name="dotaccent.case" horiz-adv-x="209" 
d="M105 809q-19 0 -31.5 12.5t-12.5 31.5t12.5 31t31.5 12t31.5 -12t12.5 -31t-12.5 -31.5t-31.5 -12.5z" />
    <glyph glyph-name="grave.case" horiz-adv-x="314" 
d="M234 777l-174 116l20 28l173 -115z" />
    <glyph glyph-name="hungarumlaut.case" horiz-adv-x="543" 
d="M80 777l-19 29l174 115l19 -28zM309 777l-19 29l173 115l20 -28z" />
    <glyph glyph-name="ring.case" horiz-adv-x="300" 
d="M151 786q-39 0 -64.5 25t-25.5 64t25 64t65 25q38 0 63 -25t26 -64q0 -39 -25 -64t-64 -25zM150 818q25 0 40.5 16t15.5 41t-15.5 41t-40.5 16q-24 0 -40.5 -16t-16.5 -41t16.5 -41t40.5 -16z" />
    <glyph glyph-name="tilde.case" horiz-adv-x="619" 
d="M423 780q-26 0 -50 9.5t-37.5 19.5t-34.5 28q-20 17 -32.5 26.5t-33.5 18t-43 8.5q-44 0 -71.5 -28.5t-27.5 -71.5h-33q0 58 38 95.5t96 37.5q28 0 54 -10.5t38.5 -20.5t35.5 -30q55 -49 102 -49q45 0 73.5 28.5t28.5 72.5h33q0 -58 -39 -96t-97 -38z" />
    <glyph glyph-name="arrowup.case" horiz-adv-x="538" 
d="M40 396l229 220l229 -220l-24 -25l-188 181v-452h-34v452l-188 -181z" />
    <glyph glyph-name="uni2197.case" horiz-adv-x="474" 
d="M100 546l318 -7l6 -317l-34 -1l-6 261l-319 -320l-25 24l320 320l-261 5z" />
    <glyph glyph-name="arrowright.case" horiz-adv-x="596" 
d="M336 132l-25 24l181 188h-452v34h452l-181 188l25 24l220 -229z" />
    <glyph glyph-name="uni2198.case" horiz-adv-x="474" 
d="M424 498l-7 -318l-317 -6l-1 34l261 5l-320 320l25 24l319 -320l5 261h35z" />
    <glyph glyph-name="arrowdown.case" horiz-adv-x="538" 
d="M40 306l24 25l188 -180v452h34v-452l188 180l24 -25l-229 -220z" />
    <glyph glyph-name="uni2199.case" horiz-adv-x="474" 
d="M50 498h35l5 -261l320 320l24 -24l-320 -320l261 -5l-1 -34l-317 6z" />
    <glyph glyph-name="arrowleft.case" horiz-adv-x="596" 
d="M260 132l-220 229l220 229l25 -24l-181 -188h452v-34h-452l181 -188z" />
    <glyph glyph-name="uni2196.case" horiz-adv-x="474" 
d="M374 546l1 -35l-261 -5l320 -320l-24 -24l-320 320l-5 -261l-35 1l7 317z" />
    <glyph glyph-name="arrowboth.case" horiz-adv-x="924" 
d="M664 590l220 -229l-220 -229l-25 24l181 188h-716l181 -188l-25 -24l-220 229l220 229l25 -24l-181 -188h716l-181 188z" />
    <glyph glyph-name="arrowupdn.case" horiz-adv-x="538" 
d="M286 21l188 180l24 -25l-229 -220l-229 220l24 25l188 -180v661l-188 -181l-24 25l229 220l229 -220l-24 -25l-188 181v-661z" />
    </font>
</defs>
</svg>
